<svg width="142" height="120" viewBox="0 0 142 120" fill="none" xmlns="http://www.w3.org/2000/svg">
<path d="M20.12 77.312C19.3547 77.4613 18.384 77.6107 17.208 77.76C16.032 77.8907 15.08 77.9747 14.352 78.012C14.296 78.8147 14.2213 81.1293 14.128 84.956C14.0347 88.7827 13.9787 91.6107 13.96 93.44C14.968 93.4213 16.2933 93.356 17.936 93.244C19.3173 93.1693 20.092 93.132 20.26 93.132C20.596 93.132 20.8947 93.2067 21.156 93.356C21.436 93.5053 21.576 93.7387 21.576 94.056C21.576 94.3173 21.5293 94.504 21.436 94.616C21.3613 94.728 21.184 94.784 20.904 94.784C20.792 94.784 20.484 94.756 19.98 94.7C19.6067 94.6253 19.2893 94.588 19.028 94.588C18.1507 94.588 16.396 94.644 13.764 94.756C13.6707 94.8867 13.5587 94.98 13.428 95.036C13.316 95.1107 13.2133 95.148 13.12 95.148C13.008 95.148 12.896 95.12 12.784 95.064C12.672 95.008 12.6067 94.924 12.588 94.812L11.328 94.952C9.872 95.1387 8.78933 95.232 8.08 95.232C7.464 95.232 6.99733 95.1013 6.68 94.84C6.512 94.6907 6.428 94.42 6.428 94.028C6.428 93.916 6.484 93.776 6.596 93.608C6.72667 93.44 6.85733 93.356 6.988 93.356C7.02533 93.356 7.16533 93.412 7.408 93.524C7.66933 93.6173 7.912 93.664 8.136 93.664C8.82667 93.664 9.844 93.6267 11.188 93.552L12.476 93.468L12.644 89.352C12.6627 88.9227 12.6813 88.54 12.7 88.204C12.7187 87.8493 12.728 87.5507 12.728 87.308L13.008 78.152C11.0667 78.2827 10.1427 78.348 10.236 78.348C8.332 78.4973 7.212 78.572 6.876 78.572C6.55867 78.572 6.26 78.4693 5.98 78.264C5.7 78.0587 5.56 77.7973 5.56 77.48C5.56 77.256 5.616 77.0787 5.728 76.948C5.85867 76.8173 6.02667 76.752 6.232 76.752C6.38133 76.752 6.53067 76.7613 6.68 76.78C6.82933 76.7987 6.97867 76.8173 7.128 76.836C7.59467 76.9293 8.04267 76.976 8.472 76.976C8.88267 76.976 9.66667 76.948 10.824 76.892C11.9813 76.8173 12.756 76.7707 13.148 76.752C13.1667 76.5093 13.2507 76.3133 13.4 76.164C13.5493 75.996 13.7453 75.912 13.988 75.912C14.1 75.912 14.1933 75.9867 14.268 76.136C14.3427 76.2853 14.38 76.4533 14.38 76.64C15.4627 76.6027 17.4133 76.36 20.232 75.912C20.456 75.8747 20.6987 75.772 20.96 75.604C21.24 75.436 21.3987 75.352 21.436 75.352C21.6227 75.352 21.8 75.4267 21.968 75.576C22.136 75.7253 22.22 75.912 22.22 76.136C22.22 76.4907 22.0427 76.7427 21.688 76.892C21.3333 77.0413 20.8107 77.1813 20.12 77.312ZM45.0455 92.964C45.0455 93.188 44.9521 93.4493 44.7655 93.748C44.5788 94.028 44.3921 94.168 44.2055 94.168C43.8881 94.168 43.6455 93.972 43.4775 93.58C43.3095 93.188 43.2255 92.7307 43.2255 92.208C43.2255 91.76 43.2535 90.416 43.3095 88.176L43.3375 87.112C43.3375 86.6827 43.2255 86.3747 43.0015 86.188C42.1615 87.6067 41.3775 88.8387 40.6495 89.884C39.9215 90.9293 38.9975 91.9187 37.8775 92.852C36.7575 93.7667 35.5815 94.224 34.3495 94.224C33.7521 94.224 33.2855 94.0373 32.9495 93.664C32.6321 93.2907 32.4735 92.8053 32.4735 92.208C32.4735 91.4613 32.8095 90.444 33.4815 89.156C34.1535 87.8493 35.0121 86.5333 36.0575 85.208C37.1028 83.864 38.1481 82.7627 39.1935 81.904C39.8841 81.344 40.4348 80.9707 40.8455 80.784C41.2561 80.5787 41.6201 80.476 41.9375 80.476C42.2361 80.476 42.5441 80.5693 42.8615 80.756C43.1788 80.9427 43.4495 81.204 43.6735 81.54C43.8975 81.876 44.0095 82.2587 44.0095 82.688C44.0095 83.2667 43.8508 83.8173 43.5335 84.34L44.0095 84.2C44.2148 84.2 44.3361 84.452 44.3735 84.956C44.3921 85.2547 44.4108 85.8613 44.4295 86.776C44.4668 87.6907 44.4948 88.4467 44.5135 89.044C44.5321 89.66 44.5508 90.2573 44.5695 90.836C44.5881 91.4147 44.6068 91.872 44.6255 92.208C44.6441 92.3387 44.7188 92.4787 44.8495 92.628C44.9801 92.7587 45.0455 92.8707 45.0455 92.964ZM42.6095 85.096C42.8335 84.536 42.9455 83.9293 42.9455 83.276C42.9455 82.884 42.8241 82.548 42.5815 82.268C42.3575 81.9693 42.0495 81.82 41.6575 81.82C41.1908 81.82 40.5935 82.1373 39.8655 82.772C39.0255 83.4813 38.1388 84.4333 37.2055 85.628C36.2721 86.804 35.4975 87.9707 34.8815 89.128C34.2655 90.2853 33.9575 91.2 33.9575 91.872C33.9575 92.432 34.2188 92.712 34.7415 92.712C35.7495 92.712 36.7201 92.3387 37.6535 91.592C38.5868 90.8453 39.4175 89.9587 40.1455 88.932C40.8921 87.8867 41.7135 86.608 42.6095 85.096ZM64.7098 94.532C64.3738 94.532 64.2058 94.364 64.2058 94.028C64.2058 90.2573 64.0844 87.3733 63.8418 85.376C63.5991 83.36 63.1791 82.352 62.5818 82.352C61.5738 82.352 60.0991 85.8707 58.1578 92.908V92.936C58.1578 93.16 58.0831 93.356 57.9338 93.524C57.7844 93.6733 57.5884 93.748 57.3458 93.748C57.0098 93.748 56.8418 93.58 56.8418 93.244C56.8418 92.4973 56.8791 91.34 56.9538 89.772C57.0284 88.0173 57.0658 86.636 57.0658 85.628C57.0658 84.228 57.0191 83.2387 56.9258 82.66C56.8511 82.0627 56.6738 81.764 56.3938 81.764C55.7591 81.764 54.9564 82.9307 53.9858 85.264C53.0151 87.5787 51.9978 90.3133 50.9338 93.468L50.6818 94.196C50.6071 94.3827 50.4951 94.5413 50.3458 94.672C50.2151 94.8027 50.0658 94.868 49.8978 94.868C49.6738 94.868 49.5244 94.8493 49.4498 94.812C49.3751 94.7747 49.3284 94.6627 49.3098 94.476C49.2164 93.5613 49.1418 92.3387 49.0858 90.808C49.0484 90.416 49.0111 89.772 48.9738 88.876C48.7871 85.7213 48.6191 83.5933 48.4698 82.492C48.3204 81.372 48.2458 80.7467 48.2458 80.616C48.2458 80.4667 48.3204 80.2893 48.4698 80.084C48.6191 79.8787 48.7591 79.776 48.8898 79.776C49.1884 79.776 49.4311 79.9907 49.6178 80.42C49.7111 80.6253 49.8138 81.4467 49.9258 82.884C50.0378 84.3213 50.1311 86.104 50.2058 88.232L50.3458 92.516C51.3724 89.3427 52.4364 86.468 53.5378 83.892C54.6391 81.2973 55.6471 80 56.5618 80C57.1778 80 57.5978 80.448 57.8218 81.344C58.0458 82.24 58.1578 83.5373 58.1578 85.236C58.1578 86.132 58.1391 87.42 58.1018 89.1L58.0738 90.388C58.8391 87.7187 59.5951 85.4787 60.3418 83.668C61.1071 81.8573 61.8724 80.952 62.6378 80.952C64.5604 80.952 65.5218 85.208 65.5218 93.72C65.5218 93.944 65.4471 94.1307 65.2978 94.28C65.1484 94.448 64.9524 94.532 64.7098 94.532ZM82.3255 94.924C81.1122 94.924 80.1508 94.8213 79.4415 94.616C78.7322 94.4293 78.3775 94.1587 78.3775 93.804C78.3775 93.6173 78.5082 93.3093 78.7695 92.88C79.0495 92.432 79.2642 92.208 79.4135 92.208C79.6375 92.208 79.7495 92.2547 79.7495 92.348C79.7495 92.404 79.7122 92.4693 79.6375 92.544C79.5815 92.6187 79.5535 92.6933 79.5535 92.768C79.5535 92.824 79.6655 92.908 79.8895 93.02C80.1322 93.132 80.4962 93.2347 80.9815 93.328C81.4668 93.4213 82.0548 93.468 82.7455 93.468C83.8468 93.468 84.8082 93.2533 85.6295 92.824C86.4695 92.3947 87.1135 91.8533 87.5615 91.2C88.0095 90.5467 88.2335 89.912 88.2335 89.296C88.2335 88.4933 87.8415 87.8027 87.0575 87.224C86.2922 86.6453 85.0508 86.0947 83.3335 85.572C81.6722 85.0307 80.3842 84.5827 79.4695 84.228C78.5735 83.8547 77.8455 83.4067 77.2855 82.884C76.7255 82.3427 76.4455 81.6893 76.4455 80.924C76.4455 79.8973 77.0242 78.8893 78.1815 77.9C79.3388 76.892 80.7668 76.08 82.4655 75.464C84.1642 74.8293 85.7415 74.512 87.1975 74.512C87.9442 74.512 88.3455 74.6613 88.4015 74.96C88.4575 75.2587 88.4855 75.5947 88.4855 75.968C88.4855 76.248 88.3828 76.388 88.1775 76.388C88.0842 76.388 87.9722 76.36 87.8415 76.304C87.7295 76.2293 87.6268 76.1733 87.5335 76.136C87.4215 76.0987 87.2908 76.0613 87.1415 76.024C86.9922 75.9867 86.7775 75.968 86.4975 75.968C85.5268 75.968 84.3602 76.22 82.9975 76.724C81.6348 77.228 80.4495 77.8533 79.4415 78.6C78.4522 79.3467 77.9575 80.0653 77.9575 80.756C77.9575 81.316 78.1815 81.8013 78.6295 82.212C79.0962 82.6227 79.7122 82.9773 80.4775 83.276C81.2428 83.556 82.3255 83.9107 83.7255 84.34C85.7788 84.9373 87.2908 85.6093 88.2615 86.356C89.2508 87.1027 89.7455 88.0173 89.7455 89.1C89.7455 90.0333 89.4282 90.9573 88.7935 91.872C88.1775 92.768 87.3002 93.496 86.1615 94.056C85.0415 94.6347 83.7628 94.924 82.3255 94.924ZM104.272 92.964C104.272 93.188 104.179 93.4493 103.992 93.748C103.805 94.028 103.619 94.168 103.432 94.168C103.115 94.168 102.872 93.972 102.704 93.58C102.536 93.188 102.452 92.7307 102.452 92.208C102.452 91.76 102.48 90.416 102.536 88.176L102.564 87.112C102.564 86.6827 102.452 86.3747 102.228 86.188C101.388 87.6067 100.604 88.8387 99.876 89.884C99.148 90.9293 98.224 91.9187 97.104 92.852C95.984 93.7667 94.808 94.224 93.576 94.224C92.9787 94.224 92.512 94.0373 92.176 93.664C91.8587 93.2907 91.7 92.8053 91.7 92.208C91.7 91.4613 92.036 90.444 92.708 89.156C93.38 87.8493 94.2387 86.5333 95.284 85.208C96.3294 83.864 97.3747 82.7627 98.42 81.904C99.1107 81.344 99.6614 80.9707 100.072 80.784C100.483 80.5787 100.847 80.476 101.164 80.476C101.463 80.476 101.771 80.5693 102.088 80.756C102.405 80.9427 102.676 81.204 102.9 81.54C103.124 81.876 103.236 82.2587 103.236 82.688C103.236 83.2667 103.077 83.8173 102.76 84.34L103.236 84.2C103.441 84.2 103.563 84.452 103.6 84.956C103.619 85.2547 103.637 85.8613 103.656 86.776C103.693 87.6907 103.721 88.4467 103.74 89.044C103.759 89.66 103.777 90.2573 103.796 90.836C103.815 91.4147 103.833 91.872 103.852 92.208C103.871 92.3387 103.945 92.4787 104.076 92.628C104.207 92.7587 104.272 92.8707 104.272 92.964ZM101.836 85.096C102.06 84.536 102.172 83.9293 102.172 83.276C102.172 82.884 102.051 82.548 101.808 82.268C101.584 81.9693 101.276 81.82 100.884 81.82C100.417 81.82 99.82 82.1373 99.092 82.772C98.252 83.4813 97.3654 84.4333 96.432 85.628C95.4987 86.804 94.724 87.9707 94.108 89.128C93.492 90.2853 93.184 91.2 93.184 91.872C93.184 92.432 93.4454 92.712 93.968 92.712C94.976 92.712 95.9467 92.3387 96.88 91.592C97.8134 90.8453 98.644 89.9587 99.372 88.932C100.119 87.8867 100.94 86.608 101.836 85.096ZM118.476 95.204C118.29 95.204 118.131 95.1573 118 95.064C117.87 94.9893 117.804 94.8773 117.804 94.728L117.86 92.796C117.954 90.5 118 88.624 118 87.168C118 85.04 117.851 83.556 117.552 82.716C117.254 81.8573 116.908 81.428 116.516 81.428C115.639 81.428 114.538 82.7907 113.212 85.516C111.887 88.2227 110.608 91.1813 109.376 94.392C109.283 94.6533 109.152 94.9053 108.984 95.148C108.835 95.3907 108.676 95.512 108.508 95.512C108.098 95.512 107.892 95.3813 107.892 95.12C107.892 93.9813 107.846 91.8533 107.752 88.736C107.659 85.6 107.584 83.5373 107.528 82.548C107.36 79.2067 107.202 77.144 107.052 76.36C106.903 75.576 106.828 75.156 106.828 75.1C106.828 74.9133 106.931 74.7733 107.136 74.68C107.342 74.5867 107.603 74.54 107.92 74.54C108.182 74.54 108.368 75.1373 108.48 76.332C108.611 77.508 108.704 79.02 108.76 80.868L108.788 81.652C108.826 82.2307 108.854 83.892 108.872 86.636C108.891 89.3613 108.9 91.368 108.9 92.656C109.759 90.5093 110.562 88.596 111.308 86.916C112.074 85.236 112.951 83.668 113.94 82.212C114.93 80.7373 115.844 80 116.684 80C117.394 80 117.991 80.5973 118.476 81.792C118.962 82.968 119.204 84.732 119.204 87.084C119.204 88.1293 119.223 89.5853 119.26 91.452L119.288 94.392C119.288 94.616 119.214 94.8027 119.064 94.952C118.915 95.12 118.719 95.204 118.476 95.204ZM123.645 76.892C123.328 76.892 123.001 76.7613 122.665 76.5C122.348 76.2387 122.189 76.024 122.189 75.856C122.189 75.6507 122.282 75.4547 122.469 75.268C122.674 75.0813 122.88 74.988 123.085 74.988C123.365 75.0813 123.598 75.2307 123.785 75.436C123.934 75.5853 124.102 75.7813 124.289 76.024C124.476 76.2667 124.569 76.416 124.569 76.472C124.569 76.752 124.261 76.892 123.645 76.892ZM124.485 94.644C124.224 94.6253 124.028 94.2053 123.897 93.384C123.785 92.5627 123.664 91.004 123.533 88.708C123.458 87.196 123.393 85.7213 123.337 84.284C123.281 82.828 123.244 81.708 123.225 80.924C123.225 80.7187 123.253 80.5693 123.309 80.476C123.384 80.364 123.514 80.308 123.701 80.308C124.13 80.308 124.401 80.4853 124.513 80.84C124.625 81.1947 124.681 81.876 124.681 82.884L124.653 86.188C124.653 88.0733 124.709 89.5853 124.821 90.724C124.821 90.78 124.905 91.3773 125.073 92.516C125.204 93.3 125.269 93.8227 125.269 94.084C125.269 94.2707 125.185 94.4107 125.017 94.504C124.868 94.616 124.69 94.6627 124.485 94.644ZM130.359 93.86C130.135 93.86 129.92 93.5987 129.715 93.076C129.528 92.5347 129.435 91.7227 129.435 90.64C129.453 88.5307 129.481 85.9827 129.519 82.996C129.575 80.0093 129.621 77.76 129.659 76.248C129.677 75.7067 129.771 75.2027 129.939 74.736C130.125 74.2693 130.443 74.036 130.891 74.036C131.04 74.036 131.133 74.12 131.171 74.288C131.227 74.4373 131.255 74.736 131.255 75.184C131.255 75.2027 131.245 75.268 131.227 75.38C131.227 75.4733 131.227 75.6507 131.227 75.912C130.891 80.8213 130.723 85.6093 130.723 90.276C130.723 90.8733 130.853 91.508 131.115 92.18C131.395 92.852 131.535 93.2067 131.535 93.244C131.535 93.4307 131.413 93.58 131.171 93.692C130.928 93.804 130.657 93.86 130.359 93.86Z" fill="white"/>
<path d="M63.9997 104.795C75.7615 103.423 87.4504 101.7 99.2374 100.444C113.126 98.9631 127.069 97.7524 140.946 96.2551" stroke="url(#paint0_linear_3337_882)" stroke-width="1.9" stroke-linecap="round"/>
<path d="M32.6962 57.3032C32.3416 57.3653 32.0247 57.3295 31.7454 57.1956C31.4724 57.0972 31.311 56.9062 31.2613 56.6225L30.725 52.9337C30.1385 48.5411 29.6031 44.9618 29.1188 42.1959C28.4109 38.1534 27.6336 35.3839 26.7868 33.8876C25.9338 32.3557 25.1349 31.655 24.3902 31.7854C22.7236 32.0773 21.0847 35.0323 19.4736 40.6504C17.8563 46.233 16.4115 52.2788 15.1392 58.7878C15.0488 59.3153 14.8844 59.8375 14.646 60.3544C14.443 60.8651 14.182 61.1483 13.8628 61.2042C13.0827 61.3408 12.6492 61.1609 12.5622 60.6645C12.1834 58.5014 11.3869 54.4744 10.1726 48.5836C8.95211 42.6573 8.12411 38.7637 7.68863 36.9029C6.25798 30.6114 5.27041 26.7458 4.72593 25.3062C4.18144 23.8665 3.89989 23.0935 3.88126 22.9871C3.81916 22.6325 3.96762 22.3324 4.32664 22.0868C4.68566 21.8412 5.16658 21.6656 5.76941 21.56C6.26585 21.4731 6.81916 22.5457 7.42933 24.7779C8.06876 26.9685 8.74903 29.8097 9.47016 33.3017L9.78415 34.7817C10.0476 35.8686 10.6534 39.0152 11.6017 44.2217C12.5437 49.3927 13.229 53.2016 13.6574 55.6484C14.5745 51.2848 15.4628 47.3831 16.3224 43.9433C17.2174 40.4972 18.3625 37.2267 19.7575 34.1317C21.1464 31.0012 22.6386 29.2963 24.2344 29.0168C25.5819 28.7809 26.9153 29.7169 28.2347 31.8249C29.5479 33.8975 30.5956 37.1678 31.378 41.6358C31.7258 43.6216 32.2456 46.3813 32.9375 49.9149L33.9686 55.4906C34.0432 55.9161 33.9634 56.2956 33.7294 56.6289C33.5016 56.9977 33.1572 57.2225 32.6962 57.3032ZM36.4233 20.7972C35.8205 20.9028 35.1565 20.7632 34.4313 20.3785C33.7415 19.9876 33.3687 19.6326 33.3128 19.3135C33.2445 18.9234 33.3566 18.52 33.6491 18.1033C33.9771 17.6804 34.3361 17.4348 34.7262 17.3665C35.2891 17.4507 35.782 17.6567 36.2049 17.9847C36.5383 18.2187 36.9227 18.5352 37.358 18.9341C37.7933 19.3329 38.0203 19.5856 38.0389 19.692C38.1321 20.2239 37.5935 20.5923 36.4233 20.7972ZM43.9243 54.2406C43.4217 54.2921 42.9096 53.5594 42.3882 52.0426C41.9022 50.5196 41.1532 47.5991 40.1412 43.2809C39.4964 40.4334 38.8817 37.6538 38.2972 34.942C37.7065 32.1947 37.263 30.0795 36.9667 28.5964C36.8984 28.2063 36.9019 27.9133 36.9773 27.7174C37.0819 27.4798 37.3115 27.3299 37.6661 27.2678C38.4817 27.125 39.0548 27.3718 39.3856 28.0083C39.7163 28.6448 40.0493 29.9205 40.3847 31.8354L41.4305 38.1212C42.0577 41.7027 42.6671 44.5563 43.2586 46.6822C43.2772 46.7885 43.6355 47.8953 44.3334 50.0025C44.8425 51.4484 45.1404 52.4196 45.2274 52.916C45.2895 53.2706 45.1765 53.5645 44.8884 53.7977C44.6419 54.0601 44.3206 54.2078 43.9243 54.2406ZM72.1278 49.4115C71.454 49.5295 70.7651 49.2481 70.0612 48.5673C69.3989 47.9158 68.8097 47.1601 68.2936 46.3002C67.8068 45.3987 67.5386 44.8061 67.4889 44.5224C67.4206 44.1323 67.5327 43.7289 67.8252 43.3122C68.1532 42.8893 68.5122 42.6437 68.9023 42.5754C69.1505 42.5319 69.3642 42.6042 69.5433 42.7921C69.7161 42.9446 69.9848 43.2265 70.3492 43.6378C70.8156 44.214 71.1884 44.569 71.4677 44.7028C71.9907 44.9767 72.478 45.5675 72.9293 46.4753C73.4161 47.3768 73.6874 47.9871 73.7433 48.3063C73.8365 48.8382 73.2979 49.2066 72.1278 49.4115ZM83.3996 47.4377C82.7259 47.5557 82.037 47.2743 81.333 46.5935C80.6707 45.942 80.0815 45.1863 79.5655 44.3264C79.0787 43.4248 78.8104 42.8322 78.7608 42.5486C78.6925 42.1585 78.8046 41.7551 79.0971 41.3384C79.425 40.9155 79.7841 40.6699 80.1741 40.6016C80.4223 40.5581 80.636 40.6303 80.8151 40.8183C80.988 40.9707 81.2566 41.2526 81.621 41.6639C82.0874 42.2401 82.4602 42.5951 82.7395 42.729C83.2626 43.0029 83.7498 43.5937 84.2011 44.5014C84.6879 45.403 84.9593 46.0133 85.0152 46.3325C85.1083 46.8644 84.5698 47.2328 83.3996 47.4377Z" fill="white"/>
<defs>
<linearGradient id="paint0_linear_3337_882" x1="64.6548" y1="93.0583" x2="132.196" y2="125.071" gradientUnits="userSpaceOnUse">
<stop stop-color="white" stop-opacity="0.92"/>
<stop offset="1" stop-color="#AB06D5" stop-opacity="0.92"/>
</linearGradient>
</defs>
</svg>
