<svg width="314" height="383" viewBox="0 0 314 383" fill="none" xmlns="http://www.w3.org/2000/svg">
<path opacity="0.2" fill-rule="evenodd" clip-rule="evenodd" d="M295.098 8.30303C363.664 25.0302 384.369 101.46 440.313 139.925C488.532 173.079 581.528 164.856 597.925 216.517C615.212 270.985 519.016 308.396 511.605 364.547C503.817 423.563 585.011 481.117 555.917 534.81C528.532 585.348 447.578 598.877 383.617 600.747C325.559 602.444 282.722 553.169 225.491 544.47C156.664 534.008 68.3672 589.677 20.1561 545.502C-27.1325 502.173 21.8559 428.755 35.0926 370.012C44.4448 328.508 79.0842 295.748 85.8713 253.865C96.8046 186.396 39.7982 108.238 86.3701 53.578C130.063 2.29758 224.623 -8.88969 295.098 8.30303Z" fill="#A90029"/>
</svg>
