<svg width="62" height="61" viewBox="0 0 62 61" fill="none" xmlns="http://www.w3.org/2000/svg">
<path d="M60.7931 6.51722H56.3467C56.3445 6.15796 56.2074 5.79871 55.9325 5.52485C55.6672 5.25983 55.3222 5.12511 54.9744 5.1148V0.705856C54.9744 0.420957 54.8026 0.163296 54.5388 0.0543421C54.2779 -0.0546117 53.972 0.00280994 53.7701 0.203785L48.9721 4.94696C48.8372 5.0802 48.7613 5.2613 48.762 5.4505L48.7738 10.6788L46.5834 12.8675C41.6874 8.47323 35.2194 5.79429 28.1344 5.79429C12.8974 5.79429 0.5 18.1767 0.5 33.3971C0.5 48.6175 12.8974 61 28.1344 61C43.3722 61 55.7689 48.6175 55.7689 33.3971C55.7689 26.268 53.0485 19.761 48.5903 14.8581L50.78 12.6709L56.0099 12.6599C56.1956 12.6591 56.374 12.5862 56.5059 12.4559L61.2899 7.72601C61.494 7.5243 61.5559 7.22026 61.4468 6.95524C61.3378 6.69022 61.0791 6.51722 60.7931 6.51722ZM50.8183 33.3971C50.8183 45.8908 40.6431 56.0551 28.1344 56.0551C15.6265 56.0551 5.45054 45.8908 5.45054 33.3971C5.45054 20.9035 15.6265 10.7392 28.1344 10.7392C33.8544 10.7392 39.0821 12.8689 43.0767 16.3709L38.819 20.6245C35.9232 18.204 32.1969 16.7434 28.1344 16.7434C18.9416 16.7434 11.4616 24.2141 11.4616 33.3971C11.4616 42.5794 18.9416 50.0501 28.1344 50.0501C37.328 50.0501 44.8072 42.5794 44.8072 33.3971C44.8072 29.2871 43.3059 25.523 40.8266 22.6151L45.0843 18.3608C48.6478 22.3648 50.8183 27.6314 50.8183 33.3971ZM28.1344 39.8078C31.6736 39.8078 34.5524 36.9323 34.5524 33.3971C34.5524 32.114 34.1699 30.9207 33.5169 29.9173L37.8129 25.6261C39.5302 27.7551 40.5642 30.4569 40.5642 33.3971C40.5642 40.2428 34.9887 45.812 28.1344 45.812C21.2809 45.812 15.7054 40.2428 15.7054 33.3971C15.7054 26.5515 21.2809 20.9823 28.1344 20.9823C31.0265 20.9823 33.6842 21.982 35.7979 23.6428L31.4923 27.9443C30.5143 27.3414 29.3667 26.9865 28.1344 26.9865C24.596 26.9865 21.7165 29.8628 21.7165 33.3971C21.7165 36.9323 24.596 39.8078 28.1344 39.8078Z" fill="white"/>
</svg>
