<svg width="563" height="439" viewBox="0 0 563 439" fill="none" xmlns="http://www.w3.org/2000/svg">
<path opacity="0.2" fill-rule="evenodd" clip-rule="evenodd" d="M258.098 7.51323C326.664 24.2404 347.369 100.67 403.313 139.135C451.532 172.289 544.528 164.066 560.925 215.727C578.212 270.195 482.016 307.606 474.605 363.757C466.817 422.773 548.011 480.327 518.917 534.02C491.532 584.558 410.578 598.087 346.617 599.957C288.559 601.654 245.722 552.379 188.491 543.68C119.664 533.218 31.3672 588.887 -16.8439 544.712C-64.1325 501.383 -15.1441 427.965 -1.90739 369.222C7.44481 327.718 42.0842 294.958 48.8713 253.075C59.8046 185.606 2.79821 107.448 49.3701 52.7882C93.063 1.50778 187.623 -9.67949 258.098 7.51323Z" fill="#A90029"/>
</svg>
