<svg width="66" height="66" viewBox="0 0 66 66" fill="none" xmlns="http://www.w3.org/2000/svg">
<circle cx="32.9951" cy="32.9951" r="31.9951" stroke="#FAFAFA" stroke-width="2"/>
<mask id="mask0_786_2349" style="mask-type:luminance" maskUnits="userSpaceOnUse" x="13" y="13" width="40" height="41">
<path d="M13.1445 13.632H52.3248V53.1387H13.1445V13.632Z" fill="white"/>
</mask>
<g mask="url(#mask0_786_2349)">
<path d="M35.6732 53.0757C35.544 53.1131 35.4114 53.1284 35.277 53.125C34.2907 53.0859 33.5986 51.8445 33.7329 50.3531C33.9115 48.6458 34.1002 46.9334 34.3009 45.2192C34.3723 44.5577 34.5594 43.9319 34.8638 43.3401C35.1665 42.7484 35.5661 42.2297 36.0627 41.7859L36.3773 41.5138C37.236 40.7536 38.0982 39.951 38.9655 39.1024C40.0147 38.0787 41.1388 37.0567 42.3342 36.0364C43.0212 35.4514 44.0586 35.3289 44.6316 35.7575C45.1911 36.1792 45.0449 37.004 44.3851 37.5991C43.1335 38.7079 41.9618 39.82 40.8735 40.9373C41.2527 40.7179 41.6387 40.5019 42.0315 40.2843C44.3 39.0157 46.3662 36.924 47.2505 34.6878L48.0497 32.6404C48.3762 31.7901 49.5547 31.1031 50.6906 31.1048C51.8266 31.1082 52.4337 31.7867 52.0494 32.6353C51.5562 33.7355 51.0631 34.8375 50.5699 35.9394C49.2911 38.7912 46.8474 41.5784 44.2694 43.7619C43.7389 44.2074 43.2253 44.6546 42.7287 45.1036C41.2425 46.4351 40.0793 48.003 39.2393 49.809C38.4706 51.416 37.2683 52.6437 36.1137 52.9583L35.6732 53.0757ZM29.6942 53.0757L29.2554 52.96C28.1042 52.6472 26.9002 51.4177 26.1333 49.8124C25.2915 48.0064 24.1283 46.4368 22.6421 45.1053C22.1489 44.6563 21.6353 44.2091 21.1014 43.7636C18.5234 41.5886 16.078 38.7929 14.7992 35.9479C14.3061 34.8477 13.8146 33.7474 13.3214 32.6455C12.9439 31.7799 13.5459 31.1099 14.6921 31.1082C15.8365 31.1048 17.0048 31.7918 17.333 32.6421L18.1323 34.6912C19.0165 36.9274 21.0895 39.0191 23.3512 40.286C23.7423 40.5054 24.13 40.7213 24.5092 40.939C23.4209 39.8234 22.2492 38.7113 20.9976 37.6008C20.3242 37.0057 20.1797 36.1809 20.7392 35.7592C21.3054 35.3306 22.3479 35.4531 23.0349 36.0398C24.2338 37.0601 25.3561 38.0821 26.4053 39.1041C27.2709 39.9442 28.1297 40.7468 28.985 41.5138L29.2996 41.7944C29.7962 42.2399 30.1958 42.7586 30.4985 43.3503C30.8029 43.9421 30.99 44.5679 31.0614 45.2277C31.2621 46.9419 31.4508 48.6526 31.6294 50.3633C31.7637 51.8547 31.0665 53.0944 30.087 53.1352C29.9527 53.1352 29.8217 53.1148 29.6942 53.0757ZM29.0446 24.1241H36.0559C37.7802 24.1241 39.3073 24.8588 40.0674 25.9335L32.682 29.0829L25.2881 25.9233C25.9479 24.8536 27.3355 24.1241 29.0446 24.1241ZM32.7007 23.2262C32.3844 23.2245 32.0715 23.1939 31.762 23.131C31.4525 23.0681 31.1515 22.9763 30.859 22.8555C30.5665 22.7331 30.2894 22.5851 30.0275 22.41C29.7656 22.2331 29.5224 22.0342 29.2996 21.8114C29.0769 21.5886 28.8779 21.3455 28.7028 21.0836C28.5276 20.82 28.3797 20.5445 28.2606 20.2537C28.1399 19.9612 28.0498 19.6619 27.9885 19.3524C27.9273 19.0446 27.8967 18.7334 27.8984 18.4171C27.8984 18.1025 27.9307 17.7913 27.9919 17.4835C28.0549 17.174 28.1467 16.8748 28.2691 16.584C28.3899 16.2932 28.5395 16.0177 28.7147 15.7575C28.8915 15.4956 29.0922 15.2541 29.3167 15.0314C29.5394 14.8086 29.7843 14.6113 30.0462 14.4362C30.3098 14.2627 30.5886 14.1148 30.8794 13.9957C31.1719 13.875 31.4746 13.7849 31.7841 13.7237C32.0953 13.6624 32.4082 13.6318 32.7245 13.6318C33.0408 13.6335 33.3537 13.6641 33.6632 13.7254C33.9744 13.7883 34.2754 13.8784 34.5662 13.9992C34.8587 14.1199 35.1359 14.2678 35.3995 14.443C35.6613 14.6181 35.9045 14.8171 36.129 15.0399C36.3518 15.2626 36.5524 15.5041 36.7276 15.766C36.9027 16.0279 37.0507 16.3051 37.1714 16.5959C37.2938 16.8867 37.384 17.1859 37.4469 17.4937C37.5081 17.8032 37.5387 18.1144 37.5387 18.429C37.5387 18.7453 37.5064 19.0565 37.4435 19.366C37.3823 19.6755 37.2887 19.9765 37.168 20.2673C37.0456 20.5581 36.8959 20.8353 36.7191 21.0972C36.5422 21.3591 36.3415 21.6022 36.1171 21.825C35.8926 22.0478 35.6494 22.245 35.3859 22.4202C35.1206 22.5953 34.8434 22.7433 34.5492 22.864C34.2567 22.9831 33.954 23.0749 33.6428 23.1344C33.3316 23.1956 33.0187 23.2262 32.7007 23.2262ZM32.682 38.7589L24.4208 34.5433C24.3562 34.5076 24.3171 34.4549 24.3001 34.3834L22.7747 26.3127C22.7645 26.2617 22.7696 26.2107 22.79 26.1614C22.8155 26.0984 22.8614 26.0542 22.9244 26.0287C22.989 26.0032 23.0519 26.0049 23.1148 26.0321L32.682 30.1117L42.2509 26.0321C42.3138 26.0049 42.3767 26.0032 42.4397 26.0287C42.5043 26.0542 42.5485 26.0984 42.5757 26.1614C42.5978 26.2107 42.6029 26.2617 42.591 26.3127L41.0605 34.3834C41.0435 34.4549 41.0027 34.5076 40.9398 34.5433L32.682 38.7589Z" fill="#FAFAFA"/>
</g>
</svg>
