<svg width="66" height="66" viewBox="0 0 66 66" fill="none" xmlns="http://www.w3.org/2000/svg">
<circle cx="32.9951" cy="32.9951" r="31.9951" stroke="url(#paint0_linear_786_2393)" stroke-width="2"/>
<mask id="mask0_786_2393" style="mask-type:luminance" maskUnits="userSpaceOnUse" x="8" y="3" width="55" height="55">
<path d="M8 3H62.6667V57.8359H8V3Z" fill="white"/>
</mask>
<g mask="url(#mask0_786_2393)">
<path d="M32.8617 32.9342C33.2439 33.2522 33.7529 33.1887 34.0081 32.9342L50.1851 16.7572L53.8153 17.9671C54.1333 18.0305 54.4519 17.9671 54.643 17.776L62.4131 9.9424C62.6042 9.75134 62.6677 9.49614 62.6042 9.17814C62.5407 8.92295 62.3497 8.66842 62.0945 8.60495L59.2285 7.64964L59.483 7.39444C59.8017 7.07645 59.8017 6.56672 59.483 6.24806C59.1651 5.93006 58.6553 5.93006 58.3367 6.24806L58.0821 6.50325L57.1268 3.57317C57.0634 3.31864 56.8082 3.12758 56.5536 3.06411C56.2991 2.99998 56.0439 3.06411 55.7894 3.25517L47.9558 11.1522C47.7647 11.3433 47.7012 11.662 47.7647 11.9806L48.9745 15.6743L47.5736 17.0752C43.8158 13.6361 39.0392 11.662 33.944 11.5344V8.60495C33.944 8.1587 33.5619 7.8407 33.1797 7.8407C32.7976 7.8407 32.4155 8.22283 32.4155 8.60495V11.5344C21.2062 11.853 12.2262 20.833 11.8441 32.0423H8.91465C8.46905 32.0423 8.15039 32.4244 8.15039 32.8066C8.15039 33.1887 8.53252 33.5708 8.91465 33.5708H11.8441C12.2262 44.7801 21.2062 53.7601 32.4155 54.1422V57.0717C32.4155 57.5179 32.7976 57.8359 33.1797 57.8359C33.5619 57.8359 33.944 57.4538 33.944 57.0717V54.1422C45.1533 53.7601 54.1333 44.7801 54.5154 33.5708H57.4455C57.8911 33.5708 58.2097 33.1887 58.2097 32.8066C58.2097 32.4244 57.8276 32.0423 57.4455 32.0423H54.5154C54.3885 27.5203 52.7324 23.1258 49.9299 19.6232C49.6753 19.2411 49.1656 19.1769 48.7835 19.4956C48.4014 19.8142 48.3379 20.2598 48.6565 20.642C51.2673 23.89 52.7324 27.9024 52.8599 32.1058H50.4396C49.994 32.1058 49.6753 32.4879 49.6753 32.87C49.6753 33.2522 50.0575 33.6343 50.4396 33.6343H52.8599C52.6048 43.9517 44.3256 52.2316 34.0081 52.6137V50.1934C34.0081 49.7478 33.626 49.4291 33.2439 49.4291C32.8617 49.4291 32.4796 49.8112 32.4796 50.1934V52.6137C22.1615 52.2316 13.8823 43.9517 13.5002 33.6343H15.9205C16.3661 33.6343 16.6848 33.2522 16.6848 32.87C16.6848 32.4879 16.3027 32.1058 15.9205 32.1058H13.5002C13.8823 21.7883 22.1615 13.5091 32.4796 13.127V15.5467C32.4796 15.993 32.8617 16.311 33.2439 16.311C33.626 16.311 34.0081 15.9288 34.0081 15.5467V13.127C38.6571 13.3181 43.0516 15.1011 46.4907 18.2216L42.6694 22.0429C36.6189 16.7572 27.4478 17.4573 22.1615 23.5079C16.8759 29.5585 17.576 38.6661 23.6265 43.9517C29.6771 49.238 38.8482 48.5379 44.1345 42.4874C48.5924 37.3286 48.9111 29.813 44.8353 24.3356L38.275 30.8325C39.4214 33.6343 38.0205 36.7554 35.218 37.9018C32.4155 39.0482 29.295 37.6466 28.1486 34.8448C27.0022 32.0423 28.4031 28.9218 31.2056 27.7748C32.8617 27.0747 34.7724 27.3292 36.3009 28.348L32.8617 31.7878C32.5431 32.1058 32.5431 32.6155 32.8617 32.9342ZM60.3749 9.75134L53.8153 16.311L51.3949 15.4832L57.9545 8.92295L60.3749 9.75134Z" fill="url(#paint1_linear_786_2393)"/>
</g>
<defs>
<linearGradient id="paint0_linear_786_2393" x1="-2.87492e-08" y1="5.4581" x2="69.4314" y2="10.2057" gradientUnits="userSpaceOnUse">
<stop stop-color="#060606" stop-opacity="0.9"/>
<stop offset="1" stop-color="#AB06D5" stop-opacity="0.92"/>
</linearGradient>
<linearGradient id="paint1_linear_786_2393" x1="8.15039" y1="7.57224" x2="65.4719" y2="11.469" gradientUnits="userSpaceOnUse">
<stop stop-color="#060606" stop-opacity="0.9"/>
<stop offset="1" stop-color="#AB06D5" stop-opacity="0.92"/>
</linearGradient>
</defs>
</svg>
