<svg width="66" height="66" viewBox="0 0 66 66" fill="none" xmlns="http://www.w3.org/2000/svg">
<circle cx="32.9951" cy="32.9951" r="31.9951" stroke="url(#paint0_linear_786_2370)" stroke-width="2"/>
<mask id="mask0_786_2370" style="mask-type:luminance" maskUnits="userSpaceOnUse" x="9" y="9" width="49" height="48">
<path d="M9.81641 9H57.1243V56.5279H9.81641V9Z" fill="white"/>
</mask>
<g mask="url(#mask0_786_2370)">
<path d="M54.6362 30.3945C53.0312 28.7907 50.8984 27.9094 48.6287 27.9094C46.3584 27.9094 44.2257 28.7941 42.6212 30.3945C42.3697 30.6461 42.137 30.9074 41.9239 31.1807L25.2928 23.0084C25.2956 22.907 25.2991 22.805 25.2991 22.7001C25.2991 22.1271 25.2355 21.5702 25.1174 21.0327L37.2217 16.3959C37.8263 19.1137 40.2558 21.1501 43.1559 21.1501C46.508 21.1501 49.2332 18.426 49.2332 15.0751C49.2332 11.7241 46.508 9 43.1559 9C39.8037 9 37.0785 11.7241 37.0785 15.0751C37.0785 15.1037 37.0785 15.1289 37.0785 15.1576L24.7645 19.874C23.6339 17.0038 20.8296 14.9639 17.56 14.9639C13.2939 14.9639 9.82031 18.4324 9.82031 22.7001C9.82031 26.9674 13.2905 30.4364 17.56 30.4364C21.288 30.4364 24.4046 27.7885 25.1369 24.2782L41.2454 32.1927C40.52 33.4596 40.1344 34.8979 40.1344 36.3968C40.1344 37.5171 40.351 38.6018 40.7618 39.6074L36.4161 41.5265C35.8654 39.8429 34.92 38.2964 33.6307 37.0077C31.4687 34.8469 28.5973 33.6596 25.5409 33.6596C22.485 33.6596 19.6131 34.8503 17.4517 37.0077C15.2897 39.1685 14.1024 42.0387 14.1024 45.094C14.1024 48.1488 15.2932 51.0195 17.4517 53.1804C19.6131 55.3412 22.485 56.5279 25.5409 56.5279C28.5973 56.5279 31.4687 55.3378 33.6307 53.1804C35.7921 51.0195 36.9799 48.1488 36.9799 45.094C36.9799 44.2826 36.894 43.4839 36.7313 42.7074L41.2964 40.6899C41.6597 41.3036 42.1021 41.88 42.6212 42.3986C44.2257 44.0024 46.3584 44.8837 48.6287 44.8837C50.8984 44.8837 53.0312 43.999 54.6362 42.3986C56.2406 40.7947 57.1225 38.6625 57.1225 36.3934C57.1225 34.1243 56.2372 31.9984 54.6362 30.3945ZM43.1559 10.2096C45.8399 10.2096 48.027 12.3922 48.027 15.0785C48.027 17.7642 45.8427 19.9474 43.1559 19.9474C40.4719 19.9474 38.2853 17.7642 38.2853 15.0785C38.2853 12.3922 40.469 10.2096 43.1559 10.2096ZM17.56 29.2267C13.9592 29.2267 11.0305 26.2992 11.0305 22.7001C11.0305 19.1005 13.9592 16.173 17.56 16.173C21.1602 16.173 24.0895 19.1005 24.0895 22.7001C24.0895 26.2992 21.1602 29.2267 17.56 29.2267ZM25.5443 55.3217C19.903 55.3217 15.3155 50.733 15.3155 45.0969C15.3155 39.4613 19.9059 34.8721 25.5443 34.8721C31.1822 34.8721 35.7732 39.4613 35.7732 45.0969C35.7732 50.733 31.1856 55.3217 25.5443 55.3217ZM48.6287 43.681C44.6107 43.681 41.3411 40.4125 41.3411 36.3968C41.3411 32.3806 44.6107 29.1121 48.6287 29.1121C52.6461 29.1121 55.9157 32.3806 55.9157 36.3968C55.9157 40.4125 52.6461 43.681 48.6287 43.681Z" fill="url(#paint1_linear_786_2370)"/>
</g>
<path d="M29.8274 40.6613C29.8274 40.7908 29.8211 40.9203 29.8085 41.0492C29.7959 41.1787 29.7764 41.3065 29.7512 41.4337C29.726 41.5615 29.6945 41.687 29.6567 41.8113C29.6189 41.9351 29.5753 42.0571 29.526 42.1775C29.4762 42.2972 29.4206 42.4141 29.3593 42.5287C29.2985 42.6433 29.2315 42.7545 29.1593 42.8622C29.0871 42.97 29.0103 43.0742 28.9278 43.1745C28.8453 43.2748 28.7582 43.3711 28.6665 43.4627C28.5748 43.5544 28.4786 43.6415 28.3783 43.7235C28.278 43.806 28.1737 43.8833 28.066 43.9555C27.9583 44.0272 27.8465 44.0942 27.7325 44.1549C27.6179 44.2163 27.5004 44.2718 27.3807 44.3217C27.2609 44.371 27.1389 44.4145 27.0145 44.4523C26.8902 44.4902 26.7647 44.5217 26.6369 44.5469C26.5097 44.5721 26.3813 44.591 26.2524 44.6042C26.1235 44.6168 25.994 44.6231 25.8639 44.6231C25.7338 44.6231 25.6043 44.6168 25.4754 44.6042C25.3465 44.591 25.2181 44.5721 25.0909 44.5469C24.9631 44.5217 24.8377 44.4902 24.7133 44.4523C24.589 44.4145 24.4669 44.371 24.3472 44.3217C24.2274 44.2718 24.1099 44.2163 23.9953 44.1549C23.8813 44.0942 23.7696 44.0272 23.6618 43.9555C23.5541 43.8833 23.4498 43.806 23.3495 43.7235C23.2493 43.6415 23.153 43.5544 23.0613 43.4627C22.9696 43.3711 22.8825 43.2748 22.8 43.1745C22.7175 43.0742 22.6407 42.97 22.5685 42.8622C22.4963 42.7545 22.4293 42.6433 22.3685 42.5287C22.3072 42.4141 22.2516 42.2972 22.2018 42.1775C22.1525 42.0571 22.109 41.9351 22.0711 41.8113C22.0333 41.687 22.0018 41.5615 21.9766 41.4337C21.9514 41.3065 21.9319 41.1787 21.9193 41.0492C21.9067 40.9203 21.9004 40.7908 21.9004 40.6613C21.9004 40.5312 21.9067 40.4017 21.9193 40.2728C21.9319 40.1433 21.9514 40.0155 21.9766 39.8883C22.0018 39.7611 22.0333 39.635 22.0711 39.5107C22.109 39.3869 22.1525 39.2649 22.2018 39.1451C22.2516 39.0248 22.3072 38.9079 22.3685 38.7933C22.4293 38.6787 22.4963 38.5675 22.5685 38.4598C22.6407 38.3521 22.7175 38.2478 22.8 38.1475C22.8825 38.0472 22.9696 37.9515 23.0613 37.8593C23.153 37.7676 23.2493 37.6805 23.3495 37.5985C23.4498 37.516 23.5541 37.4387 23.6618 37.3665C23.7696 37.2948 23.8813 37.2278 23.9953 37.1671C24.1099 37.1058 24.2274 37.0502 24.3472 37.0009C24.4669 36.951 24.589 36.9075 24.7133 36.8697C24.8377 36.8319 24.9631 36.8003 25.0909 36.7751C25.2181 36.7499 25.3465 36.731 25.4754 36.7184C25.6043 36.7052 25.7338 36.6989 25.8639 36.6989C25.994 36.6989 26.1235 36.7052 26.2524 36.7184C26.3813 36.731 26.5097 36.7499 26.6369 36.7751C26.7647 36.8003 26.8902 36.8319 27.0145 36.8697C27.1389 36.9075 27.2609 36.951 27.3807 37.0009C27.5004 37.0502 27.6179 37.1058 27.7325 37.1671C27.8465 37.2278 27.9583 37.2948 28.066 37.3665C28.1737 37.4387 28.278 37.516 28.3783 37.5985C28.4786 37.6805 28.5748 37.7676 28.6665 37.8593C28.7582 37.9515 28.8453 38.0472 28.9278 38.1475C29.0103 38.2478 29.0871 38.3521 29.1593 38.4598C29.2315 38.5675 29.2985 38.6787 29.3593 38.7933C29.4206 38.9079 29.4762 39.0248 29.526 39.1451C29.5753 39.2649 29.6189 39.3869 29.6567 39.5107C29.6945 39.635 29.726 39.7611 29.7512 39.8883C29.7764 40.0155 29.7959 40.1433 29.8085 40.2728C29.8211 40.4017 29.8274 40.5312 29.8274 40.6613Z" fill="url(#paint2_linear_786_2370)"/>
<path d="M51.3832 33.1157C51.3832 33.2056 51.3787 33.2956 51.3701 33.3856C51.3609 33.4755 51.3477 33.5649 51.3305 33.6532C51.3128 33.742 51.291 33.8291 51.2646 33.9156C51.2383 34.0021 51.2079 34.0869 51.1735 34.17C51.1386 34.2537 51.1002 34.3351 51.0578 34.4147C51.0154 34.4944 50.9689 34.5717 50.9185 34.6468C50.8687 34.7218 50.8148 34.794 50.7575 34.8639C50.7002 34.9339 50.6395 35.0003 50.5759 35.0645C50.5117 35.1281 50.4452 35.1888 50.3753 35.2461C50.3054 35.3029 50.2332 35.3567 50.1581 35.4072C50.0831 35.457 50.0057 35.5034 49.9261 35.5458C49.8464 35.5888 49.7645 35.6272 49.6814 35.6616C49.5977 35.696 49.5129 35.7263 49.4264 35.7527C49.3399 35.779 49.2528 35.8008 49.164 35.8186C49.0757 35.8363 48.9863 35.8495 48.8964 35.8581C48.8064 35.8673 48.7164 35.8713 48.6265 35.8713C48.5359 35.8713 48.446 35.8673 48.356 35.8581C48.2661 35.8495 48.1767 35.8363 48.0884 35.8186C47.9996 35.8008 47.9125 35.779 47.826 35.7527C47.7395 35.7263 47.6546 35.696 47.571 35.6616C47.4879 35.6272 47.406 35.5888 47.3269 35.5458C47.2472 35.5034 47.1699 35.457 47.0948 35.4072C47.0192 35.3567 46.947 35.3029 46.8771 35.2461C46.8072 35.1888 46.7407 35.1281 46.6765 35.0645C46.6129 35.0003 46.5522 34.9339 46.4949 34.8639C46.4376 34.794 46.3843 34.7218 46.3339 34.6468C46.284 34.5717 46.2376 34.4944 46.1946 34.4147C46.1522 34.3351 46.1138 34.2537 46.0789 34.17C46.0445 34.0869 46.0141 34.0021 45.9878 33.9156C45.962 33.8291 45.9396 33.742 45.9224 33.6532C45.9047 33.5649 45.8915 33.4755 45.8823 33.3856C45.8737 33.2956 45.8691 33.2056 45.8691 33.1157C45.8691 33.0251 45.8737 32.9352 45.8823 32.8452C45.8915 32.7558 45.9047 32.6664 45.9224 32.5782C45.9396 32.4894 45.962 32.4017 45.9878 32.3158C46.0141 32.2292 46.0445 32.1444 46.0789 32.0608C46.1138 31.9777 46.1522 31.8963 46.1946 31.8167C46.2376 31.737 46.284 31.6597 46.3339 31.5846C46.3843 31.5095 46.4376 31.4368 46.4949 31.3674C46.5522 31.2975 46.6129 31.2305 46.6765 31.1669C46.7407 31.1033 46.8072 31.0425 46.8771 30.9852C46.947 30.9279 47.0192 30.8741 47.0948 30.8242C47.1699 30.7738 47.2472 30.7274 47.3269 30.685C47.406 30.6426 47.4879 30.6042 47.571 30.5692C47.6546 30.5348 47.7395 30.5045 47.826 30.4781C47.9125 30.4523 47.9996 30.43 48.0884 30.4128C48.1767 30.395 48.2661 30.3818 48.356 30.3727C48.446 30.3641 48.5359 30.3595 48.6265 30.3595C48.7164 30.3595 48.8064 30.3641 48.8964 30.3727C48.9863 30.3818 49.0757 30.395 49.164 30.4128C49.2528 30.43 49.3399 30.4523 49.4264 30.4781C49.5129 30.5045 49.5977 30.5348 49.6814 30.5692C49.7645 30.6042 49.8464 30.6426 49.9261 30.685C50.0057 30.7274 50.0831 30.7738 50.1581 30.8242C50.2332 30.8741 50.3054 30.9279 50.3753 30.9852C50.4452 31.0425 50.5117 31.1033 50.5759 31.1669C50.6395 31.2305 50.7002 31.2975 50.7575 31.3674C50.8148 31.4368 50.8687 31.5095 50.9185 31.5846C50.9689 31.6597 51.0154 31.737 51.0578 31.8167C51.1002 31.8963 51.1386 31.9777 51.1735 32.0608C51.2079 32.1444 51.2383 32.2292 51.2646 32.3158C51.291 32.4017 51.3128 32.4894 51.3305 32.5782C51.3477 32.6664 51.3609 32.7558 51.3701 32.8452C51.3787 32.9352 51.3832 33.0251 51.3832 33.1157Z" fill="url(#paint3_linear_786_2370)"/>
<path d="M20.3149 19.9441C20.3149 20.0346 20.3103 20.1246 20.3017 20.2146C20.2925 20.3039 20.2793 20.3933 20.2622 20.4816C20.2444 20.5704 20.2226 20.6581 20.1963 20.744C20.1699 20.8305 20.1395 20.9153 20.1052 20.999C20.0708 21.0821 20.0318 21.1635 19.9894 21.2431C19.947 21.3228 19.9006 21.4001 19.8502 21.4752C19.8003 21.5502 19.7464 21.623 19.6891 21.6924C19.6318 21.7623 19.5711 21.8293 19.5075 21.8929C19.4433 21.9565 19.3769 22.0172 19.3069 22.0746C19.237 22.1319 19.1648 22.1857 19.0898 22.2356C19.0147 22.286 18.9374 22.3324 18.8577 22.3748C18.7781 22.4172 18.6967 22.4556 18.613 22.4906C18.5294 22.5249 18.4446 22.5553 18.358 22.5817C18.2721 22.6075 18.1844 22.6298 18.0956 22.647C18.0074 22.6648 17.918 22.6779 17.828 22.6865C17.738 22.6957 17.6481 22.7003 17.5581 22.7003C17.4676 22.7003 17.3776 22.6957 17.2877 22.6865C17.1977 22.6779 17.1089 22.6648 17.0201 22.647C16.9312 22.6298 16.8441 22.6075 16.7576 22.5817C16.6711 22.5553 16.5863 22.5249 16.5026 22.4906C16.4195 22.4556 16.3382 22.4172 16.2585 22.3748C16.1789 22.3324 16.1015 22.286 16.0265 22.2356C15.9514 22.1857 15.8786 22.1319 15.8087 22.0746C15.7394 22.0172 15.6723 21.9565 15.6087 21.8929C15.5446 21.8293 15.4838 21.7623 15.4265 21.6924C15.3692 21.623 15.3159 21.5502 15.2655 21.4752C15.2156 21.4001 15.1692 21.3228 15.1263 21.2431C15.0838 21.1635 15.0455 21.0821 15.0111 20.999C14.9761 20.9153 14.9458 20.8305 14.9194 20.744C14.8936 20.6581 14.8713 20.5704 14.8541 20.4816C14.8363 20.3933 14.8231 20.3039 14.814 20.2146C14.8054 20.1246 14.8008 20.0346 14.8008 19.9441C14.8008 19.8541 14.8054 19.7642 14.814 19.6742C14.8231 19.5842 14.8363 19.4949 14.8541 19.4066C14.8713 19.3178 14.8936 19.2307 14.9194 19.1442C14.9458 19.0576 14.9761 18.9728 15.0111 18.8897C15.0455 18.8061 15.0838 18.7247 15.1263 18.6451C15.1692 18.5654 15.2156 18.4881 15.2655 18.413C15.3159 18.3379 15.3692 18.2657 15.4265 18.1958C15.4838 18.1259 15.5446 18.0595 15.6087 17.9953C15.6723 17.9317 15.7394 17.8709 15.8087 17.8136C15.8786 17.7563 15.9514 17.703 16.0265 17.6526C16.1015 17.6028 16.1789 17.5564 16.2585 17.5139C16.3382 17.471 16.4195 17.4326 16.5026 17.3982C16.5863 17.3638 16.6711 17.3334 16.7576 17.3071C16.8441 17.2807 16.9312 17.259 17.0201 17.2412C17.1089 17.2234 17.1977 17.2103 17.2877 17.2017C17.3776 17.1925 17.4676 17.1885 17.5581 17.1885C17.6481 17.1885 17.738 17.1925 17.828 17.2017C17.918 17.2103 18.0074 17.2234 18.0956 17.2412C18.1844 17.259 18.2721 17.2807 18.358 17.3071C18.4446 17.3334 18.5294 17.3638 18.613 17.3982C18.6967 17.4326 18.7781 17.471 18.8577 17.5139C18.9374 17.5564 19.0147 17.6028 19.0898 17.6526C19.1648 17.703 19.237 17.7563 19.3069 17.8136C19.3769 17.8709 19.4433 17.9317 19.5075 17.9953C19.5711 18.0595 19.6318 18.1259 19.6891 18.1958C19.7464 18.2657 19.8003 18.3379 19.8502 18.413C19.9006 18.4881 19.947 18.5654 19.9894 18.6451C20.0318 18.7247 20.0708 18.8061 20.1052 18.8897C20.1395 18.9728 20.1699 19.0576 20.1963 19.1442C20.2226 19.2307 20.2444 19.3178 20.2622 19.4066C20.2793 19.4949 20.2925 19.5842 20.3017 19.6742C20.3103 19.7642 20.3149 19.8541 20.3149 19.9441Z" fill="url(#paint4_linear_786_2370)"/>
<path d="M44.8901 13.8312C44.8901 13.9446 44.8792 14.0575 44.8568 14.1693C44.8345 14.281 44.8018 14.3893 44.7577 14.4947C44.7142 14.5996 44.6609 14.6999 44.5978 14.7944C44.5342 14.889 44.4626 14.9766 44.3818 15.0574C44.3016 15.1377 44.2139 15.2099 44.1188 15.2729C44.0243 15.3365 43.924 15.3898 43.8191 15.4333C43.7137 15.4769 43.6054 15.5095 43.4937 15.5319C43.3819 15.5542 43.269 15.5651 43.155 15.5651C43.041 15.5651 42.9281 15.5542 42.8164 15.5319C42.7046 15.5095 42.5963 15.4769 42.4909 15.4333C42.386 15.3898 42.2857 15.3365 42.1912 15.2729C42.0961 15.2099 42.009 15.1377 41.9282 15.0574C41.8474 14.9766 41.7758 14.889 41.7122 14.7944C41.6491 14.6999 41.5958 14.5996 41.5523 14.4947C41.5082 14.3893 41.4755 14.281 41.4532 14.1693C41.4308 14.0575 41.4199 13.9446 41.4199 13.8312C41.4199 13.7172 41.4308 13.6043 41.4532 13.4925C41.4755 13.3808 41.5082 13.2725 41.5523 13.1671C41.5958 13.0622 41.6491 12.9619 41.7122 12.8674C41.7758 12.7728 41.8474 12.6852 41.9282 12.6044C42.009 12.5241 42.0961 12.4519 42.1912 12.3889C42.2857 12.3259 42.386 12.272 42.4909 12.2285C42.5963 12.1849 42.7046 12.1523 42.8164 12.1299C42.9281 12.1076 43.041 12.0967 43.155 12.0967C43.269 12.0967 43.3819 12.1076 43.4937 12.1299C43.6054 12.1523 43.7137 12.1849 43.8191 12.2285C43.924 12.272 44.0243 12.3259 44.1188 12.3889C44.2139 12.4519 44.3016 12.5241 44.3818 12.6044C44.4626 12.6852 44.5342 12.7728 44.5978 12.8674C44.6609 12.9619 44.7142 13.0622 44.7577 13.1671C44.8018 13.2725 44.8345 13.3808 44.8568 13.4925C44.8792 13.6043 44.8901 13.7172 44.8901 13.8312Z" fill="url(#paint5_linear_786_2370)"/>
<path d="M28.7919 45.2375C27.9455 45.7813 26.9393 46.0964 25.8598 46.0964C24.7424 46.0964 23.7047 45.7595 22.8417 45.1802C20.6391 46.0586 18.9292 47.9008 18.2324 50.1889C19.8432 52.493 22.5174 54.0046 25.5383 54.0046C28.738 54.0046 31.5492 52.3084 33.1187 49.7723C32.3703 47.7226 30.7946 46.0775 28.7919 45.2375Z" fill="url(#paint6_linear_786_2370)"/>
<path d="M51.1894 36.4731C50.4766 37.0174 49.5879 37.3418 48.6235 37.3418C47.6683 37.3418 46.7835 37.0237 46.0736 36.4857C44.8032 37.1573 43.8256 38.3061 43.3867 39.6968C44.4846 41.4314 46.4202 42.5865 48.6235 42.5865C50.8422 42.5865 52.791 41.4119 53.886 39.6556C53.4402 38.2741 52.4598 37.1349 51.1894 36.4731Z" fill="url(#paint7_linear_786_2370)"/>
<path d="M19.3066 23.0306C18.7909 23.3234 18.1921 23.4925 17.5555 23.4925C16.9251 23.4925 16.3332 23.3269 15.8204 23.0369C14.4675 23.5492 13.4011 24.6379 12.9141 26.0029C13.9483 27.4509 15.6422 28.3963 17.5555 28.3963C19.4814 28.3963 21.1912 27.4354 22.2226 25.9679C21.7293 24.6122 20.6595 23.5337 19.3066 23.0306Z" fill="url(#paint8_linear_786_2370)"/>
<path d="M43.1545 19.3429C44.5137 19.3429 45.7302 18.7028 46.5101 17.7069C46.1537 16.8285 45.4403 16.1346 44.5487 15.8005C44.1545 16.0807 43.6737 16.2463 43.1511 16.2463C42.6996 16.2463 42.279 16.122 41.9163 15.9059C41.0373 16.3197 40.3628 17.0961 40.0918 18.0444C40.8688 18.8432 41.9541 19.3429 43.1545 19.3429Z" fill="url(#paint9_linear_786_2370)"/>
<defs>
<linearGradient id="paint0_linear_786_2370" x1="-2.87492e-08" y1="5.4581" x2="69.4314" y2="10.2057" gradientUnits="userSpaceOnUse">
<stop stop-color="#060606" stop-opacity="0.9"/>
<stop offset="1" stop-color="#AB06D5" stop-opacity="0.92"/>
</linearGradient>
<linearGradient id="paint1_linear_786_2370" x1="9.82031" y1="12.9311" x2="59.5913" y2="16.3181" gradientUnits="userSpaceOnUse">
<stop stop-color="#060606" stop-opacity="0.9"/>
<stop offset="1" stop-color="#AB06D5" stop-opacity="0.92"/>
</linearGradient>
<linearGradient id="paint2_linear_786_2370" x1="21.9004" y1="37.3543" x2="30.2408" y2="37.9248" gradientUnits="userSpaceOnUse">
<stop stop-color="#060606" stop-opacity="0.9"/>
<stop offset="1" stop-color="#AB06D5" stop-opacity="0.92"/>
</linearGradient>
<linearGradient id="paint3_linear_786_2370" x1="45.8691" y1="30.8154" x2="51.6708" y2="31.2122" gradientUnits="userSpaceOnUse">
<stop stop-color="#060606" stop-opacity="0.9"/>
<stop offset="1" stop-color="#AB06D5" stop-opacity="0.92"/>
</linearGradient>
<linearGradient id="paint4_linear_786_2370" x1="14.8008" y1="17.6444" x2="20.6024" y2="18.0412" gradientUnits="userSpaceOnUse">
<stop stop-color="#060606" stop-opacity="0.9"/>
<stop offset="1" stop-color="#AB06D5" stop-opacity="0.92"/>
</linearGradient>
<linearGradient id="paint5_linear_786_2370" x1="41.4199" y1="12.3836" x2="45.071" y2="12.6333" gradientUnits="userSpaceOnUse">
<stop stop-color="#060606" stop-opacity="0.9"/>
<stop offset="1" stop-color="#AB06D5" stop-opacity="0.92"/>
</linearGradient>
<linearGradient id="paint6_linear_786_2370" x1="18.2324" y1="45.91" x2="33.7616" y2="47.7013" gradientUnits="userSpaceOnUse">
<stop stop-color="#060606" stop-opacity="0.9"/>
<stop offset="1" stop-color="#AB06D5" stop-opacity="0.92"/>
</linearGradient>
<linearGradient id="paint7_linear_786_2370" x1="43.3867" y1="36.9787" x2="54.3342" y2="38.2643" gradientUnits="userSpaceOnUse">
<stop stop-color="#060606" stop-opacity="0.9"/>
<stop offset="1" stop-color="#AB06D5" stop-opacity="0.92"/>
</linearGradient>
<linearGradient id="paint8_linear_786_2370" x1="12.9141" y1="23.4744" x2="22.6173" y2="24.6255" gradientUnits="userSpaceOnUse">
<stop stop-color="#060606" stop-opacity="0.9"/>
<stop offset="1" stop-color="#AB06D5" stop-opacity="0.92"/>
</linearGradient>
<linearGradient id="paint9_linear_786_2370" x1="40.0918" y1="16.0935" x2="46.7738" y2="16.9213" gradientUnits="userSpaceOnUse">
<stop stop-color="#060606" stop-opacity="0.9"/>
<stop offset="1" stop-color="#AB06D5" stop-opacity="0.92"/>
</linearGradient>
</defs>
</svg>
