<svg width="66" height="66" viewBox="0 0 66 66" fill="none" xmlns="http://www.w3.org/2000/svg">
<circle cx="32.9951" cy="32.9951" r="31.9951" stroke="#FAFAFA" stroke-width="2"/>
<path d="M35.0429 34.0524C33.2907 37.0891 30.4726 39.1282 27.3341 39.9689C24.1956 40.8106 20.7366 40.4545 17.701 38.7012C14.6653 36.9479 12.6273 34.1287 11.7861 30.9891C10.9455 27.8496 11.3017 24.3884 13.0544 21.3522C14.8066 18.315 17.6241 16.2764 20.7632 15.4352C23.9011 14.594 27.3606 14.9502 30.3957 16.7035C33.4314 18.4568 35.4694 21.2759 36.3106 24.415C36.4329 24.8718 36.5298 25.3352 36.6007 25.8029C35.2258 26.4654 33.9722 27.3451 32.8852 28.4076C32.9653 27.3938 32.8695 26.3783 32.6097 25.4072C32.0224 23.2165 30.5998 21.2483 28.4795 20.0239C26.3603 18.7994 23.9444 18.5504 21.7548 19.1378C19.5642 19.7245 17.5976 21.1482 16.3732 23.269C15.1498 25.3899 14.9008 27.8057 15.4876 29.9969C15.8351 31.2934 16.4749 32.5118 17.3789 33.5441C18.4355 32.1243 19.935 31.0541 21.672 30.5366C20.872 29.8611 20.3637 28.8504 20.3637 27.7207C20.3637 25.6865 22.0125 24.0371 24.0462 24.0371C26.0799 24.0371 27.7282 25.6865 27.7282 27.7207C27.7282 28.8504 27.2199 29.8611 26.4198 30.5366C28.1585 31.0541 29.6579 32.1254 30.7151 33.5463C31.0897 33.1181 31.4286 32.6466 31.7236 32.1351C33.4763 29.0984 36.2938 27.0593 39.4323 26.2181C42.5708 25.3769 46.0298 25.733 49.0654 27.4863C52.1011 29.2396 54.1391 32.0588 54.9803 35.1984C55.821 38.3379 55.4648 41.7985 53.712 44.8353C51.9598 47.872 49.1423 49.9111 46.0038 50.7523C42.8653 51.5935 39.4058 51.2373 36.3707 49.484C33.335 47.7307 31.297 44.9116 30.4558 41.772C30.3335 41.3157 30.2366 40.8518 30.1657 40.3841C31.5406 39.7221 32.7943 38.8419 33.8812 37.7799C33.8011 38.7937 33.8969 39.8092 34.1567 40.7803C34.5037 42.0735 35.1408 43.2893 36.0421 44.3205C37.0993 42.8947 38.6014 41.8202 40.3439 41.3011C39.5438 40.6255 39.0356 39.6143 39.0356 38.4852C39.0356 36.4509 40.6844 34.8016 42.7181 34.8016C44.7518 34.801 46.4 36.4509 46.4 38.4852C46.4 39.6143 45.8918 40.6255 45.0917 41.3011C46.8336 41.8202 48.3363 42.8947 49.3935 44.3194C49.7643 43.8934 50.1004 43.4257 50.3933 42.9185C51.6172 40.7976 51.8662 38.3812 51.2788 36.19C50.6921 33.9994 49.269 32.0312 47.1492 30.8073C45.0294 29.5828 42.6141 29.3338 40.424 29.9206C38.2339 30.5079 36.2668 31.9316 35.0429 34.0524ZM24.0462 43.8198C26.0799 43.8198 27.7287 45.4691 27.7287 47.5034C27.7287 49.5381 26.0799 51.1875 24.0462 51.1875C22.0125 51.1875 20.3637 49.5381 20.3637 47.5034C20.3637 45.4691 22.0125 43.8198 24.0462 43.8198ZM42.7181 15C44.7518 15 46.4 16.6494 46.4 18.6836C46.4 20.7184 44.7518 22.3672 42.7181 22.3672C40.6844 22.3672 39.0361 20.7184 39.0361 18.6836C39.0361 16.6494 40.6844 15 42.7181 15Z" fill="#FAFAFA"/>
</svg>
