<svg width="106" height="106" viewBox="0 0 106 106" fill="none" xmlns="http://www.w3.org/2000/svg">
<path d="M88.6434 32.9772C90.2424 34.8323 94.5624 38.7035 94.316 43.202C94.2373 44.6282 93.3437 45.8566 92.3597 46.8938C88.7768 50.6684 84.4639 53.7494 79.7313 55.9153C81.2449 54.0811 85.3738 47.9008 85.36 45.2227C85.3534 43.8977 84.8417 42.218 83.7058 40.7662C82.8853 39.7177 73.4733 33.5579 71.7384 32.7584C71.5656 32.6777 69.713 32.1849 68.3952 32.0581C67.0774 31.9313 65.7529 32.2447 64.5868 32.8688C62.2272 34.1366 58.769 40.7156 57.8795 42.9209C57.5227 37.7267 58.1699 32.4681 59.776 27.5157C60.2162 26.1564 60.8705 24.7854 62.0846 24.034C65.9185 21.6697 71.4434 23.3889 73.7755 24.1377C75.5196 24.6975 87.3209 31.4447 88.6434 32.9772Z" fill="white"/>
<path d="M13.271 59.4598C35.6938 60.5793 54.4278 53.6732 72.4411 40.2729C73.9501 39.0128 75.6968 36.2866 75.6968 36.2866L79.7311 39.3768C79.7311 39.3768 76.5168 41.8494 75.6968 42.9234C60.9393 62.5131 39.5394 77.584 13.271 80.6118C12.3309 78.7382 10.9001 75.2657 10.7708 70.6983C10.6236 65.4029 12.3054 61.3885 13.271 59.4598Z" fill="white"/>
<path d="M94.5211 6.70015C95.3988 19.2871 90.473 32.0812 81.4203 40.87C80.5723 41.6925 80.1531 42.0774 80.1531 42.0774L79.418 41.3403C76.9342 39.2685 74.3123 37.1302 71.1465 36.4687C71.9853 29.7997 74.5428 23.3567 78.5056 17.9294C82.4683 12.5026 87.6824 7.80891 94.2905 5.11035C94.2905 5.1124 94.4541 5.74371 94.5211 6.70015Z" fill="white"/>
<path d="M94.5209 6.70006C94.4539 5.74618 94.2903 5.1123 94.2903 5.1123C90.6798 6.58708 87.4864 8.66097 84.6846 11.1223C84.7955 11.3621 84.9223 11.6039 85.0675 11.8298C86.8346 14.5836 90.2514 16.2082 93.4678 15.6136C93.7418 15.563 93.9887 15.4915 94.2167 15.4087C94.6129 12.5281 94.7233 9.60821 94.5209 6.70006Z" fill="white"/>
<path d="M82.9876 19.4757C81.4735 20.0498 80.4 21.6421 80.469 23.2595C80.5359 24.8774 81.7638 26.3844 83.3398 26.7509C89.1505 28.0943 89.2312 17.1068 82.9876 19.4757Z" fill="white"/>
<path d="M28.6238 99.167C24.8957 100.284 20.9903 100.805 17.1011 100.7C15.7577 100.665 14.2487 100.466 13.4354 99.3975C12.7877 98.5469 12.7811 97.3881 12.7995 96.3187C12.8501 93.4637 12.9007 90.6107 12.9518 87.7557C12.9518 87.7557 12.7928 86.9649 13.5877 86.8244C16.728 86.2692 19.8682 85.7069 23.0084 85.1471C23.7941 85.0066 24.6447 84.8752 25.3543 85.2392C26.3889 85.7647 26.6834 87.0759 26.8679 88.2209C27.3632 91.3387 27.8611 94.4589 28.3565 97.5792L28.6238 99.167Z" fill="white"/>
<path d="M60.2528 98.5514L49.0986 97.8812C47.3984 97.7795 46.0642 96.3901 46.0274 94.6893L45.5898 73.4403C47.7649 72.8391 51.0596 71.991 52.7506 72.0693C54.7647 72.1613 56.838 72.9843 58.1676 74.7908C59.4579 76.5396 59.8862 78.9478 60.1602 81.2568C60.764 86.3176 60.7021 93.2192 60.2528 98.5514Z" fill="white"/>
<path d="M91.5146 92.6477L91.5468 94.9634C88.2057 95.2583 84.8697 95.5512 81.5311 95.8462C80.5471 95.9316 79.5037 96.0077 78.6209 95.565C76.9667 94.7354 76.6303 92.5623 76.5015 90.7164C75.7133 79.4687 74.9255 68.2211 74.1373 56.9754L74.1143 56.7863L75.0477 56.6968C78.4527 56.4295 81.8582 56.1621 85.2638 55.8948C87.2774 55.7358 89.6738 55.745 90.8465 57.388C91.5534 58.3812 91.577 59.6899 91.5744 60.907C91.556 71.4886 91.535 82.0681 91.5146 92.6477Z" fill="white"/>
<mask id="mask0_3266_242" style="mask-type:luminance" maskUnits="userSpaceOnUse" x="70" y="4" width="25" height="38">
<path d="M70.5361 4.71826H94.4843V41.8765H70.5361V4.71826Z" fill="white"/>
</mask>
<g mask="url(#mask0_3266_242)">
<path d="M93.664 4.82922C88.9637 7.01608 84.6896 10.1246 81.1532 13.9176C77.4921 17.8446 74.6535 22.4923 72.7989 27.5275C71.7341 30.4147 71.0179 33.4154 70.6304 36.4687C70.6028 36.6808 70.8103 36.9247 71.0107 36.9686C74.1326 37.6368 76.6604 39.7132 79.0517 41.7063C79.2659 41.8863 79.5747 41.9164 79.7848 41.7063C79.9688 41.5223 80.001 41.1532 79.7848 40.9738C77.2569 38.8677 74.5819 36.6737 71.2847 35.9688C71.4115 36.1344 71.5383 36.3026 71.6651 36.4687C72.3332 31.1963 74.1029 26.0665 76.7918 21.4853C79.3768 17.0839 82.833 13.1917 86.9015 10.1083C89.1666 8.39373 91.6091 6.92151 94.1849 5.72533C94.4385 5.60776 94.5029 5.24174 94.3715 5.0158C94.2192 4.75509 93.9176 4.71164 93.664 4.82922Z" fill="black"/>
</g>
<path d="M94.003 6.7001C94.3992 11.5625 93.9084 16.471 92.6064 21.1698C91.3024 25.8681 89.1988 30.3364 86.397 34.3298C84.8302 36.5632 83.0354 38.6299 81.0541 40.5034C80.5679 40.962 81.303 41.695 81.7866 41.2365C85.4043 37.8187 88.3901 33.7379 90.5995 29.2808C92.816 24.813 94.2652 19.9895 94.8689 15.0396C95.2053 12.2746 95.2656 9.47687 95.0397 6.69806C95.0167 6.41895 94.8183 6.1792 94.5213 6.1792C94.2586 6.18176 93.98 6.41895 94.003 6.7001Z" fill="black"/>
<path d="M84.6189 12.0901C86.4413 15.123 90.1372 16.7542 93.6046 16.1137C93.8811 16.0631 94.0355 15.7287 93.9665 15.4752C93.8857 15.1848 93.6046 15.0627 93.328 15.1138C90.3238 15.6689 87.0818 14.1778 85.513 11.5672C85.1695 10.9956 84.2733 11.5165 84.6189 12.0901Z" fill="black"/>
<path d="M82.8492 18.9758C81.5728 19.4783 80.5939 20.5058 80.1583 21.8103C79.734 23.0776 79.9784 24.4997 80.7641 25.5732C81.9301 27.1681 84.1788 27.9052 85.99 26.979C88.3696 25.7623 88.8813 22.0107 87.34 19.9644C86.8881 19.3628 86.266 18.9134 85.5289 18.7294C84.6394 18.5055 83.6993 18.6599 82.8492 18.9758C82.5865 19.075 82.4091 19.326 82.4878 19.6143C82.5568 19.8653 82.861 20.0749 83.1258 19.9757C83.4851 19.8423 83.8583 19.7319 84.2412 19.6787C84.1466 19.6925 84.3654 19.6695 84.393 19.6669C84.4712 19.6623 84.5474 19.6577 84.6256 19.6577C84.6992 19.6577 84.7754 19.6603 84.849 19.6649C84.8792 19.6669 84.9068 19.6695 84.9369 19.6715C84.9645 19.6741 84.9942 19.6761 85.0218 19.6807C84.962 19.6715 84.9507 19.6715 84.9896 19.6761C85.1256 19.6991 85.2595 19.7273 85.3883 19.7661C85.4461 19.7845 85.5013 19.8029 85.5565 19.8239C85.5795 19.8331 85.6996 19.8883 85.5774 19.8305C85.6117 19.8469 85.6465 19.8632 85.6812 19.8816C85.7937 19.9389 85.9 20.0084 86.0084 20.0749C86.13 20.1536 85.9736 20.036 86.082 20.1301C86.1372 20.1812 86.195 20.2292 86.2476 20.2798C86.3376 20.3678 86.4204 20.4623 86.4991 20.559C86.4183 20.4577 86.5288 20.605 86.5518 20.6372C86.5886 20.6903 86.6208 20.7435 86.6555 20.7987C86.7225 20.9091 86.7798 21.0246 86.8355 21.1397C86.8973 21.2664 86.8263 21.1029 86.8743 21.2317C86.9019 21.3058 86.9295 21.3794 86.9551 21.4556C86.9965 21.5818 87.0313 21.7112 87.0609 21.8426C87.0747 21.9095 87.0885 21.9739 87.1028 22.0409C87.1074 22.0685 87.112 22.0935 87.1166 22.1211C87.1442 22.2709 87.1166 22.0961 87.1258 22.1861C87.158 22.4601 87.1693 22.7366 87.158 23.0132C87.1534 23.1512 87.1396 23.2897 87.1233 23.4277C87.1074 23.5683 87.1417 23.3148 87.1187 23.4553C87.1141 23.4835 87.1095 23.5111 87.1049 23.5387C87.0911 23.6215 87.0747 23.7023 87.0563 23.783C87.0267 23.9164 86.9919 24.0499 86.9505 24.1812C86.9295 24.2462 86.9091 24.3126 86.8861 24.3775C86.8697 24.421 86.8053 24.5846 86.8237 24.5432C86.8447 24.4951 86.7731 24.6541 86.7568 24.6863C86.7317 24.7415 86.7041 24.7947 86.6739 24.8473C86.6049 24.9766 86.5267 25.1034 86.4434 25.223C86.4275 25.246 86.3008 25.4122 86.3836 25.3084C86.3422 25.359 86.3008 25.4096 86.2568 25.4582C86.1602 25.5666 86.059 25.6678 85.9481 25.7598C85.9276 25.7761 85.9092 25.7945 85.8882 25.8109C85.787 25.8958 85.9782 25.7485 85.8678 25.8268C85.8146 25.8661 85.7594 25.9029 85.7042 25.9372C85.5912 26.0087 85.4737 26.0711 85.3541 26.1289C85.2319 26.1887 85.4573 26.0921 85.3285 26.1401C85.3029 26.1493 85.2779 26.1611 85.2523 26.1703C85.1879 26.1933 85.121 26.2137 85.0565 26.2347C84.9896 26.2531 84.9206 26.2715 84.8516 26.2853C84.8101 26.2945 84.7662 26.3016 84.7248 26.3108C84.6972 26.3154 84.5684 26.3313 84.69 26.3175C83.8997 26.4054 83.1835 26.274 82.4761 25.813C81.4762 25.1607 80.8633 23.944 80.9992 22.7525C81.1352 21.5476 81.992 20.4138 83.1237 19.969C83.3839 19.8678 83.5659 19.6209 83.4851 19.3306C83.4207 19.0908 83.112 18.8746 82.8492 18.9758Z" fill="black"/>
<path d="M73.9186 23.6379C72.3748 23.3219 70.8684 22.8609 69.3082 22.6145C67.3683 22.3103 65.3153 22.2183 63.426 22.8496C62.4445 23.1768 61.4814 23.6747 60.7949 24.467C60.1084 25.2599 59.6703 26.2229 59.3365 27.2095C58.5436 29.5574 58.0002 32.0004 57.6659 34.4546C57.281 37.2615 57.1752 40.0956 57.3663 42.9235C57.4078 43.5292 58.1684 43.5982 58.3846 43.0615C58.401 43.0201 58.4194 42.9787 58.4358 42.9373C58.4818 42.8263 58.4168 42.9761 58.4562 42.8907C58.4976 42.7941 58.5416 42.6975 58.583 42.6004C58.6867 42.3704 58.7926 42.1398 58.9035 41.9118C59.1591 41.3771 59.4264 40.8491 59.705 40.3261C60.3548 39.0977 61.0505 37.8929 61.8178 36.7335C62.4859 35.7218 63.2051 34.7056 64.0987 33.8805C64.1887 33.7977 64.2807 33.7195 64.3732 33.6413C64.4305 33.5927 64.4744 33.5605 64.594 33.4798C64.866 33.2978 65.1655 33.1526 65.4677 33.0304C66.3336 32.6757 67.2645 32.5075 68.2 32.5647C68.9974 32.6154 69.7898 32.8208 70.5616 33.0141C71.0411 33.1342 71.836 33.5191 72.2021 33.0325C72.3452 32.8413 72.2598 32.5647 72.1213 32.4037C72.0983 32.3782 72.0364 32.3347 72.0088 32.3158C71.4465 31.9544 70.9256 32.8505 71.4854 33.2124C71.4532 33.1869 71.421 33.1639 71.3888 33.1388C71.3611 32.9292 71.3361 32.7191 71.308 32.5095C71.308 32.5095 71.308 32.5095 71.3059 32.5121C71.4557 32.4267 71.6055 32.3414 71.7527 32.256C71.9051 32.2401 71.8682 32.2769 71.7573 32.2493C71.6587 32.2238 71.5595 32.1987 71.4603 32.1732C71.1582 32.097 70.8592 32.0188 70.557 31.9452C69.8312 31.7698 69.0966 31.6063 68.3523 31.5393C66.7231 31.3941 64.8961 31.8736 63.6243 32.9246C62.675 33.7078 61.9236 34.747 61.2325 35.754C60.4284 36.9247 59.703 38.1531 59.0277 39.4019C58.4311 40.5035 57.8596 41.6261 57.3893 42.7895C57.7283 42.8355 58.0692 42.8815 58.4076 42.9281C58.0851 38.1347 58.606 33.3044 59.9652 28.6956C60.2581 27.7049 60.5577 26.7024 61.099 25.8155C61.6036 24.9879 62.3131 24.4328 63.198 24.0499C64.8844 23.3194 66.8131 23.3265 68.6033 23.5591C70.3173 23.783 71.9603 24.3014 73.6492 24.6449C74.2943 24.7712 74.5729 23.7713 73.9186 23.6379Z" fill="black"/>
<path d="M88.2774 33.3437C89.2497 34.5031 90.3329 35.5607 91.2612 36.759C92.3858 38.2082 93.3719 39.8491 93.7057 41.6766C93.8785 42.6121 93.8693 43.6053 93.4639 44.483C92.9962 45.4972 92.2177 46.3105 91.4432 47.0962C89.8304 48.7305 88.0816 50.2283 86.2153 51.5625C84.0979 53.0766 81.8354 54.3832 79.4691 55.4705C79.6787 55.7425 79.8883 56.0144 80.0984 56.2843C81.4623 54.627 82.637 52.7837 83.6972 50.9219C84.3009 49.8617 84.8627 48.7719 85.3074 47.6355C85.6601 46.7394 85.9137 45.8198 85.8677 44.8495C85.7869 43.2137 85.2686 41.5682 84.0724 40.4022C83.596 39.9365 82.8609 40.667 83.3398 41.1347C84.2917 42.0636 84.7293 43.3656 84.8213 44.6701C84.8862 45.5846 84.7201 46.2717 84.3791 47.1816C83.5816 49.2994 82.34 51.2905 81.0865 53.1707C80.7711 53.643 80.4486 54.1087 80.1168 54.5698C79.8219 54.9752 79.6491 55.2078 79.3654 55.5513C78.9855 56.0124 79.4482 56.6161 79.9946 56.3646C84.3745 54.353 88.3996 51.5691 91.8281 48.1794C92.6598 47.3569 93.5053 46.5109 94.1019 45.4972C94.6826 44.5111 94.9132 43.4392 94.8257 42.3008C94.6714 40.2867 93.7471 38.4341 92.5883 36.8142C91.5122 35.3072 90.199 34.0236 89.0125 32.6107C88.8326 32.3965 88.464 32.4241 88.28 32.6107C88.0658 32.8228 88.098 33.1295 88.2774 33.3437Z" fill="black"/>
<path d="M72.1811 39.8236C68.7664 42.3632 65.232 44.7412 61.5617 46.8984C58.0432 48.9652 54.403 50.8274 50.6473 52.429C46.9795 53.9937 43.1962 55.2978 39.3414 56.3212C35.4522 57.3533 31.4844 58.1001 27.4823 58.5402C23.3028 59.0034 19.0891 59.146 14.8861 59.008C14.3473 58.9896 13.808 58.9666 13.2687 58.941C12.6031 58.9088 12.6031 59.946 13.2687 59.9782C17.5315 60.1878 21.8056 60.1188 26.0561 59.7221C30.1231 59.3423 34.162 58.6737 38.1293 57.6988C42.0466 56.7383 45.8871 55.4844 49.6244 53.9682C53.419 52.429 57.1031 50.6291 60.6676 48.6104C64.3748 46.5089 67.9505 44.1789 71.4 41.6767C71.8376 41.3587 72.2731 41.0407 72.7061 40.7177C72.93 40.552 73.045 40.2683 72.8927 40.0081C72.7618 39.7893 72.4065 39.6554 72.1811 39.8236Z" fill="black"/>
<path d="M13.2719 81.1302C18.3429 80.5428 23.3566 79.5082 28.239 78.0124C32.946 76.5699 37.5242 74.7081 41.9132 72.4819C46.2609 70.2766 50.422 67.7048 54.3576 64.8314C58.2743 61.9713 61.9748 58.8214 65.4356 55.4271C68.8774 52.0487 72.0826 48.433 75.0434 44.6237C75.414 44.1467 75.7825 43.6652 76.147 43.1836C76.3152 42.9603 76.1813 42.6029 75.9604 42.4736C75.6951 42.3192 75.4211 42.4348 75.2504 42.6607C72.3842 46.4604 69.2715 50.0786 65.9309 53.4682C62.5806 56.8671 58.9977 60.0452 55.1914 62.9278C51.36 65.8313 47.3073 68.4445 43.0675 70.7122C38.7868 73.0028 34.319 74.9335 29.7086 76.4569C24.9628 78.0262 20.0732 79.1672 15.1219 79.8604C14.5044 79.9458 13.8868 80.024 13.2693 80.0955C12.9907 80.1277 12.751 80.3097 12.751 80.6139C12.7535 80.8674 12.9933 81.1624 13.2719 81.1302Z" fill="black"/>
<path d="M12.433 87.7556C12.3962 89.8295 12.3594 91.9034 12.3226 93.9773C12.3042 94.9567 12.2648 95.9408 12.2766 96.9202C12.2858 97.7775 12.3824 98.6828 12.8338 99.4317C13.6864 100.845 15.4122 101.153 16.933 101.211C18.9031 101.285 20.8845 101.174 22.8382 100.918C25.0777 100.625 27.2851 100.139 29.4372 99.4526C30.0705 99.2497 29.7986 98.2473 29.1606 98.4522C25.5639 99.6024 21.8061 100.197 18.0295 100.192C16.7116 100.19 14.9399 100.275 13.9584 99.2154C13.4492 98.6644 13.3409 97.8715 13.3179 97.1528C13.2877 96.247 13.3337 95.3391 13.3501 94.4338C13.3894 92.2076 13.4283 89.9813 13.4676 87.7556C13.4814 87.087 12.4447 87.087 12.433 87.7556Z" fill="black"/>
<path d="M13.7252 87.3246C15.407 87.0251 17.0888 86.7255 18.7732 86.426C19.6141 86.2762 20.455 86.1259 21.2964 85.9761C22.0887 85.8356 22.8811 85.6607 23.6785 85.5616C24.2797 85.4854 24.9504 85.4808 25.4273 85.9117C25.8511 86.2946 26.0448 86.8661 26.1782 87.4029C26.349 88.0848 26.4343 88.7902 26.5447 89.486C26.6761 90.3131 26.8075 91.1407 26.9389 91.9657C27.243 93.8827 27.5492 95.7976 27.8534 97.7151C27.8974 97.9916 28.2429 98.146 28.4919 98.077C28.7868 97.9962 28.8972 97.7171 28.8533 97.4385C28.5701 95.6524 28.2843 93.8689 28.0011 92.0833C27.8605 91.2005 27.72 90.3177 27.5794 89.4328C27.4572 88.6655 27.3652 87.8824 27.1761 87.1263C27.0191 86.5042 26.7773 85.8933 26.3648 85.3954C25.8833 84.8173 25.1875 84.5315 24.4458 84.4876C23.6576 84.4415 22.856 84.6465 22.0841 84.7825C21.188 84.9415 20.2893 85.103 19.3932 85.262C17.4113 85.6147 15.43 85.9669 13.4486 86.3197C13.1721 86.3682 13.0177 86.7046 13.0867 86.9581C13.1675 87.2531 13.4486 87.3727 13.7252 87.3246Z" fill="black"/>
<path d="M45.0724 73.4015C45.1046 74.9591 45.1368 76.5146 45.169 78.0722C45.2334 81.1603 45.2958 84.2458 45.3602 87.3339C45.4062 89.6107 45.4548 91.8871 45.5008 94.1639C45.5054 94.3321 45.5054 94.5003 45.5125 94.6684C45.5376 95.5743 45.8581 96.4223 46.4475 97.1114C47.1182 97.8951 48.093 98.3306 49.1113 98.3996C49.4201 98.42 49.7288 98.4364 50.035 98.4548C52.6569 98.6117 55.2793 98.7707 57.9012 98.9271C57.9681 98.9317 58.0372 98.9363 58.1041 98.9389C58.7697 98.9778 58.7676 97.9411 58.1041 97.9017C55.7261 97.7591 53.3485 97.6159 50.9705 97.4733C50.4639 97.4432 49.9568 97.413 49.4497 97.3808C49.0285 97.3558 48.618 97.321 48.2198 97.1528C47.314 96.7679 46.6366 95.8738 46.5559 94.8877C46.5421 94.7216 46.5421 94.5534 46.54 94.3852C46.4961 92.3134 46.4547 90.2421 46.4107 88.1728C46.3463 85.1051 46.2839 82.036 46.2195 78.9688C46.1827 77.1413 46.1807 75.3072 46.1065 73.4797C46.1065 73.4521 46.1065 73.4265 46.1045 73.3989C46.0953 72.7354 45.0586 72.7328 45.0724 73.4015Z" fill="black"/>
<path d="M46.9239 73.5836C49.099 72.9727 51.4264 72.277 53.7048 72.6916C55.6125 73.0397 57.2601 74.1066 58.2094 75.8165C59.2348 77.6624 59.4924 79.863 59.7209 81.9277C59.9924 84.3958 60.1422 86.8776 60.1698 89.3594C60.2025 92.1433 60.0803 94.9293 59.8058 97.7015C59.7782 97.9801 60.064 98.2198 60.3241 98.2198C60.6283 98.2198 60.8154 97.9801 60.843 97.7015C61.3496 92.5533 61.3337 87.3545 60.7852 82.2089C60.548 79.976 60.2853 77.6552 59.2737 75.6207C58.3336 73.7288 56.64 72.3782 54.6034 71.8343C51.9468 71.1248 49.2165 71.8619 46.6478 72.5858C46.0073 72.7632 46.2813 73.763 46.9239 73.5836Z" fill="black"/>
<path d="M73.6188 56.9754C74.1418 64.4347 74.6647 71.8965 75.1882 79.3558C75.4484 83.066 75.7085 86.7782 75.9693 90.4884C76.0613 91.8022 76.1901 93.1522 76.778 94.3484C77.0611 94.9245 77.4757 95.4316 78.0033 95.8002C78.6555 96.2541 79.453 96.4152 80.2361 96.4295C81.1967 96.4479 82.1669 96.3073 83.1233 96.224C84.1462 96.1345 85.1691 96.0445 86.1946 95.9546C88.2797 95.77 90.3648 95.588 92.45 95.4035C92.7286 95.3785 92.9683 95.1827 92.9683 94.8852C92.9683 94.625 92.7311 94.3413 92.45 94.3668C88.8486 94.6848 85.2473 95.0027 81.646 95.3187C80.3031 95.4362 78.7752 95.5441 77.9322 94.2769C77.2733 93.2882 77.121 92.0276 77.0335 90.8708C76.485 83.6697 76.0219 76.4594 75.5174 69.2557C75.2296 65.1631 74.9438 61.068 74.6555 56.9754C74.6074 56.3119 73.5708 56.3073 73.6188 56.9754Z" fill="black"/>
<path d="M75.0473 57.2153C78.5586 56.9388 82.07 56.6229 85.5859 56.3903C86.779 56.3121 88.0856 56.2707 89.2103 56.745C89.701 56.9526 90.1524 57.2823 90.4499 57.727C90.8343 58.3031 90.9749 58.9917 91.0255 59.6742C91.0832 60.467 91.0556 61.2639 91.0556 62.0568C91.0531 62.9396 91.0531 63.8199 91.051 64.7022C91.0485 66.5041 91.0439 68.3066 91.0418 70.106C91.0347 73.6316 91.028 77.1599 91.0209 80.6855C91.0142 84.6723 91.005 88.659 90.9979 92.6453C90.9958 93.3139 92.0325 93.3139 92.0346 92.6453C92.0489 85.3614 92.0627 78.0795 92.0765 70.7951C92.0785 68.9931 92.0831 67.1912 92.0857 65.3913C92.0877 63.6144 92.1475 61.8288 92.0831 60.0545C92.0279 58.5797 91.6548 57.1371 90.4059 56.2333C89.3646 55.4778 87.9911 55.3142 86.7376 55.3096C85.9013 55.3071 85.065 55.3904 84.2308 55.4548C83.2355 55.533 82.2402 55.6112 81.2449 55.69C79.1782 55.851 77.1114 56.0146 75.0447 56.1761C74.7661 56.1991 74.5264 56.3995 74.5264 56.6944C74.5289 56.9592 74.7661 57.2358 75.0473 57.2153Z" fill="black"/>
</svg>
