<svg width="102" height="134" viewBox="0 0 102 134" fill="none" xmlns="http://www.w3.org/2000/svg">
<path d="M39.2696 83.4335C36.856 82.2881 34.4941 81.058 32.6888 79.0976C28.0455 74.0534 27.8121 65.8418 31.1813 59.8539C34.5493 53.8683 42.6986 48.1934 57.1619 46.3999C58.8615 46.1355 61.7661 46.5088 63.8049 46.4149C70.3673 46.1842 78.489 48.5354 83.3174 52.3113C88.1435 56.0861 90.8607 62.7418 89.2497 68.6857C87.6479 74.5936 82.3653 78.7429 76.8975 81.4093C70.3386 84.6068 63.0574 86.0826 55.7786 86.3028C51.8264 86.4246 41.7465 84.6068 39.2696 83.4335Z" fill="white"/>
<path d="M37.2767 90.5935C39.2937 87.7102 40.8736 83.9331 43.876 82.1281C46.5092 80.5433 50.1233 80.8412 52.4657 82.8364C52.8555 83.168 53.2154 83.5494 53.4316 84.0131C53.6466 84.4792 53.6995 85.0415 53.4753 85.5029C51.6504 89.2637 48.525 92.2525 45.8216 95.4291C44.4992 96.9837 41.506 101.011 41.506 101.011L32.8922 95.4291C32.8899 95.4314 36.0912 92.2861 37.2767 90.5935Z" fill="white"/>
<path d="M12.02 121.526C14.651 124.778 19.4978 126.185 23.5661 125.311C25.7934 124.833 27.7022 123.424 29.4627 121.965C37.1854 115.569 43.2108 107.148 47.6494 98.1165C43.9686 94.3127 39.0965 91.6973 33.9128 90.7432C33.9128 90.7432 33.5115 91.1246 32.4122 92.1483C24.8218 99.2109 17.3751 107.056 12.6456 116.317C11.8855 117.811 11.2093 120.524 12.02 121.526Z" fill="white"/>
<path d="M22.7964 120.366C23.33 120.905 23.7991 121.534 24.0015 122.266C24.2027 122.999 23.9463 123.741 23.5898 124.413C23.4864 124.609 23.1954 124.995 22.7631 125.452C18.9305 125.985 14.6023 124.602 12.1254 121.647C12.0461 121.048 12.0196 120.566 12.0196 120.293C12.0196 114.689 20.8439 118.399 22.7964 120.366Z" fill="white"/>
<path d="M68.5351 26.864C70.2381 27.5388 74.5249 28.2923 76.083 31.3008C76.5786 32.2572 76.4728 33.398 76.2371 34.4484C75.3792 38.2741 73.7843 41.933 71.572 45.1606C71.8445 43.3891 72.1354 37.7942 71.1039 36.0645C70.5934 35.2077 69.8632 34.4947 68.9686 34.0693C68.074 33.6449 66.4124 33.2322 66.5538 33.2345C66.5538 33.2345 57.6675 33.2519 55.8104 33.813C54.4903 34.2107 53.5577 35.2077 53.046 36.0645C52.0146 37.7942 52.3055 43.3891 52.5769 45.1606C50.3645 41.933 48.7707 38.2741 47.9118 34.4484C47.6761 33.398 47.5703 32.2572 48.0659 31.3008C49.624 28.2923 53.8878 27.4773 55.6138 26.864C56.674 26.4872 66.7585 26.158 68.5351 26.864Z" fill="white"/>
<path d="M35.1684 66.41C34.3508 72.7063 42.0252 79.1719 55.7814 79.1719C70.9208 79.1719 83.3328 71.4229 83.5466 63.6728C83.6214 60.9391 83.7824 57.7648 79.0092 54.9964C74.0899 52.1409 68.4819 50.2048 62.8313 50.7486C60.9398 50.9306 58.6722 51.0512 58.0685 51.1462C57.4648 51.2378 56.845 51.2621 56.2551 51.4256C54.7212 51.8499 48.8303 53.466 47.6424 53.9077C38.9021 57.1539 35.7238 62.1425 35.1684 66.41Z" fill="white"/>
<path d="M36.7844 72.1196C39.6913 76.0984 46.2894 79.1753 55.7794 79.1753C64.3473 79.1753 72.0435 76.6931 77.1467 73.1328C76.6626 71.7231 75.1264 70.7214 75.668 70.4617C76.4177 70.1058 77.1145 69.5065 77.1962 68.6717C77.2813 67.8347 76.7949 66.971 76.0451 66.6116C77.7286 66.0969 79.4454 65.5682 80.8781 64.5341C82.3086 63.5011 83.4263 61.8584 83.3711 60.0846C83.3113 58.1531 81.8279 56.4547 80.0295 55.7881C78.2334 55.1203 76.2038 55.3534 74.4123 56.035C72.6184 56.7144 71.0144 57.8135 69.4298 58.8986C67.8452 59.9872 67.6969 57.8529 68.4949 57.6535C69.7759 57.3381 70.6464 55.8553 70.2888 54.5766C69.9277 53.2955 68.411 52.4875 67.1599 52.9072C66.4918 53.1286 65.956 53.6306 65.3523 53.9993C64.7509 54.3656 63.9667 54.5963 63.3538 54.245C62.5822 53.8033 62.5029 52.7333 62.5201 51.8371C62.5914 47.4676 62.8317 40.973 62.8352 36.6047C62.8352 34.846 62.8352 33.8733 62.8352 33.8733H60.4468C60.4468 33.8733 60.4997 34.388 60.2215 37.1612C59.8052 41.3069 59.4131 47.5916 59.0566 51.7432C58.9991 52.4203 58.9566 53.1599 58.5231 53.677C57.4226 54.9963 55.8105 54.2497 55.2217 52.8052C54.5629 51.1844 53.5705 49.2831 51.8319 49.3098C50.1703 49.3341 49.0307 51.2238 49.1549 52.8956C49.2825 54.5673 50.5934 56.0907 51.25 57.3915C50.4508 56.377 49.5781 55.7464 48.6053 56.253C47.8302 56.6588 47.4772 57.6651 47.7083 58.4975C47.1598 57.6709 46.1203 56.9138 45.6397 57.5781C45.082 58.3502 45.9743 59.4585 46.1422 60.4022C44.2644 57.8575 39.1428 57.1921 36.8775 60.4289C34.3719 64.0101 38.0608 67.8706 41.0815 69.2201C39.16 69.3117 37.4191 70.5128 36.7844 72.1196Z" fill="white"/>
<path d="M62.5687 6.46802C65.4043 10.6486 67.3994 15.9792 67.8731 21.0211C68.3469 26.0653 67.527 31.2267 65.5193 35.8698C63.2356 35.0791 60.7346 35.4547 58.3474 35.8385L57.4816 36.0135L57.2435 34.7615C54.6517 25.6167 56.4064 15.3195 61.8787 7.5717L62.5687 6.46802Z" fill="white"/>
<path d="M59.148 13.7544L58.6858 13.315C59.547 11.2966 60.6095 9.36518 61.8767 7.57402L62.569 6.46802C64.1443 8.79247 65.4598 11.4717 66.4004 14.2587C66.2509 14.3758 66.1118 14.472 65.9887 14.5404C63.8626 15.7566 60.9775 15.3902 59.148 13.7544Z" fill="white"/>
<path d="M64.4043 20.2953C65.1563 21.2518 65.2391 22.6952 64.5779 23.7165C63.9156 24.7379 62.5529 25.2434 61.4007 24.8712C57.1542 23.5055 61.2996 16.3559 64.4043 20.2953Z" fill="white"/>
<path d="M63.373 36.6047C63.3005 40.8664 63.1901 45.127 63.1039 49.3875C63.0843 50.3532 63.0268 51.3305 63.0602 52.2962C63.0889 53.0997 63.3442 54.077 64.3515 53.8347C65.429 53.5773 66.1408 52.5536 67.2412 52.3183C68.1864 52.1142 69.1627 52.4075 69.8963 53.0266C70.7334 53.7327 71.0795 54.8537 70.8174 55.9157C70.5529 56.9915 69.7089 57.9039 68.6383 58.1822C67.9633 58.3572 67.677 57.3046 68.3497 57.1295C69.1144 56.9301 69.6847 56.2461 69.8078 55.4624C69.9296 54.674 69.4904 53.968 68.8165 53.597C68.475 53.4104 68.0829 53.3153 67.6943 53.3489C67.2343 53.3907 66.833 53.6457 66.4604 53.9019C65.59 54.4967 64.5849 55.234 63.4661 54.8873C62.4404 54.5697 62.0701 53.5414 61.9931 52.5536C61.9206 51.632 61.9954 50.6825 62.0138 49.7585C62.0552 47.6601 62.1035 45.5629 62.1495 43.4645C62.1989 41.1783 62.2495 38.8932 62.2886 36.6082C62.3024 35.9045 63.3845 35.9022 63.373 36.6047Z" fill="black"/>
<path d="M69.1578 58.4278C70.8654 57.2557 72.6006 56.079 74.568 55.3997C76.4987 54.7296 78.6847 54.5893 80.5866 55.431C82.1228 56.1126 83.4337 57.5293 83.8017 59.2057C84.203 61.041 83.4188 62.8599 82.147 64.1584C80.5475 65.7884 78.3075 66.4898 76.1882 67.1379C76.2319 66.8051 76.2756 66.4724 76.3182 66.1408C77.2392 66.6092 77.8452 67.6712 77.7348 68.7146C77.6199 69.7927 76.8471 70.7016 75.8111 70.9903C75.1384 71.1781 74.8521 70.1243 75.5225 69.9376C76.1112 69.773 76.5953 69.2536 76.6597 68.6276C76.7275 67.9726 76.3377 67.3709 75.7697 67.0822C75.3373 66.8608 75.4765 66.2139 75.8996 66.0852C77.5934 65.5681 79.3792 65.0464 80.7913 63.923C81.9929 62.9643 82.9427 61.5093 82.8231 59.9094C82.7116 58.4522 81.6376 57.2047 80.3968 56.5451C78.8261 55.7104 76.9173 55.8216 75.2626 56.319C73.2261 56.9323 71.4449 58.1774 69.704 59.3692C69.1268 59.7668 68.5829 58.8208 69.1578 58.4278Z" fill="black"/>
<path d="M60.7613 37.1636C60.5382 39.7594 60.3404 42.3586 60.1415 44.9566C60.038 46.291 59.9345 47.6254 59.8287 48.9598C59.7298 50.1875 59.6988 51.4547 59.4895 52.6697C59.3642 53.4 59.0376 54.1258 58.3879 54.5188C57.7463 54.9072 56.9621 54.8944 56.3848 54.3994C56.1617 54.2081 56.1905 53.8243 56.3848 53.6284C56.6067 53.4047 56.9264 53.4371 57.1495 53.6284C57.4266 53.8661 57.9073 53.5948 58.0924 53.3571C58.4316 52.9154 58.4696 52.2813 58.5179 51.748C58.6145 50.6316 58.703 49.5128 58.7915 48.3975C58.987 45.9293 59.1744 43.4623 59.3688 40.994C59.47 39.7188 59.5712 38.4424 59.6815 37.1659C59.7057 36.8726 59.9127 36.6199 60.2231 36.6199C60.4922 36.6176 60.7854 36.8668 60.7613 37.1636Z" fill="black"/>
<path d="M54.699 52.9512C54.2862 51.6412 53.2444 49.537 51.5517 49.8848C50.7974 50.0378 50.2535 50.6708 49.9557 51.3548C49.59 52.1919 49.6452 53.0892 49.9143 53.9436C50.2845 55.1111 51.0205 56.1301 51.7173 57.1167C51.3884 57.2581 51.0596 57.3984 50.7295 57.5375C50.4938 56.7944 49.4957 56.3655 48.8161 56.7631C48.1089 57.1758 48.0032 58.1926 48.4689 58.8151C48.14 58.9566 47.81 59.0968 47.4811 59.236C47.3638 58.8858 47.0867 58.5323 46.8004 58.2621C46.6635 58.1311 46.5117 58.0152 46.3416 57.9329C46.3128 57.9178 46.2335 57.8865 46.1587 57.8714C46.2427 57.8865 46.1346 57.8738 46.115 57.8714C46.0242 57.8668 46.2358 57.8552 46.084 57.8819C46.1277 57.8738 46.0909 57.8796 46.0667 57.9201C46.0437 57.9595 46.0196 58.0198 46.0092 58.0662C45.9667 58.2726 46.0552 58.5125 46.1173 58.7015C46.291 59.2255 46.5623 59.7136 46.6704 60.2597C46.7958 60.8903 46.0483 61.1697 45.6827 60.6793C45.0456 59.8295 43.9774 59.2592 42.9218 58.9856C41.7489 58.6818 40.4863 58.7166 39.3491 59.1548C38.1566 59.6162 37.1413 60.6353 36.7595 61.8758C36.3364 63.2438 36.8216 64.6141 37.615 65.7375C38.543 67.0533 39.9091 68.0909 41.3637 68.7494C41.6305 68.87 41.6937 69.2607 41.5592 69.496C41.3982 69.7731 41.0854 69.8137 40.8186 69.6931C38.0267 68.4306 34.9967 65.4372 35.5981 62.0717C35.8844 60.4776 37.0504 59.0655 38.474 58.3572C39.7918 57.7022 41.2901 57.5607 42.7275 57.8227C44.2442 58.0998 45.6804 58.8766 46.6175 60.1263C46.2887 60.2666 45.9586 60.4069 45.6298 60.546C45.4929 59.8516 45.0836 59.2476 44.9663 58.5485C44.8502 57.8714 45.0767 57.0472 45.8 56.8257C46.3945 56.6437 46.9901 56.9915 47.4328 57.3625C47.9238 57.7752 48.3251 58.3305 48.5298 58.9415C48.616 59.1965 48.4528 59.4899 48.217 59.5849C47.948 59.6939 47.7076 59.5849 47.5409 59.3612C46.7141 58.2529 47.1131 56.4211 48.3424 55.78C49.6498 55.0983 51.3355 55.8484 51.7805 57.2431C51.9795 57.8691 51.1286 58.1392 50.7916 57.6628C49.4451 55.7615 47.9572 53.4045 48.9426 51.0024C49.3347 50.0471 50.0569 49.2078 51.0538 48.8843C52.0715 48.5551 53.1294 48.8994 53.9205 49.5741C54.837 50.3532 55.3947 51.5276 55.75 52.6579C55.9547 53.3327 54.9083 53.619 54.699 52.9512Z" fill="black"/>
<path d="M64.885 71.3324C66.2626 71.1168 67.7897 70.4131 68.0587 68.8805C68.168 68.266 68.0116 67.6179 67.547 67.1936C67.0733 66.7624 66.3397 66.6406 65.7268 66.7496C64.8368 66.9073 64.0778 67.4533 63.4258 68.055C62.9141 68.528 62.1437 67.7594 62.6612 67.2841C63.4086 66.5943 64.2699 65.9729 65.2703 65.7329C66.1741 65.5172 67.2032 65.6193 67.9817 66.1607C69.641 67.3107 69.4271 69.7384 68.076 71.0438C67.2895 71.8008 66.2362 72.2205 65.1737 72.3886C64.885 72.435 64.5918 72.3156 64.5079 72.0072C64.4377 71.7452 64.5941 71.3765 64.885 71.3324Z" fill="black"/>
<path d="M62.6364 66.8492C63.8289 65.8974 64.8707 64.6755 65.2858 63.173C65.6538 61.8409 65.4767 60.2422 64.5407 59.1768C63.6874 58.2041 62.3789 57.8528 61.1266 57.9862C59.7939 58.1264 58.621 58.8568 57.8057 59.9176C56.8122 61.2056 56.3603 62.8623 56.3224 64.4761C56.3051 65.1775 55.2231 65.1798 55.2403 64.4761C55.3197 61.2149 57.0848 57.6314 60.5298 56.981C62.0695 56.69 63.7035 56.9891 64.9178 58.0244C66.2528 59.1652 66.7174 61.0456 66.4794 62.7394C66.2 64.7137 64.9236 66.4145 63.4034 67.6237C63.1746 67.8045 62.863 67.8486 62.6387 67.6237C62.449 67.4312 62.4053 67.0336 62.6364 66.8492Z" fill="black"/>
<path d="M55.0047 64.8401C54.7517 64.2477 54.4424 63.624 53.9226 63.2217C53.4926 62.8867 52.8256 62.6977 52.3358 63.0107C51.9057 63.2843 51.7413 63.8385 51.7413 64.3254C51.7436 65.0511 52.0805 65.7433 52.3841 66.3832C52.6865 67.029 51.8643 67.4915 51.448 66.9339C50.6914 65.9195 49.1333 65.9485 48.3732 66.9269C47.5695 67.9599 48.0145 69.5401 49.246 69.9864C49.8922 70.2194 49.6335 71.2454 48.9574 71.0391C47.827 70.6924 46.6967 70.3458 45.564 69.998C44.9006 69.7951 45.1823 68.7413 45.8527 68.9453C46.983 69.292 48.1134 69.6398 49.246 69.9864C49.1494 70.3377 49.054 70.6878 48.9574 71.0391C47.0428 70.3481 46.2379 67.975 47.4901 66.3078C48.7389 64.6465 51.1617 64.7509 52.3818 66.3832C52.069 66.5675 51.7585 66.7496 51.4457 66.9339C51.0398 66.0702 50.5994 65.1358 50.6627 64.1538C50.7156 63.3307 51.0686 62.5087 51.785 62.067C52.5519 61.594 53.5673 61.7099 54.3101 62.1737C55.0863 62.656 55.5819 63.464 55.9349 64.2895C56.0511 64.5584 56.0143 64.8738 55.7406 65.0372C55.5164 65.1705 55.1196 65.1114 55.0047 64.8401Z" fill="black"/>
<path d="M78.738 55.4694C75.117 53.0464 70.882 51.5857 66.5446 51.2796C65.3084 51.1927 64.0677 51.1996 62.835 51.2947C62.5429 51.3155 62.2934 51.0269 62.2934 50.7486C62.2934 50.4356 62.5406 50.2246 62.835 50.2026C67.3265 49.8583 71.8778 50.7243 75.9587 52.643C77.1121 53.1867 78.2229 53.8151 79.2842 54.5257C79.8603 54.9141 79.3199 55.8601 78.738 55.4694Z" fill="black"/>
<path d="M84.0867 63.675C83.9958 67.1553 81.719 70.1348 79.172 72.2772C75.6786 75.215 71.3654 77.1047 66.9981 78.2721C61.7615 79.6726 56.1811 80.0992 50.8042 79.4175C46.5726 78.8808 42.1938 77.6438 38.7625 74.9842C36.4087 73.1595 34.4194 70.4814 34.5275 67.3512C34.5401 66.9872 34.5838 66.6255 34.6459 66.2672C34.6965 65.9751 35.0495 65.8128 35.3117 65.8858C35.6153 65.9705 35.7395 66.2672 35.6889 66.5582C35.6751 66.6406 35.6601 66.7229 35.6509 66.8052C35.6647 66.6939 35.6417 66.9002 35.6383 66.9315C35.6222 67.0962 35.6118 67.262 35.6095 67.4266C35.6026 67.7466 35.6199 68.07 35.6578 68.3877C35.644 68.2729 35.6728 68.4792 35.6774 68.514C35.6889 68.5859 35.7015 68.6613 35.7153 68.7343C35.7475 68.8989 35.7855 69.0624 35.8314 69.2224C35.874 69.3777 35.92 69.5296 35.9729 69.6826C35.997 69.7557 36.0235 69.8287 36.0499 69.8994C36.0626 69.9307 36.0741 69.962 36.0856 69.9957C36.0982 70.0281 36.112 70.0594 36.1247 70.093C36.1051 70.049 36.1051 70.0467 36.1201 70.0838C36.6996 71.4495 37.5701 72.5172 38.659 73.4968C41.5775 76.1204 45.5768 77.4525 49.3898 78.1144C54.4976 79.0025 59.8642 78.7671 64.918 77.6588C69.3186 76.6931 73.6686 75.0306 77.3333 72.3491C79.9148 70.4617 82.3733 67.8509 82.9184 64.6314C82.9644 64.3601 82.9954 64.0413 83.0058 63.6808C83.0242 62.9747 84.1062 62.9724 84.0867 63.675Z" fill="black"/>
<path d="M58.2119 51.6724C57.6094 51.7652 57.0034 51.8591 56.3997 51.9518C56.2502 51.9739 56.118 51.9762 55.9834 51.8962C55.8708 51.8301 55.765 51.6991 55.7362 51.5704C55.704 51.4301 55.7121 51.2748 55.7914 51.1507C55.8627 51.0395 55.9788 50.92 56.1134 50.9015C56.7171 50.8087 57.3231 50.7137 57.9268 50.6221C58.0751 50.6001 58.2073 50.5977 58.3419 50.6777C58.4557 50.7438 58.5615 50.8748 58.5902 51.0024C58.6213 51.1438 58.6144 51.2991 58.5351 51.4232C58.4649 51.5345 58.3476 51.6504 58.2119 51.6724Z" fill="black"/>
<path d="M47.8633 55.0091C45.4957 55.2467 43.2569 56.3771 41.6148 58.1068C41.1307 58.6169 40.3672 57.8425 40.8501 57.3358C42.7015 55.3847 45.2071 54.1836 47.8668 53.917C48.1577 53.888 48.4072 54.1883 48.4072 54.463C48.4049 54.783 48.1554 54.9801 47.8633 55.0091Z" fill="black"/>
<path d="M57.1627 46.9459C52.8149 47.4896 48.4844 48.4507 44.4012 50.0714C41.3643 51.2771 38.4171 52.8956 35.938 55.0229C33.7808 56.8744 32.0548 59.0075 30.9003 61.6276C29.3307 65.1949 28.9811 69.3719 30.0321 73.1328C30.5519 74.9947 31.4292 76.7673 32.6677 78.2478C34.0912 79.9462 35.9138 81.2342 37.8824 82.215C38.3849 82.4643 38.8955 82.695 39.4141 82.906C39.6866 83.0161 39.8764 83.27 39.7924 83.5784C39.7223 83.8381 39.4003 84.0711 39.1266 83.9598C36.928 83.0636 34.8387 81.8973 33.0885 80.2685C31.5327 78.8228 30.3472 77.0421 29.5492 75.0724C28.0026 71.2628 28.0026 66.8446 29.2537 62.9504C30.2242 59.9246 31.9777 57.2651 34.2568 55.0844C36.6636 52.7819 39.544 51.0151 42.5694 49.6703C46.609 47.8757 50.9176 46.7743 55.2746 46.1158C55.9024 46.0219 56.5325 45.9373 57.1627 45.8573C57.4536 45.8202 57.7031 46.1332 57.7031 46.4021C57.7031 46.7256 57.4536 46.9099 57.1627 46.9459Z" fill="black"/>
<path d="M63.8052 45.8689C68.9579 45.6962 74.2509 46.8973 78.9298 49.0571C81.1272 50.0715 83.2465 51.3572 84.9943 53.0533C86.7973 54.8027 88.199 56.9452 89.1224 59.2893C90.0193 61.5674 90.4333 64.0762 90.1884 66.5212C89.9377 69.0254 89.0189 71.4101 87.608 73.483C84.6884 77.7656 80.1199 80.628 75.4743 82.6684C69.9468 85.0995 63.995 86.4907 57.9741 86.791C57.244 86.8269 56.5126 86.8466 55.779 86.8512C55.0822 86.857 55.0822 85.765 55.779 85.7603C61.5905 85.7209 67.3791 84.6555 72.8204 82.5884C77.5062 80.8077 82.1932 78.2942 85.5209 74.4313C87.0664 72.6355 88.2565 70.5151 88.8177 68.1953C89.365 65.9277 89.2569 63.5394 88.6463 61.295C88.0208 58.9949 86.8744 56.8304 85.3381 55.0184C83.8306 53.2423 81.9689 51.8766 79.9325 50.7775C77.7281 49.5881 75.3639 48.7128 72.9503 48.0763C70.5333 47.4387 68.0495 47.041 65.5485 46.9633C64.9666 46.946 64.3848 46.946 63.8029 46.9657C63.1084 46.9854 63.1107 45.8933 63.8052 45.8689Z" fill="black"/>
<path d="M45.4376 95.0455C47.029 93.1407 48.755 91.3553 50.3016 89.4111C51.0491 88.4721 51.7493 87.4901 52.3553 86.449C52.5014 86.1986 52.6405 85.9447 52.7762 85.6873C52.9153 85.423 53.0694 85.1703 53.0763 84.8642C53.0901 84.3135 52.7394 83.8452 52.3668 83.4811C50.8812 82.0308 48.6251 81.4268 46.6013 81.7317C44.5165 82.0447 42.9009 83.3119 41.6452 84.9616C40.186 86.878 39.1419 89.0795 37.6563 90.9785C37.4757 91.2092 37.0813 91.171 36.8916 90.9785C36.6651 90.7513 36.7088 90.4406 36.8916 90.2076C38.2818 88.4292 39.2627 86.3667 40.6046 84.5512C41.9799 82.6928 43.7323 81.1671 46.0505 80.7231C48.3491 80.2837 50.7892 80.817 52.6382 82.2801C53.6409 83.0742 54.562 84.353 53.9801 85.6873C53.4661 86.8687 52.7199 87.9747 51.9632 89.0111C50.205 91.4179 48.1088 93.536 46.2023 95.8199C46.0137 96.0448 45.6319 96.0158 45.4376 95.8199C45.2157 95.5938 45.2502 95.2715 45.4376 95.0455Z" fill="black"/>
<path d="M34.0594 90.2168C38.1703 90.9808 42.073 92.7673 45.3789 95.3492C46.3172 96.0819 47.205 96.8748 48.034 97.7316C48.2123 97.9136 48.2261 98.1733 48.118 98.3936C45.2501 104.219 41.7556 109.743 37.5597 114.689C35.4726 117.149 33.2131 119.459 30.7765 121.565C28.3145 123.692 25.6019 125.87 22.2259 126.034C18.3818 126.223 14.8516 124.023 11.748 122.002C11.1662 121.621 11.7066 120.677 12.2931 121.057C14.9723 122.802 17.9299 124.716 21.2025 124.933C22.7675 125.037 24.275 124.687 25.6652 123.963C27.0784 123.224 28.3364 122.218 29.5507 121.188C34.3377 117.136 38.452 112.316 41.9143 107.075C43.8691 104.117 45.6204 101.026 47.1854 97.8429C47.2142 98.0631 47.2406 98.2846 47.2693 98.5049C44.451 95.6031 40.9484 93.4003 37.1204 92.1309C36.0234 91.7703 34.9057 91.484 33.7731 91.273C33.4844 91.2196 33.3235 90.8672 33.3959 90.6005C33.4775 90.2922 33.7708 90.1635 34.0594 90.2168Z" fill="black"/>
<path d="M32.797 92.5343C29.8268 95.3097 26.9061 98.1408 24.1475 101.133C21.3901 104.124 18.7902 107.279 16.5352 110.678C15.2749 112.576 14.1262 114.548 13.1131 116.594C12.8038 117.222 11.8701 116.672 12.1783 116.043C13.994 112.367 16.2661 108.948 18.7902 105.731C21.3326 102.492 24.1337 99.4659 27.0429 96.5618C28.6758 94.9318 30.3443 93.34 32.03 91.7645C32.5417 91.2845 33.3087 92.0566 32.797 92.5343Z" fill="black"/>
<path d="M11.4974 120.439C11.3341 119.27 11.5216 118.073 12.5553 117.369C13.4476 116.761 14.6642 116.746 15.6934 116.865C16.9916 117.016 18.2565 117.374 19.4708 117.858C20.5333 118.28 21.6038 118.77 22.5318 119.447C24.1405 120.617 25.4962 123.008 23.9726 124.8C23.7817 125.022 23.4022 124.996 23.2079 124.8C22.9883 124.578 23.017 124.251 23.2079 124.028C23.7897 123.344 23.5609 122.342 23.1355 121.645C22.9193 121.293 22.6468 120.973 22.3466 120.689C22.2868 120.631 22.2236 120.577 22.1592 120.524C22.1282 120.497 22.0937 120.471 22.0603 120.444C22.181 120.539 22.0293 120.422 22.0028 120.402C21.6348 120.133 21.2427 119.9 20.8437 119.685C20.6126 119.558 20.3769 119.442 20.1388 119.328C19.9112 119.219 19.6076 119.083 19.4489 119.019C18.3692 118.573 17.2446 118.212 16.0924 118.018C16.028 118.008 15.9647 117.996 15.9003 117.986C15.7876 117.969 15.8854 117.984 15.7991 117.971C15.6577 117.955 15.5151 117.94 15.3737 117.928C15.1207 117.909 14.8666 117.899 14.6136 117.906C14.5032 117.909 14.3905 117.916 14.279 117.926C14.2525 117.928 14.0628 117.953 14.1928 117.933C14.133 117.94 14.0755 117.953 14.0145 117.962C13.8064 118 13.6017 118.059 13.4039 118.137C13.5155 118.093 13.3924 118.144 13.351 118.164C13.2981 118.19 13.2475 118.219 13.1981 118.248C13.1544 118.275 13.1107 118.304 13.0682 118.333C12.9762 118.397 13.1107 118.282 13.0118 118.377C12.9762 118.413 12.9382 118.444 12.9037 118.481C12.8853 118.501 12.7795 118.626 12.8221 118.571C12.8658 118.515 12.7818 118.632 12.7646 118.659C12.7335 118.71 12.7071 118.761 12.6783 118.811C12.668 118.828 12.6611 118.848 12.6519 118.864C12.6208 118.923 12.6852 118.768 12.6496 118.864C12.63 118.918 12.6105 118.972 12.5967 119.025C12.5772 119.088 12.5622 119.15 12.5484 119.216C12.5415 119.252 12.5197 119.401 12.5243 119.35C12.5289 119.306 12.5151 119.481 12.5128 119.52C12.5093 119.587 12.507 119.658 12.5093 119.725C12.5093 119.798 12.5151 119.871 12.5197 119.944C12.522 119.993 12.5438 120.184 12.5392 120.146C12.5795 120.437 12.4691 120.733 12.1609 120.817C11.9114 120.89 11.5388 120.733 11.4974 120.439Z" fill="black"/>
<path d="M63.2695 6.60583C65.4647 9.85543 67.0354 13.5409 67.8576 17.3841C68.7108 21.3676 68.7545 25.4948 68.0163 29.498C67.5954 31.7865 66.9032 34.0089 65.9844 36.1444C65.8947 36.3531 65.5808 36.4644 65.3738 36.3937C63.1396 35.6401 60.7616 35.9983 58.4894 36.3624C58.2008 36.4087 57.9076 36.287 57.8236 35.9821C57.7535 35.7224 57.9099 35.3561 58.2008 35.3097C60.6604 34.9143 63.2385 34.5213 65.6601 35.341C65.4555 35.4233 65.2531 35.5079 65.0484 35.5914C66.6123 31.9592 67.4298 28.0013 67.4586 24.0422C67.4873 20.1885 66.7491 16.3581 65.3255 12.7839C64.5367 10.8038 63.5225 8.91637 62.3312 7.15419C61.9425 6.57453 62.8774 6.02848 63.2695 6.60583Z" fill="black"/>
<path d="M62.3433 7.84859C60.2436 10.8327 58.6912 14.1762 57.7334 17.7041C56.779 21.2296 56.4237 24.9105 56.6927 28.5542C56.8445 30.6074 57.2044 32.6362 57.7621 34.6152C57.953 35.2923 56.9089 35.5809 56.7192 34.9062C55.6992 31.2868 55.3336 27.4795 55.6153 23.7268C55.8993 19.9485 56.8158 16.2433 58.3279 12.7792C59.1696 10.8524 60.2011 9.01372 61.4084 7.29791C61.5763 7.05793 61.8787 6.94315 62.149 7.10082C62.3835 7.23994 62.5135 7.60629 62.3433 7.84859Z" fill="black"/>
<path d="M66.2621 15.011C63.8623 16.3048 60.8139 15.9408 58.7648 14.1404C58.2382 13.6766 59.0086 12.908 59.5295 13.3683C61.1992 14.836 63.7669 15.1177 65.7148 14.0697C66.33 13.7369 66.8785 14.6806 66.2621 15.011Z" fill="black"/>
<path d="M64.786 19.9103C65.4116 20.7253 65.6691 21.7131 65.515 22.7344C65.3713 23.6874 64.7987 24.5221 63.988 25.0241C62.6633 25.8472 60.7591 25.6629 59.7345 24.4305C58.3064 22.7078 59.2918 19.755 61.2225 18.8542C61.7974 18.5875 62.4276 18.4982 63.0462 18.6675C63.7477 18.8611 64.3364 19.3469 64.786 19.9103C64.9688 20.1399 65.0079 20.4587 64.786 20.6813C64.5963 20.8725 64.2042 20.912 64.0213 20.6813C63.8362 20.4482 63.6327 20.2303 63.3992 20.0436C63.4878 20.1155 63.3601 20.017 63.3337 19.9996C63.2889 19.9683 63.2406 19.9393 63.1923 19.9103C63.1394 19.8778 63.0865 19.8489 63.0336 19.8222C63.0094 19.8106 62.9853 19.8002 62.9634 19.7886C62.9209 19.7665 63.0692 19.8245 62.9519 19.7839C62.853 19.7492 62.7553 19.7155 62.6541 19.6935C62.5886 19.6796 62.5023 19.6715 62.6219 19.6842C62.5644 19.6796 62.5069 19.6715 62.4494 19.6692C62.3528 19.6668 62.2574 19.6842 62.1608 19.6819C62.0907 19.6796 62.2712 19.6553 62.2045 19.6773C62.1781 19.6866 62.1493 19.6866 62.1194 19.6912C62.07 19.7016 62.0217 19.7132 61.9734 19.7283C61.9251 19.7422 61.8768 19.7573 61.8285 19.7735C61.7905 19.7886 61.6606 19.8512 61.7997 19.7839C61.7066 19.8292 61.6146 19.8732 61.5261 19.9265C61.4398 19.9775 61.3605 20.0355 61.2788 20.0946C61.2156 20.1399 61.3766 20.0042 61.2903 20.0865C61.2731 20.1039 61.2547 20.119 61.2352 20.1329C61.1892 20.1723 61.1466 20.2129 61.1029 20.2546C61.0328 20.3219 60.9661 20.3926 60.9005 20.4679C60.8649 20.5085 60.8315 20.5526 60.7947 20.5966C60.7464 20.6523 60.8557 20.5143 60.812 20.5746C60.7901 20.6059 60.7683 20.6349 60.7464 20.6639C60.6223 20.8436 60.5119 21.036 60.4176 21.2319C60.3957 21.2783 60.3762 21.3247 60.3555 21.3699C60.4176 21.2296 60.3451 21.4 60.3336 21.4337C60.2945 21.5403 60.2612 21.647 60.2324 21.756C60.206 21.858 60.1818 21.9623 60.1623 22.0667C60.1531 22.1246 60.1439 22.229 60.1554 22.1061C60.1508 22.1664 60.1439 22.2266 60.1382 22.2904C60.1313 22.3947 60.1313 22.4968 60.1336 22.6011C60.1359 22.6544 60.1416 22.7101 60.1462 22.7634C60.1577 22.9141 60.1267 22.6811 60.1554 22.8307C60.175 22.9257 60.1945 23.0173 60.2209 23.1101C60.2347 23.1611 60.2543 23.2121 60.2704 23.2631C60.3072 23.3721 60.2278 23.1854 60.2922 23.3141C60.3405 23.4115 60.3911 23.5054 60.4509 23.5958C60.4728 23.6271 60.5671 23.7431 60.4751 23.6341C60.5165 23.6828 60.5544 23.7315 60.5981 23.7744C60.6315 23.8115 60.6671 23.8474 60.7062 23.8822C60.728 23.9007 60.8557 24.0097 60.7993 23.9668C60.7418 23.9204 60.8741 24.0201 60.8913 24.0317C60.9488 24.0711 61.0086 24.1071 61.0696 24.1442C61.1271 24.1755 61.1846 24.2068 61.242 24.2358C61.2685 24.2508 61.2949 24.2601 61.3237 24.2752C61.3053 24.2647 61.2225 24.2358 61.3214 24.2729C61.4755 24.3308 61.6296 24.3842 61.7905 24.4178C62.0815 24.4781 62.454 24.4618 62.7576 24.3818C63.4717 24.1975 64.1064 23.6874 64.3468 22.9721C64.5986 22.222 64.51 21.3247 64.0213 20.6859C63.8443 20.4529 63.796 20.1399 64.0213 19.9149C64.2076 19.7225 64.6066 19.675 64.786 19.9103Z" fill="black"/>
<path d="M68.6794 26.3364C69.7016 26.6958 70.7538 26.9578 71.7668 27.3485C73.0766 27.8528 74.3633 28.5009 75.3855 29.4886C75.9099 29.9929 76.3791 30.6051 76.6642 31.2798C77.0494 32.1864 77.0184 33.1765 76.8494 34.1306C76.5182 36.0273 75.8754 37.9077 75.1429 39.6815C74.3058 41.7033 73.272 43.6313 72.0382 45.4341C71.6771 45.9639 70.9585 45.6219 71.0505 45.0144C71.0551 44.9808 71.0838 44.7721 71.0643 44.9124C71.0746 44.8347 71.0838 44.757 71.093 44.677C71.1148 44.488 71.1344 44.2991 71.1516 44.1078C71.1919 43.658 71.2206 43.2093 71.2425 42.7606C71.2931 41.7416 71.3046 40.7202 71.2597 39.7012C71.2183 38.7772 71.1539 37.8764 70.8987 36.9883C70.8768 36.9084 70.8504 36.8307 70.8239 36.753C70.8101 36.7124 70.7952 36.6707 70.7814 36.6313C70.725 36.4817 70.8078 36.6881 70.7687 36.6023C70.6779 36.3936 70.5549 36.2023 70.4249 36.0157C70.0788 35.5183 69.6269 35.0836 69.1117 34.7682C68.5851 34.4459 67.9917 34.2593 67.4076 34.0749C67.1719 34.0019 66.9361 33.9312 66.7004 33.8605C66.5728 33.8222 66.3761 33.7909 66.2681 33.7086C65.9645 33.4802 65.9265 33.1498 66.1565 32.8519C66.2439 32.7371 66.4141 32.6988 66.5486 32.6895C67.2443 32.6432 67.2409 33.7353 66.5486 33.7805C66.5463 33.7805 66.544 33.7805 66.5417 33.7805C66.6694 33.7271 66.797 33.6738 66.9235 33.6205C66.9235 33.6205 66.9235 33.6205 66.9212 33.6228C66.8855 33.3365 66.8499 33.0501 66.8108 32.7672C66.6981 32.6814 66.6958 32.7255 66.7993 32.7545C66.8706 32.7742 66.9407 32.7985 67.0109 32.8182C67.2512 32.8878 67.4892 32.9608 67.7296 33.0362C68.2999 33.2159 68.876 33.4049 69.405 33.6866C70.4537 34.2419 71.3943 35.2192 71.8197 36.3461C72.1567 37.2364 72.2452 38.2311 72.3073 39.1725C72.3797 40.2472 72.3774 41.3266 72.336 42.4013C72.2981 43.3716 72.2337 44.3478 72.0888 45.3089C71.7599 45.1674 71.4299 45.0271 71.101 44.888C73.164 41.868 74.6853 38.4932 75.5638 34.9305C75.7673 34.1039 75.9846 33.2298 75.857 32.3742C75.7512 31.6705 75.3545 31.0491 74.883 30.5344C74.0344 29.608 72.8995 28.9774 71.7473 28.5113C70.648 28.0673 69.5016 27.7856 68.3885 27.3926C67.7388 27.1619 68.0182 26.1069 68.6794 26.3364Z" fill="black"/>
<path d="M55.7609 27.3904C53.6348 28.1371 51.3246 28.5892 49.6147 30.181C49.1548 30.6076 48.7316 31.1165 48.4775 31.6997C48.1314 32.495 48.2464 33.4294 48.4269 34.2514C48.8167 36.0298 49.3744 37.7815 50.0804 39.4591C50.8842 41.3638 51.8846 43.1805 53.0483 44.8836C52.7183 45.025 52.3894 45.1653 52.0594 45.3033C51.8168 43.6883 51.7593 42.0305 51.788 40.4004C51.8053 39.4637 51.8651 38.527 52.0146 37.603C52.1318 36.8726 52.3273 36.1643 52.7355 35.5429C53.4324 34.4821 54.4213 33.594 55.6689 33.2833C56.3451 33.1164 56.6337 34.169 55.9575 34.3371C55.01 34.5725 54.2522 35.2275 53.7118 36.0298C53.621 36.1666 53.529 36.3069 53.4542 36.4529C53.4255 36.5086 53.399 36.5642 53.3749 36.6222C53.4117 36.5376 53.3346 36.7393 53.322 36.7775C53.2116 37.1079 53.1369 37.45 53.0771 37.7943C52.7953 39.4394 52.8321 41.2178 52.9207 42.9046C52.9425 43.3162 52.9713 43.7289 53.0069 44.1393C53.0242 44.319 53.0414 44.4987 53.0621 44.6795C53.0702 44.7503 53.0794 44.821 53.0886 44.8917C53.1012 44.981 53.0702 44.7607 53.0886 44.8963C53.0943 44.9346 53.1012 44.974 53.1058 45.0146C53.1966 45.6186 52.4803 45.9687 52.1181 45.4343C49.9367 42.2391 48.3407 38.629 47.4575 34.8531C47.2368 33.9094 47.0827 32.9413 47.2701 31.9779C47.4242 31.1826 47.8807 30.4743 48.4027 29.8726C49.3399 28.7956 50.6151 28.0837 51.9111 27.5412C53.0725 27.0531 54.289 26.7551 55.4746 26.3401C56.1312 26.1071 56.414 27.1597 55.7609 27.3904Z" fill="black"/>
</svg>
