<svg width="98" height="98" viewBox="0 0 98 98" fill="none" xmlns="http://www.w3.org/2000/svg">
<path d="M61.4623 47.9163C61.0091 49.2991 60.3002 50.4839 59.1735 51.4362C56.9777 53.2907 53.8717 52.268 52.6368 50.2594C51.7365 48.7915 51.3915 46.7914 51.7469 44.1822C51.9652 42.8683 52.4454 41.2572 53.5702 39.9055C55.9654 37.0283 60.2023 37.7349 61.4959 41.253C62.3064 43.4648 62.1882 45.6936 61.4623 47.9163ZM53.6387 67.443C53.2314 67.624 52.8698 67.5181 52.5347 67.2351C51.2062 66.1084 49.8319 65.0355 48.3786 64.0686C44.2603 61.3284 39.7899 59.4261 34.9353 58.445C34.0704 58.2701 33.2036 58.1038 32.3364 57.9332C32.3364 57.9459 32.3345 57.9582 32.3303 57.971C31.7627 57.8916 31.1908 57.8212 30.6232 57.7337C29.4114 57.5447 28.7063 56.5943 28.8996 55.4321C29.0825 54.3201 30.0618 53.6485 31.2574 53.8687C35.578 54.6693 39.7171 56.0144 43.6114 58.0726C47.3474 60.0457 50.6679 62.5803 53.6553 65.5597C53.9592 65.8631 54.2583 66.1665 54.2295 66.6282C54.2064 67.0087 53.9861 67.2894 53.6387 67.443ZM32.162 32.6954C33.8998 30.7346 36.977 30.5644 38.7714 32.4062C39.7715 33.4313 40.2413 34.7518 40.3972 36.1776C40.5012 37.128 40.4719 38.0718 40.2847 39.3838C40.0456 40.9037 39.4468 42.6519 38.0687 44.0513C37.287 44.8415 36.3181 45.2427 35.2368 45.3571C33.1016 45.5816 31.5505 44.3131 30.7773 42.7393C29.332 39.7997 29.9809 35.1506 32.162 32.6954ZM69.2277 52.8895V50.1016C69.2277 48.4049 70.0118 46.8874 71.2363 45.8935C70.5874 45.4091 70.1054 44.7271 69.8497 43.9014C69.5855 43.0531 69.6228 42.2591 69.6479 41.6769C69.6564 41.5375 69.6625 41.3924 69.6602 41.3153C69.6375 40.2609 69.5274 35.5958 69.4877 34.3151C69.465 33.6099 69.4754 32.6789 69.7518 31.745C69.8412 31.4416 69.9555 31.1547 70.0907 30.8825C68.9347 29.4085 67.6601 28.036 66.2588 26.7741C64.9242 25.5723 63.4416 24.5723 61.9283 23.593C59.872 22.2645 57.6474 21.4705 55.4205 20.522C54.4644 20.1146 53.4039 19.8589 52.4038 19.5617C50.3021 18.9402 48.1107 18.7091 45.9211 18.6637C40.53 18.5531 35.4051 19.651 30.5693 22.0878C27.5503 23.6053 24.8456 25.5515 22.4339 27.8885C20.75 29.5205 19.2716 31.3499 18.0055 33.3292C16.7432 35.3023 15.6808 37.3856 14.8887 39.5979C12.8928 45.178 12.3876 50.8833 13.4855 56.7148C13.8078 55.9293 14.1008 55.2095 14.3461 54.6008C15.3669 52.0766 17.1572 51.3384 18.4833 51.164C18.7059 51.1347 18.9328 51.1201 19.153 51.1201C20.7329 51.1201 22.1177 51.829 23.2737 53.2241C25.2487 55.6113 25.6958 58.5674 24.5337 61.551C24.2487 62.2831 23.9122 63.1498 23.596 64.0104C23.5917 64.0251 23.5875 64.0397 23.5837 64.0501C23.5899 64.0544 23.596 64.0563 23.6045 64.0582C29.6525 66.5011 35.898 69.0168 42.6988 71.7508C45.9565 73.0628 47.5303 76.562 46.2812 79.7199C45.7717 81.0092 44.8714 82.0447 43.7466 82.7139C44.7655 82.7512 45.7925 82.7408 46.828 82.6827C52.8467 82.3396 58.3251 80.4062 63.2672 76.9821C65.496 75.4372 67.4545 73.5973 69.2551 71.5367C70.9679 69.5782 72.2656 67.3849 73.5275 65.1584C74.7416 63.0128 75.5007 60.688 76.0701 58.3032H74.6419C71.6583 58.3032 69.2277 55.8731 69.2277 52.8895Z" fill="white"/>
<mask id="mask0_786_1963" style="mask-type:luminance" maskUnits="userSpaceOnUse" x="9" y="53" width="35" height="36">
<path d="M9.31641 53.9604H43.7979V88.2H9.31641V53.9604Z" fill="white"/>
</mask>
<g mask="url(#mask0_786_1963)">
<path d="M41.61 74.4579C34.7988 71.7177 28.5509 69.2001 22.5133 66.7634C20.983 66.1457 20.2869 64.5657 20.8583 63.0085C21.1848 62.1124 21.5256 61.2329 21.8167 60.4886C22.5984 58.4823 22.3323 56.6633 21.027 55.0852C20.7463 54.744 20.1621 54.037 19.1536 54.037C19.06 54.037 18.9622 54.0436 18.8643 54.0559C17.6483 54.2161 17.2305 55.2511 17.0514 55.6921C16.5982 56.815 15.9975 58.2848 15.3032 59.9852C15.1284 60.4096 14.9559 60.8317 14.7853 61.2452C11.935 68.2289 9.7912 73.5349 9.59413 74.5037C8.75619 78.5975 10.675 82.2668 14.6024 84.0802C16.6421 85.0216 23.8357 88.0492 24.952 88.2028C25.108 88.2236 25.2639 88.234 25.4156 88.234C26.6695 88.234 27.7612 87.5208 28.2702 86.3733C28.6402 85.5335 28.6738 84.7579 28.36 83.9928C29.0145 83.6809 29.5387 83.1695 29.8525 82.5126C30.2183 81.7432 30.2457 80.8825 29.946 80.0422C30.3142 79.8636 30.6403 79.6287 30.9069 79.3461C31.1082 79.132 31.2788 78.8929 31.4097 78.6329C31.6158 78.2274 31.7216 77.7846 31.7301 77.3252C32.6385 77.691 33.545 78.0592 34.4538 78.425C36.038 79.0654 37.624 79.7076 39.2087 80.3499C39.6889 80.5456 40.1752 80.6434 40.6535 80.6434C41.9654 80.6434 43.0841 79.8782 43.5685 78.6495C44.2316 76.976 43.3875 75.1753 41.61 74.4579Z" fill="white"/>
</g>
<mask id="mask1_786_1963" style="mask-type:luminance" maskUnits="userSpaceOnUse" x="65" y="9" width="25" height="36">
<path d="M65.2119 9.80005H89.2299V44.0396H65.2119V9.80005Z" fill="white"/>
</mask>
<g mask="url(#mask1_786_1963)">
<path d="M86.8399 14.6386C85.6026 12.9566 83.8374 11.6985 81.9021 10.9168C79.9663 10.1375 77.8622 9.81897 75.7747 9.81897C73.933 9.81897 72.0926 10.0685 70.3213 10.5737C68.5273 11.0832 65.4875 11.7425 65.3273 14.0044C65.2776 14.7053 65.1571 16.5617 65.9865 16.936C66.8557 17.3249 68.9389 15.7365 69.7537 15.4118C71.3195 14.7884 72.9868 14.3933 74.6731 14.339C77.4506 14.252 80.3907 15.3249 81.9768 17.6076C82.9768 19.0504 83.3676 20.8383 83.422 22.5931C83.5052 25.2482 82.7296 28.1236 80.6086 29.72C79.4592 30.5873 78.0409 30.9762 76.6292 31.1402C75.6334 31.2565 74.511 30.9592 73.5606 31.369C72.4443 31.8515 72.3696 33.1384 72.4027 34.2174V34.2259C72.4419 35.5251 72.5544 40.2072 72.5752 41.2507C72.5979 42.2115 72.251 43.5235 73.4963 43.7707C74.4046 43.9517 75.3423 43.9744 76.2573 43.8354C76.3778 43.8165 76.4964 43.7976 76.615 43.773C77.4634 43.6067 77.6274 43.0556 77.6439 42.2531C77.6543 41.7063 77.7668 34.9698 77.8249 34.9698C79.5192 34.862 81.0599 34.5085 82.4446 33.9139C86.898 32.0074 89.2162 27.2294 89.237 22.4664C89.2493 19.6535 88.4614 16.8443 86.8399 14.6386Z" fill="white"/>
</g>
<path d="M76.8465 47.6502C76.6925 47.619 76.5327 47.6044 76.3683 47.6044H74.6428C73.2642 47.6044 72.1455 48.7211 72.1455 50.1016V52.8895C72.1455 54.2681 73.2642 55.3863 74.6428 55.3863H76.3683C76.4703 55.3863 76.5677 55.3802 76.6655 55.3679C77.9047 55.2223 78.8655 54.168 78.8655 52.8895V50.1016C78.8655 48.8851 77.9983 47.8704 76.8465 47.6502Z" fill="white"/>
</svg>
