<svg width="57" height="70" viewBox="0 0 57 70" fill="none" xmlns="http://www.w3.org/2000/svg">
<g clip-path="url(#clip0_786_1983)">
<mask id="path-1-inside-1_786_1983" fill="white">
<path d="M28.6155 0.0331436C37.131 0.0331436 45.6492 0.0255288 54.1647 0.0382201C56.1672 0.0407584 56.9903 0.748931 56.9774 2.70593C56.9207 11.8081 57.2587 20.9179 56.4588 30.0074C55.8446 36.9673 54.2112 43.6353 50.7533 49.8134C46.093 58.1465 39.5825 64.6165 31.0979 69.2209C29.2271 70.2362 27.8026 70.2844 25.9447 69.2209C19.9606 65.7993 14.6887 61.6341 10.5212 56.1489C5.31642 49.2956 2.04954 41.6935 0.960586 33.1828C0.147738 26.8371 -0.0199921 20.4712 0.000651667 14.0925C0.013554 10.6659 0.000651667 7.23925 0.00323214 3.81261C0.00323214 3.30495 0.0238759 2.7973 0.0625829 2.29219C0.178704 0.77939 0.847046 0.109291 2.39017 0.0661409C4.25843 0.0128376 6.12927 0.00522279 8.00011 0.00268454C14.8719 -0.00239197 21.7437 0.000146283 28.6155 0.000146283C28.6155 0.0102993 28.6155 0.0204523 28.6155 0.0306053V0.0331436ZM24.35 18.3289C24.2622 18.3263 24.1719 18.3238 24.0842 18.3213C24.0068 17.9329 23.9087 17.5471 23.8519 17.1562C23.4365 14.3007 23.0726 11.435 22.6056 8.58706C22.2211 6.24679 22.1669 6.25441 19.7619 6.30263C18.1568 6.33309 18.1233 6.41178 18.4278 7.9525C19.478 13.2752 20.5309 18.5954 21.5218 23.9283C21.9708 26.3396 21.9063 26.3523 24.3861 26.4107C24.4816 26.4107 24.5796 26.4107 24.6751 26.4107C25.4183 26.4158 25.8363 26.1264 26.0066 25.3446C26.7266 21.9992 27.5033 18.6639 28.2697 15.3261C28.3239 15.0926 28.4555 14.8743 28.5484 14.651C28.8503 15.0977 28.9664 15.4886 29.0542 15.8871C29.6477 18.5523 30.2128 21.2225 30.8321 23.8801C31.4488 26.5249 31.4721 26.5071 34.277 26.3853C34.9041 26.3574 35.1854 26.1163 35.3041 25.5071C36.073 21.5525 36.8781 17.6055 37.6574 13.656C38.0574 11.633 38.4393 9.6049 38.8032 7.5743C38.989 6.53362 38.8083 6.33563 37.722 6.30517C37.0768 6.2874 36.4317 6.30517 35.7866 6.31533C35.1673 6.32802 34.8757 6.65291 34.788 7.25194C34.5402 8.97795 34.2461 10.6964 33.9906 12.4224C33.6964 14.4047 33.4203 16.3897 33.1365 18.3746C32.881 18.1131 32.7804 17.8314 32.7133 17.5446C31.9624 14.2017 31.2192 10.8563 30.4657 7.51338C30.2102 6.37624 30.0399 6.27471 28.5923 6.28233C27.1549 6.28994 27.0053 6.39147 26.7446 7.54892C26.1976 9.99072 25.6479 12.4351 25.106 14.8794C24.8506 16.0292 24.6029 17.1791 24.3525 18.3314L24.35 18.3289ZM46.7691 26.3219C47.1871 26.3219 47.6103 26.3523 48.0258 26.3168C50.4566 26.1112 52.4384 24.5324 52.9545 22.4079C53.6022 19.7503 52.7222 17.5268 50.4437 16.179C49.7031 15.7399 48.898 15.4048 48.1264 15.0139C47.1845 14.5342 46.1911 14.1281 45.3266 13.5367C44.3538 12.8691 44.1731 11.8411 44.6221 10.7344C44.9963 9.81304 45.6595 9.32062 46.7046 9.35869C47.8916 9.3993 48.6064 9.85873 48.8825 11.1253C49.1199 12.2142 49.7211 12.5188 50.7301 12.4325C51.1791 12.3944 51.6333 12.4274 52.0849 12.4071C52.7635 12.3792 53.1067 12.0315 52.988 11.3563C52.7403 9.94757 52.219 8.68098 51.0346 7.75452C49.0451 6.19603 46.8181 5.96758 44.4622 6.65291C42.3565 7.26717 40.8753 8.59468 40.4831 10.7649C40.0495 13.1559 40.9269 15.0698 43.1126 16.3084C43.9203 16.7653 44.7615 17.1638 45.595 17.5725C46.4027 17.9685 47.2542 18.2807 48.0232 18.7375C49.1354 19.3975 49.4528 20.7656 48.9083 22.121C48.5109 23.1084 47.4736 23.5145 46.1524 23.3039C44.9834 23.1186 44.4725 22.3495 44.1577 21.3596C44.0725 21.088 44.1164 20.7199 43.9435 20.5448C43.6493 20.2453 43.2029 19.8391 42.87 19.8798C41.9694 19.9864 40.8959 19.3924 40.1889 20.3976C40.1063 20.5143 40.1037 20.7072 40.1192 20.8595C40.2766 22.352 40.7205 23.7176 41.9514 24.7151C43.35 25.8472 44.937 26.4513 46.7665 26.3244L46.7691 26.3219ZM3.95393 16.2171C3.95393 16.2171 3.97716 16.2171 3.99006 16.2171C3.99006 17.5496 3.94361 18.8822 4.00296 20.2123C4.07005 21.7378 4.5526 23.1338 5.59769 24.3065C7.51498 26.4589 9.98965 26.6671 12.6037 26.1645C14.7197 25.7584 16.2215 24.573 16.8176 22.4409C17.4369 20.2174 17.1763 19.9153 14.8693 19.8265C13.7829 19.7858 13.321 20.131 13.1456 21.2047C12.9082 22.6592 12.214 23.1287 10.898 23.2379C9.06842 23.3902 8.10333 22.5018 7.95882 20.5042C7.77045 17.9152 7.85044 15.3084 7.85818 12.7092C7.85818 12.1812 7.98721 11.633 8.15494 11.1253C8.56523 9.88665 9.45291 9.33331 10.8154 9.38661C12.1985 9.44246 12.8024 9.94503 13.1507 11.3411C13.4002 12.3344 14.035 12.8293 15.0551 12.8259C15.4086 12.8259 15.7647 12.8082 16.1183 12.8031C16.8073 12.7904 17.0576 12.4554 17.0601 11.7776C17.0679 9.33839 15.4938 7.29763 13.0243 6.61484C8.48008 5.3584 3.83523 7.77482 3.95393 13.0772C3.97716 14.123 3.95651 15.1713 3.95651 16.2171H3.95393ZM28.6929 36.7008V36.7059C24.3087 36.7059 19.9219 36.6703 15.5377 36.7211C13.1998 36.749 11.2463 38.7111 11.1457 40.9625C11.0425 43.3079 12.8024 45.3613 15.1738 45.6634C17.4498 45.9527 19.8651 44.346 20.1541 42.2545C20.2083 41.8661 19.9322 41.2493 19.6071 41.0387C19.0755 40.696 18.5646 41.0336 18.2678 41.5768C18.131 41.8281 18.0433 42.1073 17.8885 42.3459C17.3724 43.1429 16.6756 43.6657 15.6641 43.6099C14.6345 43.5515 13.912 43.0363 13.4913 42.1149C12.7301 40.4523 13.8965 38.7212 15.837 38.7162C20.9644 38.6984 26.0918 38.7162 31.2192 38.7212C34.6048 38.7238 37.9903 38.7136 41.3759 38.7441C42.6842 38.7568 43.5229 39.5081 43.7164 40.7087C43.9125 41.9245 43.2777 43.0363 42.1423 43.4602C41.0224 43.879 39.9308 43.4957 39.229 42.422C39.0199 42.1022 38.9322 41.6605 38.6535 41.4448C38.3181 41.1884 37.8278 40.9854 37.4252 41.0133C37.2239 41.0285 36.9246 41.6123 36.9143 41.9448C36.8627 43.9221 39.2315 45.8613 41.4559 45.7167C44.0751 45.5466 45.9562 43.6175 45.9227 41.1376C45.8891 38.6222 44.0209 36.7465 41.3604 36.7135C37.1362 36.6627 32.912 36.7008 28.6877 36.7008H28.6929ZM28.5277 35.4494V35.4545C31.8488 35.4545 35.1673 35.4545 38.4884 35.4545C39.8431 35.4545 41.1953 35.4494 42.55 35.4418C43.2029 35.4393 43.5796 35.1575 43.5745 34.4671C43.5693 33.7818 43.1848 33.5051 42.5423 33.4772C42.3823 33.4696 42.2197 33.4721 42.0597 33.4721C33.4539 33.467 24.848 33.4645 16.2395 33.462C15.6589 33.462 15.0758 33.4467 14.5003 33.4975C13.8758 33.5533 13.4965 33.9036 13.4913 34.5534C13.4862 35.221 13.9274 35.4139 14.5055 35.4367C14.828 35.4494 15.1506 35.4494 15.4731 35.4494C19.8238 35.4494 24.1771 35.4494 28.5277 35.4494ZM29.5393 68.1244C31.5082 67.5203 31.6191 67.368 31.5572 65.5328C31.5469 65.2155 31.5546 64.8983 31.5546 64.581C31.5521 59.6999 31.5546 54.8188 31.5417 49.9378C31.5417 48.859 31.3018 48.6712 30.3289 48.7169C29.4748 48.7575 29.4645 49.321 29.4619 49.9124C29.449 55.7123 29.4361 61.5122 29.4309 67.3121C29.4309 67.5533 29.4928 67.7944 29.5367 68.1218L29.5393 68.1244ZM27.4414 68.0609C27.462 67.7436 27.5033 67.4416 27.5033 67.1421C27.5085 61.3726 27.5033 55.6006 27.5162 49.8312C27.5162 49.1357 27.2891 48.7676 26.5201 48.7626C25.8208 48.7575 25.4054 48.9631 25.4054 49.7169C25.4054 50.2881 25.3615 50.8566 25.3641 51.4277C25.3899 56.2453 25.4234 61.0655 25.4492 65.8831C25.457 67.434 25.6892 67.7005 27.4414 68.0635V68.0609ZM23.5887 65.878C23.5887 65.4541 23.5887 65.1495 23.5887 64.845C23.5732 61.6721 23.5526 58.4993 23.5397 55.329C23.532 53.4888 23.5294 51.6486 23.5294 49.8083C23.5294 49.2017 23.3745 48.7702 22.634 48.7245C21.6611 48.6661 21.4186 48.859 21.416 49.9302C21.4005 54.3087 21.4082 58.6871 21.385 63.0631C21.3773 64.746 21.6921 65.213 23.5887 65.878ZM33.6526 65.6547C35.2989 65.2333 35.6473 64.7383 35.6369 63.2078C35.6086 58.776 35.6086 54.3442 35.6163 49.9124C35.6163 49.1814 35.495 48.6991 34.5764 48.6991C33.7171 48.6991 33.5648 49.1281 33.5674 49.8312C33.5751 54.9585 33.5674 60.0857 33.5674 65.213C33.5674 65.3577 33.6216 65.5049 33.6526 65.6547ZM28.6284 40.4802C28.6284 40.4802 28.6284 40.5005 28.6284 40.5107C26.4376 40.5107 24.2493 40.498 22.0585 40.5259C21.7489 40.531 21.2457 40.6757 21.1734 40.8762C21.0495 41.2214 21.0418 41.8052 21.2611 42.0235C21.5476 42.3103 22.0972 42.4626 22.5385 42.4677C25.5344 42.5032 28.5303 42.4829 31.5263 42.4804C32.6539 42.4804 33.7816 42.4728 34.9092 42.4804C35.7582 42.4855 36.0008 42.0007 36.0318 41.262C36.0627 40.4879 35.5415 40.4828 35.0073 40.4828C32.881 40.4777 30.7573 40.4828 28.631 40.4828L28.6284 40.4802ZM28.6129 30.4008C26.4582 30.4008 24.3035 30.4008 22.1488 30.4008C21.4805 30.4008 21.0237 30.6293 21.0212 31.3831C21.0212 32.1192 21.5063 32.2893 22.1075 32.2893C26.4169 32.2918 30.7263 32.2842 35.0383 32.2842C35.7247 32.2842 36.0214 31.9517 36.0395 31.2943C36.0601 30.5455 35.606 30.3958 34.9841 30.3983C32.8604 30.4034 30.7392 30.3983 28.6155 30.3983L28.6129 30.4008ZM28.5923 43.8536C28.5923 43.8866 28.5923 43.917 28.5923 43.95C26.982 43.95 25.3693 43.9424 23.759 43.9551C23.2275 43.9602 22.7965 44.1379 22.7914 44.7674C22.7836 45.3486 23.0288 45.7446 23.6532 45.836C23.8132 45.8588 23.9732 45.8893 24.1332 45.8893C27.0982 45.8842 30.0631 45.8664 33.0281 45.869C33.8125 45.869 34.2435 45.5669 34.2254 44.7496C34.2074 43.8688 33.588 43.8536 32.9455 43.8536C31.4953 43.8536 30.0451 43.8536 28.5948 43.8536H28.5923Z"/>
</mask>
<path d="M28.6155 0.0331436C37.131 0.0331436 45.6492 0.0255288 54.1647 0.0382201C56.1672 0.0407584 56.9903 0.748931 56.9774 2.70593C56.9207 11.8081 57.2587 20.9179 56.4588 30.0074C55.8446 36.9673 54.2112 43.6353 50.7533 49.8134C46.093 58.1465 39.5825 64.6165 31.0979 69.2209C29.2271 70.2362 27.8026 70.2844 25.9447 69.2209C19.9606 65.7993 14.6887 61.6341 10.5212 56.1489C5.31642 49.2956 2.04954 41.6935 0.960586 33.1828C0.147738 26.8371 -0.0199921 20.4712 0.000651667 14.0925C0.013554 10.6659 0.000651667 7.23925 0.00323214 3.81261C0.00323214 3.30495 0.0238759 2.7973 0.0625829 2.29219C0.178704 0.77939 0.847046 0.109291 2.39017 0.0661409C4.25843 0.0128376 6.12927 0.00522279 8.00011 0.00268454C14.8719 -0.00239197 21.7437 0.000146283 28.6155 0.000146283C28.6155 0.0102993 28.6155 0.0204523 28.6155 0.0306053V0.0331436ZM24.35 18.3289C24.2622 18.3263 24.1719 18.3238 24.0842 18.3213C24.0068 17.9329 23.9087 17.5471 23.8519 17.1562C23.4365 14.3007 23.0726 11.435 22.6056 8.58706C22.2211 6.24679 22.1669 6.25441 19.7619 6.30263C18.1568 6.33309 18.1233 6.41178 18.4278 7.9525C19.478 13.2752 20.5309 18.5954 21.5218 23.9283C21.9708 26.3396 21.9063 26.3523 24.3861 26.4107C24.4816 26.4107 24.5796 26.4107 24.6751 26.4107C25.4183 26.4158 25.8363 26.1264 26.0066 25.3446C26.7266 21.9992 27.5033 18.6639 28.2697 15.3261C28.3239 15.0926 28.4555 14.8743 28.5484 14.651C28.8503 15.0977 28.9664 15.4886 29.0542 15.8871C29.6477 18.5523 30.2128 21.2225 30.8321 23.8801C31.4488 26.5249 31.4721 26.5071 34.277 26.3853C34.9041 26.3574 35.1854 26.1163 35.3041 25.5071C36.073 21.5525 36.8781 17.6055 37.6574 13.656C38.0574 11.633 38.4393 9.6049 38.8032 7.5743C38.989 6.53362 38.8083 6.33563 37.722 6.30517C37.0768 6.2874 36.4317 6.30517 35.7866 6.31533C35.1673 6.32802 34.8757 6.65291 34.788 7.25194C34.5402 8.97795 34.2461 10.6964 33.9906 12.4224C33.6964 14.4047 33.4203 16.3897 33.1365 18.3746C32.881 18.1131 32.7804 17.8314 32.7133 17.5446C31.9624 14.2017 31.2192 10.8563 30.4657 7.51338C30.2102 6.37624 30.0399 6.27471 28.5923 6.28233C27.1549 6.28994 27.0053 6.39147 26.7446 7.54892C26.1976 9.99072 25.6479 12.4351 25.106 14.8794C24.8506 16.0292 24.6029 17.1791 24.3525 18.3314L24.35 18.3289ZM46.7691 26.3219C47.1871 26.3219 47.6103 26.3523 48.0258 26.3168C50.4566 26.1112 52.4384 24.5324 52.9545 22.4079C53.6022 19.7503 52.7222 17.5268 50.4437 16.179C49.7031 15.7399 48.898 15.4048 48.1264 15.0139C47.1845 14.5342 46.1911 14.1281 45.3266 13.5367C44.3538 12.8691 44.1731 11.8411 44.6221 10.7344C44.9963 9.81304 45.6595 9.32062 46.7046 9.35869C47.8916 9.3993 48.6064 9.85873 48.8825 11.1253C49.1199 12.2142 49.7211 12.5188 50.7301 12.4325C51.1791 12.3944 51.6333 12.4274 52.0849 12.4071C52.7635 12.3792 53.1067 12.0315 52.988 11.3563C52.7403 9.94757 52.219 8.68098 51.0346 7.75452C49.0451 6.19603 46.8181 5.96758 44.4622 6.65291C42.3565 7.26717 40.8753 8.59468 40.4831 10.7649C40.0495 13.1559 40.9269 15.0698 43.1126 16.3084C43.9203 16.7653 44.7615 17.1638 45.595 17.5725C46.4027 17.9685 47.2542 18.2807 48.0232 18.7375C49.1354 19.3975 49.4528 20.7656 48.9083 22.121C48.5109 23.1084 47.4736 23.5145 46.1524 23.3039C44.9834 23.1186 44.4725 22.3495 44.1577 21.3596C44.0725 21.088 44.1164 20.7199 43.9435 20.5448C43.6493 20.2453 43.2029 19.8391 42.87 19.8798C41.9694 19.9864 40.8959 19.3924 40.1889 20.3976C40.1063 20.5143 40.1037 20.7072 40.1192 20.8595C40.2766 22.352 40.7205 23.7176 41.9514 24.7151C43.35 25.8472 44.937 26.4513 46.7665 26.3244L46.7691 26.3219ZM3.95393 16.2171C3.95393 16.2171 3.97716 16.2171 3.99006 16.2171C3.99006 17.5496 3.94361 18.8822 4.00296 20.2123C4.07005 21.7378 4.5526 23.1338 5.59769 24.3065C7.51498 26.4589 9.98965 26.6671 12.6037 26.1645C14.7197 25.7584 16.2215 24.573 16.8176 22.4409C17.4369 20.2174 17.1763 19.9153 14.8693 19.8265C13.7829 19.7858 13.321 20.131 13.1456 21.2047C12.9082 22.6592 12.214 23.1287 10.898 23.2379C9.06842 23.3902 8.10333 22.5018 7.95882 20.5042C7.77045 17.9152 7.85044 15.3084 7.85818 12.7092C7.85818 12.1812 7.98721 11.633 8.15494 11.1253C8.56523 9.88665 9.45291 9.33331 10.8154 9.38661C12.1985 9.44246 12.8024 9.94503 13.1507 11.3411C13.4002 12.3344 14.035 12.8293 15.0551 12.8259C15.4086 12.8259 15.7647 12.8082 16.1183 12.8031C16.8073 12.7904 17.0576 12.4554 17.0601 11.7776C17.0679 9.33839 15.4938 7.29763 13.0243 6.61484C8.48008 5.3584 3.83523 7.77482 3.95393 13.0772C3.97716 14.123 3.95651 15.1713 3.95651 16.2171H3.95393ZM28.6929 36.7008V36.7059C24.3087 36.7059 19.9219 36.6703 15.5377 36.7211C13.1998 36.749 11.2463 38.7111 11.1457 40.9625C11.0425 43.3079 12.8024 45.3613 15.1738 45.6634C17.4498 45.9527 19.8651 44.346 20.1541 42.2545C20.2083 41.8661 19.9322 41.2493 19.6071 41.0387C19.0755 40.696 18.5646 41.0336 18.2678 41.5768C18.131 41.8281 18.0433 42.1073 17.8885 42.3459C17.3724 43.1429 16.6756 43.6657 15.6641 43.6099C14.6345 43.5515 13.912 43.0363 13.4913 42.1149C12.7301 40.4523 13.8965 38.7212 15.837 38.7162C20.9644 38.6984 26.0918 38.7162 31.2192 38.7212C34.6048 38.7238 37.9903 38.7136 41.3759 38.7441C42.6842 38.7568 43.5229 39.5081 43.7164 40.7087C43.9125 41.9245 43.2777 43.0363 42.1423 43.4602C41.0224 43.879 39.9308 43.4957 39.229 42.422C39.0199 42.1022 38.9322 41.6605 38.6535 41.4448C38.3181 41.1884 37.8278 40.9854 37.4252 41.0133C37.2239 41.0285 36.9246 41.6123 36.9143 41.9448C36.8627 43.9221 39.2315 45.8613 41.4559 45.7167C44.0751 45.5466 45.9562 43.6175 45.9227 41.1376C45.8891 38.6222 44.0209 36.7465 41.3604 36.7135C37.1362 36.6627 32.912 36.7008 28.6877 36.7008H28.6929ZM28.5277 35.4494V35.4545C31.8488 35.4545 35.1673 35.4545 38.4884 35.4545C39.8431 35.4545 41.1953 35.4494 42.55 35.4418C43.2029 35.4393 43.5796 35.1575 43.5745 34.4671C43.5693 33.7818 43.1848 33.5051 42.5423 33.4772C42.3823 33.4696 42.2197 33.4721 42.0597 33.4721C33.4539 33.467 24.848 33.4645 16.2395 33.462C15.6589 33.462 15.0758 33.4467 14.5003 33.4975C13.8758 33.5533 13.4965 33.9036 13.4913 34.5534C13.4862 35.221 13.9274 35.4139 14.5055 35.4367C14.828 35.4494 15.1506 35.4494 15.4731 35.4494C19.8238 35.4494 24.1771 35.4494 28.5277 35.4494ZM29.5393 68.1244C31.5082 67.5203 31.6191 67.368 31.5572 65.5328C31.5469 65.2155 31.5546 64.8983 31.5546 64.581C31.5521 59.6999 31.5546 54.8188 31.5417 49.9378C31.5417 48.859 31.3018 48.6712 30.3289 48.7169C29.4748 48.7575 29.4645 49.321 29.4619 49.9124C29.449 55.7123 29.4361 61.5122 29.4309 67.3121C29.4309 67.5533 29.4928 67.7944 29.5367 68.1218L29.5393 68.1244ZM27.4414 68.0609C27.462 67.7436 27.5033 67.4416 27.5033 67.1421C27.5085 61.3726 27.5033 55.6006 27.5162 49.8312C27.5162 49.1357 27.2891 48.7676 26.5201 48.7626C25.8208 48.7575 25.4054 48.9631 25.4054 49.7169C25.4054 50.2881 25.3615 50.8566 25.3641 51.4277C25.3899 56.2453 25.4234 61.0655 25.4492 65.8831C25.457 67.434 25.6892 67.7005 27.4414 68.0635V68.0609ZM23.5887 65.878C23.5887 65.4541 23.5887 65.1495 23.5887 64.845C23.5732 61.6721 23.5526 58.4993 23.5397 55.329C23.532 53.4888 23.5294 51.6486 23.5294 49.8083C23.5294 49.2017 23.3745 48.7702 22.634 48.7245C21.6611 48.6661 21.4186 48.859 21.416 49.9302C21.4005 54.3087 21.4082 58.6871 21.385 63.0631C21.3773 64.746 21.6921 65.213 23.5887 65.878ZM33.6526 65.6547C35.2989 65.2333 35.6473 64.7383 35.6369 63.2078C35.6086 58.776 35.6086 54.3442 35.6163 49.9124C35.6163 49.1814 35.495 48.6991 34.5764 48.6991C33.7171 48.6991 33.5648 49.1281 33.5674 49.8312C33.5751 54.9585 33.5674 60.0857 33.5674 65.213C33.5674 65.3577 33.6216 65.5049 33.6526 65.6547ZM28.6284 40.4802C28.6284 40.4802 28.6284 40.5005 28.6284 40.5107C26.4376 40.5107 24.2493 40.498 22.0585 40.5259C21.7489 40.531 21.2457 40.6757 21.1734 40.8762C21.0495 41.2214 21.0418 41.8052 21.2611 42.0235C21.5476 42.3103 22.0972 42.4626 22.5385 42.4677C25.5344 42.5032 28.5303 42.4829 31.5263 42.4804C32.6539 42.4804 33.7816 42.4728 34.9092 42.4804C35.7582 42.4855 36.0008 42.0007 36.0318 41.262C36.0627 40.4879 35.5415 40.4828 35.0073 40.4828C32.881 40.4777 30.7573 40.4828 28.631 40.4828L28.6284 40.4802ZM28.6129 30.4008C26.4582 30.4008 24.3035 30.4008 22.1488 30.4008C21.4805 30.4008 21.0237 30.6293 21.0212 31.3831C21.0212 32.1192 21.5063 32.2893 22.1075 32.2893C26.4169 32.2918 30.7263 32.2842 35.0383 32.2842C35.7247 32.2842 36.0214 31.9517 36.0395 31.2943C36.0601 30.5455 35.606 30.3958 34.9841 30.3983C32.8604 30.4034 30.7392 30.3983 28.6155 30.3983L28.6129 30.4008ZM28.5923 43.8536C28.5923 43.8866 28.5923 43.917 28.5923 43.95C26.982 43.95 25.3693 43.9424 23.759 43.9551C23.2275 43.9602 22.7965 44.1379 22.7914 44.7674C22.7836 45.3486 23.0288 45.7446 23.6532 45.836C23.8132 45.8588 23.9732 45.8893 24.1332 45.8893C27.0982 45.8842 30.0631 45.8664 33.0281 45.869C33.8125 45.869 34.2435 45.5669 34.2254 44.7496C34.2074 43.8688 33.588 43.8536 32.9455 43.8536C31.4953 43.8536 30.0451 43.8536 28.5948 43.8536H28.5923Z" stroke="#7B7B7B" stroke-opacity="0.64" stroke-width="2" mask="url(#path-1-inside-1_786_1983)"/>
<path d="M24.3463 18.3288C24.5966 17.1789 24.8443 16.0266 25.0998 14.8767C25.6443 12.4324 26.1914 9.99059 26.7384 7.54625C26.999 6.39135 27.1487 6.28982 28.586 6.27966C30.0362 6.27205 30.204 6.37358 30.4594 7.51072C31.2129 10.8536 31.9535 14.199 32.707 17.5419C32.7715 17.8313 32.8722 18.113 33.1302 18.3719C33.4141 16.387 33.6902 14.4021 33.9844 12.4197C34.2424 10.6962 34.534 8.97529 34.7817 7.24928C34.8695 6.64771 35.1611 6.32281 35.7804 6.31266C36.4255 6.29997 37.0706 6.2822 37.7157 6.30251C38.8021 6.33297 38.9827 6.53095 38.7969 7.57163C38.4331 9.60224 38.0512 11.6278 37.6512 13.6533C36.8719 17.6054 36.0668 21.5523 35.2978 25.5044C35.1791 26.1136 34.8979 26.3573 34.2708 26.3826C31.4658 26.5045 31.4426 26.5222 30.8259 23.8774C30.2066 21.2198 29.6414 18.5496 29.0479 15.8844C28.9602 15.4859 28.8441 15.0925 28.5422 14.6483C28.4467 14.8742 28.3151 15.0899 28.2635 15.3235C27.4971 18.6613 26.7229 21.994 26.0004 25.342C25.8327 26.1237 25.412 26.4131 24.6689 26.408C24.5734 26.408 24.4753 26.408 24.3799 26.408C21.9 26.3496 21.9645 26.337 21.5155 23.9256C20.5246 18.5927 19.4718 13.2726 18.4216 7.94983C18.1171 6.41165 18.1532 6.33297 19.7557 6.29997C22.1607 6.25174 22.2148 6.24413 22.5993 8.5844C23.0664 11.4323 23.4302 14.298 23.8457 17.1535C23.9025 17.5444 24.0005 17.9303 24.0779 18.3186C24.1657 18.3211 24.256 18.3237 24.3437 18.3262L24.3463 18.3288Z" fill="white"/>
<path d="M46.768 26.3216C44.9358 26.4485 43.3489 25.8444 41.9528 24.7124C40.7219 23.7148 40.2755 22.3492 40.1207 20.8567C40.1052 20.7045 40.1078 20.5115 40.1904 20.3948C40.8974 19.3896 41.9709 19.9836 42.8715 19.877C43.2043 19.8389 43.6508 20.245 43.9449 20.542C44.1178 20.7171 44.0714 21.0852 44.1591 21.3568C44.4739 22.3467 44.9849 23.1158 46.1538 23.3011C47.475 23.5118 48.5124 23.1031 48.9098 22.1183C49.4542 20.7628 49.1368 19.3947 48.0247 18.7348C47.2557 18.2804 46.4041 17.9657 45.5964 17.5697C44.7629 17.1611 43.9191 16.7625 43.114 16.3057C40.9284 15.0695 40.051 13.1557 40.4845 10.7621C40.8768 8.5919 42.358 7.26439 44.4636 6.65014C46.8196 5.96481 49.0465 6.19325 51.0361 7.75174C52.2205 8.68074 52.7418 9.94479 52.9895 11.3535C53.1082 12.0287 52.765 12.3764 52.0863 12.4044C51.6347 12.4221 51.1806 12.3891 50.7316 12.4297C49.7226 12.516 49.1214 12.2115 48.884 11.1225C48.6079 9.85595 47.8931 9.39653 46.706 9.35592C45.661 9.32038 45.0004 9.81026 44.6236 10.7316C44.172 11.8409 44.3552 12.8663 45.3281 13.5339C46.19 14.1253 47.186 14.5314 48.1279 15.0111C48.8994 15.4046 49.702 15.7371 50.4451 16.1762C52.7237 17.524 53.6036 19.7475 52.9559 22.4051C52.4398 24.5296 50.4555 26.1084 48.0272 26.314C47.6118 26.3495 47.1886 26.3191 46.7706 26.3191L46.768 26.3216Z" fill="white"/>
<path d="M3.95305 16.217C3.95305 15.1713 3.97369 14.123 3.95047 13.0772C3.83177 7.77479 8.47661 5.36091 13.0208 6.61481C15.4903 7.2976 17.0618 9.33582 17.0567 11.7776C17.0567 12.4553 16.8038 12.7929 16.1148 12.8031C15.7613 12.8082 15.4052 12.8259 15.0517 12.8259C14.0315 12.8293 13.3967 12.3343 13.1473 11.341C12.7989 9.945 12.1951 9.43989 10.8119 9.38658C9.45203 9.33328 8.56177 9.88662 8.15148 11.1253C7.98374 11.6329 7.85472 12.1787 7.85472 12.7092C7.84956 15.3083 7.76699 17.9177 7.95536 20.5041C8.09987 22.5017 9.06496 23.3901 10.8945 23.2378C12.2106 23.1287 12.9047 22.6566 13.1421 21.2047C13.3176 20.131 13.7795 19.7858 14.8659 19.8264C17.1728 19.9153 17.4334 20.2173 16.8141 22.4408C16.2206 24.573 14.7162 25.7583 12.6002 26.1644C9.98619 26.6645 7.51152 26.4563 5.59423 24.3064C4.54914 23.1338 4.06659 21.7377 3.9995 20.2122C3.94015 18.8822 3.9866 17.5496 3.9866 16.217C3.97369 16.217 3.96337 16.217 3.95047 16.217H3.95305Z" fill="white"/>
<path d="M28.6919 36.7032C32.9161 36.7032 37.1403 36.6651 41.3645 36.7158C44.025 36.7463 45.8933 38.6246 45.9268 41.14C45.9604 43.6199 44.0792 45.549 41.46 45.719C39.2382 45.8637 36.8668 43.9245 36.9184 41.9472C36.9261 41.6147 37.2281 41.0283 37.4293 41.0157C37.8319 40.9852 38.3222 41.1883 38.6576 41.4472C38.9363 41.6629 39.0241 42.1046 39.2331 42.4244C39.9324 43.4981 41.0265 43.8813 42.1464 43.4625C43.2793 43.0386 43.9141 41.9269 43.7205 40.7111C43.527 39.5105 42.6883 38.7591 41.38 38.7465C37.9945 38.716 34.6089 38.7287 31.2233 38.7236C26.0959 38.7185 20.9685 38.7008 15.8411 38.7185C13.9006 38.7261 12.7342 40.4572 13.4955 42.1173C13.9161 43.0386 14.6386 43.5565 15.6682 43.6123C16.6824 43.6681 17.3765 43.1453 17.8926 42.3482C18.0474 42.1096 18.1326 41.8304 18.2719 41.5791C18.5713 41.0385 19.0822 40.6984 19.6112 41.041C19.9363 41.2517 20.2124 41.8685 20.1582 42.2569C19.8667 44.3484 17.4539 45.9551 15.1779 45.6657C12.8065 45.3637 11.0466 43.3102 11.1498 40.9649C11.2479 38.7109 13.2039 36.7488 15.5418 36.7235C19.926 36.6727 24.3128 36.7082 28.697 36.7082V36.7032H28.6919Z" fill="white"/>
<path d="M28.5267 35.4518C24.1761 35.4518 19.8228 35.4518 15.4721 35.4518C15.1496 35.4518 14.827 35.4518 14.5045 35.4391C13.9264 35.4162 13.4826 35.2233 13.4903 34.5558C13.4955 33.906 13.8748 33.5531 14.4993 33.4998C15.0747 33.4491 15.6579 33.4643 16.2385 33.4643C24.8444 33.4643 33.4503 33.4719 42.0587 33.4745C42.2187 33.4745 42.3813 33.4719 42.5413 33.4795C43.1812 33.5074 43.5683 33.7841 43.5735 34.4695C43.5786 35.1599 43.2019 35.4416 42.549 35.4441C41.1943 35.4518 39.8421 35.4568 38.4873 35.4568C35.1663 35.4568 31.8478 35.4568 28.5267 35.4568V35.4518Z" fill="white"/>
<path d="M29.5365 68.1267C29.4927 67.8018 29.4282 67.5607 29.4307 67.317C29.4359 61.5171 29.4488 55.7172 29.4617 49.9173C29.4617 49.3259 29.4746 48.7598 30.3287 48.7218C31.3016 48.6761 31.539 48.8639 31.5416 49.9427C31.5519 54.8237 31.5519 59.7048 31.5545 64.5859C31.5545 64.9031 31.5467 65.2204 31.557 65.5377C31.619 67.3703 31.508 67.5252 29.5391 68.1293L29.5365 68.1267Z" fill="white"/>
<path d="M27.4407 68.0632C25.6859 67.7002 25.4563 67.4337 25.4485 65.8828C25.4202 61.0652 25.3866 56.2451 25.3634 51.4275C25.3608 50.8564 25.4073 50.2878 25.4047 49.7167C25.4047 48.9628 25.8201 48.7572 26.5194 48.7623C27.2884 48.7674 27.5181 49.1354 27.5155 49.8309C27.5026 55.6004 27.5078 61.3723 27.5026 67.1418C27.5026 67.4439 27.4639 67.7459 27.4407 68.0607V68.0632Z" fill="white"/>
<path d="M23.5857 65.8804C21.689 65.2154 21.3742 64.7484 21.382 63.0655C21.4026 58.687 21.3975 54.3085 21.4129 49.9326C21.4155 48.8614 21.6581 48.6685 22.6309 48.7269C23.3741 48.7726 23.5263 49.2041 23.5263 49.8107C23.5263 51.651 23.5263 53.4912 23.5367 55.3314C23.5496 58.5042 23.5702 61.6771 23.5857 64.8473C23.5857 65.1519 23.5857 65.4565 23.5857 65.8804Z" fill="white"/>
<path d="M33.6496 65.657C33.6186 65.5072 33.5645 65.3625 33.5645 65.2153C33.5645 60.088 33.5748 54.9608 33.5645 49.8335C33.5645 49.1278 33.7167 48.7014 34.5734 48.7014C35.4895 48.7014 35.6133 49.1837 35.6133 49.9147C35.6056 54.3465 35.603 58.7783 35.634 63.2101C35.6443 64.7407 35.2959 65.2356 33.6496 65.657Z" fill="white"/>
<path d="M28.6223 40.4825C30.7486 40.4825 32.8723 40.48 34.9986 40.4825C35.5328 40.4825 36.054 40.4876 36.0231 41.2618C35.9921 42.0029 35.7495 42.4877 34.9006 42.4801C33.7729 42.4725 32.6452 42.4801 31.5176 42.4801C28.5216 42.4801 25.5257 42.5004 22.5298 42.4674C22.0911 42.4624 21.5389 42.3126 21.2525 42.0232C21.0331 41.805 21.0409 41.2212 21.1647 40.8759C21.237 40.6754 21.7376 40.5307 22.0498 40.5257C24.2406 40.4952 26.4289 40.5104 28.6197 40.5104C28.6197 40.5003 28.6197 40.4901 28.6197 40.48L28.6223 40.4825Z" fill="white"/>
<path d="M28.607 30.4058C30.7308 30.4058 32.8519 30.4083 34.9756 30.4058C35.6001 30.4058 36.0543 30.553 36.031 31.3018C36.013 31.9617 35.7162 32.2917 35.0298 32.2917C30.7204 32.2917 26.411 32.2993 22.0991 32.2968C21.4978 32.2968 21.0101 32.1242 21.0127 31.3906C21.0127 30.6367 21.472 30.4083 22.1404 30.4083C24.2951 30.4083 26.4498 30.4083 28.6044 30.4083L28.607 30.4058Z" fill="white"/>
<path d="M28.5887 43.8584C30.0389 43.8584 31.4892 43.8584 32.9394 43.8584C33.5819 43.8584 34.2038 43.8762 34.2193 44.7544C34.2348 45.5717 33.8064 45.8738 33.022 45.8738C30.057 45.8738 27.092 45.889 24.1271 45.8941C23.9671 45.8941 23.8071 45.8636 23.6471 45.8408C23.0226 45.7469 22.7801 45.3534 22.7852 44.7722C22.793 44.1427 23.2213 43.9625 23.7529 43.9599C25.3631 43.9472 26.9759 43.9549 28.5861 43.9549C28.5861 43.9219 28.5861 43.8914 28.5861 43.8584H28.5887Z" fill="white"/>
</g>
<defs>
<clipPath id="clip0_786_1983">
<rect width="57" height="70" fill="white"/>
</clipPath>
</defs>
</svg>
