<svg width="86" height="64" viewBox="0 0 86 64" fill="none" xmlns="http://www.w3.org/2000/svg">
<g clip-path="url(#clip0_786_2066)">
<path d="M2.976 11.1338C3.27731 11.6705 3.60664 12.1956 3.87758 12.7484C5.12016 15.2866 6.34173 17.8339 7.58198 20.3744C8.0281 21.2911 8.07481 21.3003 8.85493 20.5863C11.4662 18.2002 14.0658 15.8002 16.6865 13.4232C16.913 13.2183 17.2681 13.1492 17.5624 13.0156C17.5694 13.3334 17.6745 13.6881 17.5694 13.9668C16.3408 17.2259 15.5327 20.5702 15.3995 24.0573C15.3902 24.2876 15.3808 24.5179 15.3855 24.7483C15.3878 24.8588 15.4276 24.9694 15.4509 25.0707C16.7776 25.2066 17.3498 24.7621 17.4316 23.5483C18.221 11.8478 26.6902 2.47596 38.3757 0.373109C48.6877 -1.4833 59.6631 3.70359 64.6872 12.7622C66.5534 16.1272 67.6885 19.6765 67.8497 23.5206C67.9081 24.8841 68.7139 25.5383 70.6899 25.7479C70.5871 24.2738 70.6549 22.7974 70.3512 21.3993C69.807 18.875 69.0339 16.4013 68.3776 13.9C68.3168 13.6697 68.4056 13.4002 68.4266 13.1492C68.7116 13.209 69.0853 13.1745 69.2675 13.3426C71.9629 15.8071 74.6396 18.2923 77.3022 20.7913C77.8628 21.3187 78.1337 21.1875 78.4397 20.5425C79.7874 17.7027 81.1631 14.8743 82.5529 12.0551C82.686 11.7879 83.0013 11.6083 83.2326 11.3895C83.4358 11.6498 83.73 11.8801 83.8258 12.1726C86.3764 20.0358 86.7197 27.982 84.6573 36.0042C83.5152 40.4425 81.698 44.5998 79.3109 48.5269C78.8204 49.333 78.2786 49.3307 77.5685 49.0082C76.8795 48.695 76.1858 48.3887 75.5178 48.034C74.9339 47.723 74.5204 47.8267 74.072 48.315C72.451 50.0862 70.8651 51.8988 69.132 53.5571C65.3038 57.2147 60.7913 59.8334 55.7882 61.6046C47.3797 64.5804 38.8755 64.8061 30.3573 62.1321C22.7009 59.7275 16.4716 55.2799 11.7185 48.8793C11.207 48.1906 10.7375 48.004 9.96905 48.3426C9.38513 48.5983 8.74282 48.7341 8.17057 49.0105C7.51658 49.3238 7.11718 49.1234 6.81821 48.5499C5.71343 46.4286 4.47552 44.3626 3.53423 42.1722C0.474483 35.0575 -0.69336 27.6342 0.404413 19.9575C0.78513 17.295 1.60028 14.6923 2.24026 12.0666C2.31734 11.7511 2.52755 11.4655 2.67704 11.1661C2.77747 11.1546 2.87557 11.143 2.976 11.1315V11.1338ZM17.2447 25.7064C16.8874 25.8054 16.6047 25.8607 16.3408 25.9621C12.7765 27.3187 9.2193 28.6891 5.65037 30.0319C5.13418 30.2276 5.00572 30.5109 5.11549 31.02C5.89328 34.6614 6.86492 38.2452 8.47655 41.6241C12.9377 50.9798 19.9705 57.6039 29.9368 61.0058C37.348 63.537 44.8759 63.6476 52.4342 61.6553C58.1029 60.1605 63.1737 57.5164 67.6138 53.723C74.3359 47.9833 78.344 40.6429 80.6002 32.2683C80.7918 31.5566 80.654 31.1927 79.9205 30.8864C76.6202 29.5021 73.3479 28.0511 70.0616 26.6346C69.4356 26.3651 68.784 26.1486 68.1113 25.893C66.8057 42.7365 53.2353 50.2059 42.2272 50.0194C29.8574 49.8098 17.8427 40.302 17.2447 25.7064ZM54.9544 26.6415L54.6998 26.8903C54.4452 26.6922 54.1673 26.5148 53.9407 26.2914C51.605 23.9974 49.2833 21.6873 46.929 19.4117C46.7351 19.2251 46.3264 19.2573 46.018 19.1859C46.0227 19.4715 45.9924 19.7617 46.0437 20.0381C46.0788 20.2247 46.2329 20.3905 46.3357 20.5656C47.8259 23.106 49.323 25.6419 50.7992 28.1893C51.0211 28.5716 51.1472 29.0092 51.3177 29.4215C51.2126 29.4745 51.1098 29.5298 51.0047 29.5827C50.8342 29.357 50.638 29.1474 50.4979 28.9033C48.8536 26.0864 47.2326 23.2558 45.5602 20.455C45.4061 20.1971 44.9273 20.128 44.5979 19.9736C44.5606 20.2777 44.4298 20.607 44.5022 20.8834C45.1702 23.4746 45.9013 26.0519 46.5482 28.6499C46.7234 29.357 46.9897 29.7278 47.7651 29.6403C48.3654 29.5735 48.7975 29.7624 49.0988 30.3612C49.2343 30.6284 49.7131 30.8656 50.0424 30.8772C51.6167 30.9278 53.1956 30.9301 54.7699 30.8772C55.5593 30.8518 56.0895 30.9693 56.2694 31.8583C56.3885 32.4411 56.7108 32.9823 56.9444 33.5397C58.0445 36.1585 59.1469 38.775 60.2704 41.449C60.4246 41.3269 60.546 41.2532 60.6371 41.1542C64.6265 36.7711 66.8641 31.6695 67.0065 25.7502C67.191 18.0067 64.1733 11.6498 58.2897 6.58494C58.0749 6.39837 57.5493 6.31085 57.3158 6.43753C54.284 8.10277 51.2803 9.81407 48.2696 11.5185C47.8539 11.7534 47.7231 12.4259 48.0805 12.5595C48.3467 12.6586 48.7088 12.5872 49.0054 12.5112C52.1352 11.6935 55.258 10.8551 58.3855 10.0329C58.6821 9.95457 58.9951 9.93614 59.3011 9.89008C59.3338 9.99142 59.3642 10.0951 59.3969 10.1964C59.0535 10.3415 58.7218 10.5304 58.3668 10.6271C55.3258 11.4402 52.2824 12.2371 49.239 13.0363C48.7998 13.1515 48.2533 13.1538 48.3631 13.8447C48.4728 14.538 49.0381 14.2708 49.4071 14.2731C52.6187 14.2916 55.8279 14.2754 59.0395 14.28C59.3618 14.28 59.6818 14.3514 60.0041 14.3906L59.9948 14.7384C56.1386 14.9157 52.2707 14.7131 48.4518 14.8259C48.2159 15.6459 48.5009 15.8877 49.2413 16.0697C52.4108 16.8528 55.5547 17.728 58.7055 18.5825C58.9531 18.6493 59.1726 18.8059 59.4062 18.9234L59.3315 19.1629C58.9788 19.1122 58.6144 19.0961 58.2734 19.004C55.8513 18.3637 53.4362 17.6957 51.0117 17.0601C50.1966 16.8458 49.3651 16.6823 48.5336 16.5441C48.3631 16.5165 48.0244 16.6731 47.9987 16.7906C47.9567 16.9979 48.0571 17.2673 48.1762 17.4654C48.2533 17.5944 48.4682 17.6382 48.62 17.7257C51.3271 19.255 54.0388 20.7821 56.7412 22.3252C57.1055 22.5325 57.4185 22.8274 57.7549 23.083C57.6918 23.1774 57.6311 23.2742 57.568 23.3686C57.2971 23.2581 57.0098 23.1774 56.7575 23.0346C53.9267 21.427 51.1052 19.8055 48.2696 18.2048C47.9543 18.0274 47.5152 17.5921 47.2513 18.1679C47.1438 18.4005 47.3564 18.9072 47.583 19.1353C49.8089 21.3763 52.0698 23.5828 54.3121 25.8077C54.5597 26.0542 54.7442 26.3605 54.9567 26.6392L54.9544 26.6415ZM30.2755 26.8004L30.0466 26.6024C30.2405 26.326 30.3993 26.015 30.6375 25.7801C32.8868 23.5621 35.1594 21.3671 37.39 19.133C37.6399 18.8819 37.8852 18.313 37.7637 18.0804C37.4601 17.5023 37.0116 17.9721 36.666 18.1679C33.8561 19.7571 31.058 21.3625 28.2505 22.954C28.0146 23.0876 27.7343 23.1452 27.475 23.2373C27.419 23.136 27.3629 23.0369 27.3069 22.9356C27.7086 22.6615 28.094 22.3575 28.5167 22.118C31.1444 20.6232 33.7884 19.156 36.4044 17.6428C36.6893 17.4769 36.8411 17.0854 37.056 16.7998C36.7103 16.7169 36.3693 16.6109 36.019 16.5649C35.8578 16.5441 35.6803 16.6363 35.5121 16.68C32.5808 17.4516 29.6519 18.2301 26.7183 18.9925C26.3656 19.0846 25.9872 19.0823 25.6228 19.1261C25.6041 19.0339 25.5878 18.9418 25.5691 18.8474C25.9615 18.7023 26.3469 18.5272 26.7486 18.419C29.7874 17.6013 32.8261 16.7814 35.8742 15.9983C36.5772 15.8163 36.7897 15.5008 36.4744 14.7937C36.1825 14.7937 35.8952 14.7937 35.6079 14.7937C32.4267 14.8029 29.2431 14.8167 26.0619 14.8144C25.7163 14.8144 25.3706 14.7154 25.0226 14.6601C25.0366 14.5541 25.0506 14.4459 25.0669 14.3399C25.3706 14.3215 25.6742 14.287 25.9802 14.287C29.075 14.2823 32.1698 14.3008 35.2622 14.2662C35.7387 14.2616 36.5281 14.6417 36.6379 13.8194C36.7524 12.9672 35.8695 13.0985 35.3813 12.9649C32.429 12.1611 29.4604 11.4148 26.5034 10.6317C26.1787 10.5465 25.8821 10.3484 25.5738 10.2033C25.6158 10.0836 25.6579 9.96609 25.6999 9.84632C29.437 10.8275 33.1741 11.8087 36.9089 12.7899C36.9953 12.7185 37.0794 12.6494 37.1658 12.578C37.028 12.2463 36.9859 11.7534 36.736 11.6106C33.7674 9.89469 30.773 8.22254 27.7647 6.57342C27.5521 6.45596 27.0803 6.52275 26.8864 6.68628C23.6632 9.38567 21.2294 12.6793 19.8256 16.6063C16.6281 25.5498 18.3098 33.648 24.4386 40.8939C24.5741 41.0552 24.7586 41.1772 24.9945 41.3822C26.3819 38.054 27.7483 34.8479 29.0423 31.6119C29.2712 31.0384 29.5468 30.8818 30.1167 30.891C31.7517 30.9186 33.3866 30.8749 35.0193 30.9117C35.7036 30.9278 36.1638 30.7689 36.4861 30.1125C36.6099 29.8614 37.0957 29.7969 37.3923 29.6081C37.696 29.4146 38.1421 29.2234 38.2239 28.9447C38.9946 26.2914 39.714 23.622 40.4054 20.9456C40.4801 20.6554 40.3984 20.1464 40.1952 20.0013C39.6837 19.6374 39.5178 20.1809 39.324 20.5103C37.9015 22.9218 36.4884 25.3402 35.066 27.7517C34.711 28.3528 34.3279 28.9355 33.9589 29.5275C33.8491 29.4814 33.737 29.4353 33.6272 29.3893C33.7463 29.0599 33.8188 28.7029 33.9939 28.4035C35.5939 25.6603 37.2242 22.9333 38.8054 20.1809C38.9643 19.9045 38.8545 19.4761 38.8685 19.1191C38.5298 19.2435 38.1047 19.2781 37.8688 19.5061C35.6172 21.6803 33.4007 23.8891 31.1631 26.0795C30.8921 26.3467 30.5698 26.5632 30.2708 26.8027L30.2755 26.8004ZM52.252 38.2682C52.0488 38.2406 51.9857 38.2452 51.9367 38.2222C51.8316 38.1715 51.7311 38.1139 51.6354 38.0471C49.2203 36.4095 46.6907 36.3635 44.3644 38.008C43.0798 38.9178 42.2599 38.8164 41.0267 38.0195C38.684 36.504 36.1731 36.3335 33.6693 37.7846C33.5128 37.8767 33.3189 37.9066 33.1227 37.9734C32.9662 35.3984 34.9913 33.6802 35.6172 31.3654C33.8281 31.3654 32.1394 31.3931 30.4507 31.3516C29.7803 31.3355 29.4744 31.5935 29.2431 32.19C28.5214 34.0418 27.739 35.8683 26.9799 37.7063C26.4567 38.9707 25.9358 40.2352 25.3472 41.6655H59.8196C59.7986 41.5573 59.7916 41.4421 59.7495 41.3408C58.4135 38.1508 57.0845 34.9585 55.7088 31.7846C55.613 31.5635 55.1856 31.3724 54.903 31.3562C53.9711 31.3102 53.0368 31.3539 52.1025 31.3562C51.3084 31.3608 50.5142 31.3562 49.636 31.3562C50.4558 33.7792 52.2006 35.684 52.252 38.2636V38.2682ZM83.0013 13.0985C82.4501 14.2294 81.8989 15.3603 81.3453 16.4912C80.4834 18.2508 79.6356 20.0197 78.748 21.7679C78.3463 22.5579 78.0473 22.5878 77.3396 22.0258C77.2041 21.9176 77.0804 21.7932 76.9542 21.6757C74.8194 19.7157 72.6846 17.7556 70.5474 15.7979C70.3769 15.6436 70.1807 15.5146 69.9985 15.3764C70.0102 15.9176 70.162 16.346 70.2928 16.7791C71.1547 19.612 71.5167 22.5141 71.4817 25.4669C71.477 25.916 71.5004 26.2592 72.0423 26.4826C75.1604 27.7747 78.2505 29.1267 81.3663 30.4257C81.9129 30.6538 81.9643 30.9578 81.8124 31.4345C80.6796 35.0437 79.9532 38.7358 79.4604 42.4786C79.2502 44.077 78.9979 45.6685 78.7644 47.2647C85.1291 36.4902 86.8459 25.1398 83.0013 13.1008V13.0985ZM2.9036 12.7899C0.978992 18.7437 0.511855 24.587 1.22891 30.5478C1.85721 35.7623 5.38877 45.6939 7.36943 47.2463C6.73412 43.644 6.18057 40.2398 5.52424 36.8564C5.09214 34.6268 4.51989 32.4226 3.98969 30.2138C3.88225 29.7624 3.98969 29.5574 4.44749 29.387C7.58665 28.2215 10.7095 27.01 13.851 25.8515C14.3812 25.6557 14.5587 25.4116 14.5423 24.8542C14.4536 21.9498 14.9581 19.1238 15.8083 16.3507C15.904 16.0374 15.9764 15.7173 16.0605 15.3994C15.7078 15.4685 15.5046 15.6113 15.3224 15.7771C13.1479 17.781 10.9781 19.7894 8.80121 21.7909C8.00708 22.521 7.64738 22.4773 7.14988 21.5168C6.53793 20.3399 5.98904 19.1307 5.40979 17.9376C4.60865 16.2885 3.80751 14.6393 2.90593 12.7899H2.9036ZM42.6733 31.5359C41.2392 30.3313 39.5132 30.0895 37.7427 30.0595C37.3923 30.0549 36.8575 30.23 36.7173 30.4879C35.7107 32.3236 34.7834 34.2007 33.7533 36.2161C34.2602 36.0687 34.6456 35.9834 35.0099 35.8452C36.1684 35.403 37.376 35.2994 38.5275 35.6794C39.7304 36.0779 40.9006 36.6168 42.0053 37.2341C42.622 37.5796 42.9606 37.5588 43.5259 37.1443C45.7564 35.5021 48.1786 34.9424 50.8226 36.1815C50.9907 36.2598 51.1776 36.3036 51.4438 36.3911C51.3995 36.1861 51.3971 36.0733 51.3528 35.9788C50.4629 34.1362 49.5823 32.2914 48.6597 30.4672C48.5593 30.2668 48.2159 30.0872 47.9707 30.0687C46.0788 29.9259 44.3293 30.3474 42.6757 31.5336L42.6733 31.5359ZM58.1356 43.5242C58.1029 43.4344 58.0725 43.3446 58.0398 43.2571C55.8583 43.2571 53.6791 43.2548 51.4976 43.2617C51.3644 43.2617 51.1449 43.3077 51.1098 43.3929C50.7361 44.2751 49.935 44.1231 49.2343 44.1415C47.8936 44.1783 46.5506 44.1622 45.2099 44.1645C44.612 44.1645 44.014 44.1645 43.3484 44.1645C43.3484 45.5511 43.3881 46.8133 43.3343 48.0708C43.2993 48.8516 43.5609 49.0428 44.3434 48.976C49.2039 48.5568 53.581 46.9169 57.4909 44.0425C57.7152 43.8789 57.923 43.6947 58.1403 43.5196L58.1356 43.5242ZM26.6949 43.2087C27.2928 43.6348 27.7553 43.9572 28.2108 44.2912C31.8311 46.9491 35.8835 48.4785 40.375 48.9322C41.1808 49.0128 41.4027 48.7963 41.356 48.0271C41.2953 47.0228 41.3 46.0117 41.356 45.0075C41.3934 44.3327 41.2042 44.107 40.4871 44.13C38.6793 44.1853 36.8692 44.1807 35.0637 44.13C34.6596 44.1185 34.2532 43.8421 33.8725 43.6463C33.5805 43.4966 33.3283 43.1281 33.0503 43.1189C31.1841 43.0567 29.3179 43.0636 27.4517 43.059C27.2648 43.059 27.078 43.1327 26.6972 43.211L26.6949 43.2087ZM57.3368 5.7051C56.1759 5.00031 55.202 4.38535 54.1976 3.82566C54.0505 3.74274 53.6814 3.84869 53.5366 3.98919C51.4672 6.00682 49.4118 8.03828 47.3821 10.0951C47.1929 10.2862 47.1999 10.6686 47.1182 10.9634C47.4311 10.9703 47.7978 11.0855 48.0431 10.9634C49.0801 10.4475 50.0868 9.86935 51.0958 9.29354C53.1045 8.14653 55.1062 6.99031 57.3391 5.7051H57.3368ZM27.802 5.85942C28.3883 6.18648 28.79 6.40759 29.1894 6.6333C31.7353 8.08204 34.2719 9.5469 36.8341 10.9657C37.1191 11.1223 37.5442 11.0302 37.9039 11.0555C37.7871 10.7377 37.7567 10.3323 37.5372 10.1112C35.5658 8.11889 33.5665 6.15193 31.5508 4.20339C31.3733 4.03295 30.9225 3.90397 30.7426 4.00531C29.792 4.54427 28.8858 5.16384 27.802 5.85942ZM42.7995 30.7205C43.7501 30.3889 44.6306 30.0296 45.5416 29.7877C46.1208 29.6334 46.2119 29.3685 46.0718 28.8618C45.357 26.2845 44.6727 23.698 43.9346 21.1276C43.8505 20.8374 43.5095 20.6209 43.2853 20.3698C43.1078 20.6784 42.7831 20.9871 42.7784 21.298C42.7387 24.1724 42.7551 27.0492 42.7574 29.9259C42.7574 30.1747 42.7831 30.4257 42.8018 30.7228L42.7995 30.7205ZM42.1572 30.4856C42.1572 30.0434 42.1572 29.6772 42.1572 29.311C42.1478 26.6369 42.1408 23.9628 42.1315 21.2888C42.1315 21.146 42.1805 20.9663 42.1128 20.865C41.9866 20.6761 41.8045 20.4251 41.6199 20.402C41.4518 20.3813 41.1271 20.5955 41.0804 20.7637C40.3073 23.5045 39.5575 26.25 38.8451 29.0046C38.7961 29.1912 39.032 29.6035 39.2189 29.6657C40.1228 29.9674 41.057 30.1885 42.1595 30.4833L42.1572 30.4856ZM53.2774 3.26828C52.28 2.89055 51.3971 2.53124 50.4932 2.23643C50.3227 2.18115 49.9583 2.31934 49.8649 2.47596C48.5499 4.67555 47.2536 6.88666 45.997 9.11619C45.8802 9.32348 46.0484 9.68509 46.0834 9.9753C46.3544 9.9062 46.7117 9.92002 46.8822 9.75188C48.8466 7.83329 50.7875 5.88936 52.7261 3.94773C52.9013 3.77269 53.0391 3.56079 53.275 3.26597L53.2774 3.26828ZM31.7517 3.37883C34.1901 5.69819 36.4838 7.87935 38.8428 10.125C39.2562 9.94536 39.2235 9.53768 38.9246 9.03328C37.6446 6.87745 36.3833 4.7101 35.087 2.56349C34.9913 2.40687 34.6362 2.25255 34.4774 2.30783C33.6062 2.60725 32.7584 2.97346 31.7517 3.37653V3.37883ZM59.3034 42.239H25.8891C25.8844 42.3219 25.8774 42.4026 25.8727 42.4855C26.2254 42.5246 26.5805 42.5914 26.9331 42.596C32.6766 42.6513 38.4224 42.702 44.1658 42.7503C48.7718 42.7895 53.3801 42.8287 57.9861 42.8586C58.4649 42.8609 59.0418 42.9922 59.3011 42.2413L59.3034 42.239ZM46.3801 1.2207C45.7051 3.69207 45.0581 6.01143 44.4508 8.3423C44.3807 8.61409 44.5349 8.94575 44.5863 9.24748C44.9086 9.07013 45.3617 8.97339 45.5299 8.70391C46.5342 7.08934 47.4778 5.44023 48.4261 3.79341C48.7765 3.18536 49.0848 2.55658 49.4749 1.82415C48.3444 1.60304 47.3868 1.41648 46.3801 1.2207ZM35.5518 1.97616C35.7107 2.29861 35.8344 2.58191 35.9886 2.84909C37.1261 4.81605 38.2566 6.78992 39.4291 8.73616C39.5832 8.98951 39.9733 9.10468 40.2559 9.28433C40.3283 8.96418 40.5222 8.61639 40.4521 8.33079C40.0714 6.7715 39.6393 5.22142 39.2002 3.67595C38.9783 2.88824 38.9199 1.69517 38.406 1.44181C37.7847 1.13778 36.7594 1.63298 35.9092 1.7873C35.8298 1.80112 35.7574 1.8633 35.5495 1.97386L35.5518 1.97616ZM42.7621 0.879821C42.7621 3.39726 42.7481 5.77189 42.7831 8.14653C42.7878 8.40219 43.0868 8.65094 43.2503 8.90429C43.4535 8.68549 43.7711 8.49892 43.8435 8.24327C44.4088 6.28551 44.9319 4.31395 45.4551 2.34468C45.5556 1.97155 45.607 1.58461 45.7027 1.09402C44.6984 1.02032 43.8132 0.955828 42.7621 0.877518V0.879821ZM39.3146 1.14469C39.2843 1.29901 39.2679 1.33126 39.2749 1.35429C39.8822 3.74274 40.4848 6.1312 41.1224 8.51274C41.1668 8.67858 41.5942 8.92272 41.669 8.87205C41.8862 8.72694 42.1572 8.45286 42.1595 8.22945C42.1782 5.9907 42.1385 3.75196 42.1338 1.51321C42.1338 1.05256 41.9399 0.898247 41.4985 0.946615C40.7814 1.02262 40.062 1.0779 39.3146 1.14469Z" fill="#F6F6F6"/>
<path d="M42.7987 30.7183C42.7824 30.4212 42.7543 30.1724 42.7543 29.9214C42.752 27.0446 42.7356 24.1679 42.7753 21.2934C42.78 20.9825 43.1047 20.6739 43.2822 20.3652C43.5041 20.6163 43.8474 20.8328 43.9315 21.123C44.6696 23.6934 45.3563 26.2799 46.0687 28.8573C46.2088 29.364 46.1177 29.6288 45.5385 29.7832C44.6275 30.0273 43.7493 30.3866 42.7964 30.716L42.7987 30.7183Z" fill="white"/>
<path d="M42.1573 30.4833C41.0572 30.1862 40.1229 29.9674 39.2167 29.6656C39.0298 29.6035 38.7962 29.1912 38.843 29.0046C39.5553 26.2499 40.3051 23.5022 41.0782 20.7636C41.1249 20.5955 41.4496 20.3813 41.6178 20.402C41.8023 20.4251 41.9845 20.6761 42.1106 20.865C42.1783 20.9663 42.1293 21.146 42.1293 21.2888C42.1386 23.9628 42.1456 26.6369 42.155 29.3109C42.155 29.6772 42.155 30.0411 42.155 30.4856L42.1573 30.4833Z" fill="white"/>
<path d="M59.3034 42.2413C59.0464 42.9922 58.4695 42.8632 57.9884 42.8586C53.3824 42.8309 48.7741 42.7895 44.1681 42.7503C38.4246 42.702 32.6789 42.6536 26.9354 42.596C26.5804 42.5914 26.2277 42.5246 25.875 42.4855C25.8797 42.4025 25.8867 42.3219 25.8913 42.239H59.3034V42.2413Z" fill="white"/>
<path d="M14.6496 35.0437C14.4557 35.2694 14.3062 35.5941 14.0587 35.7047C13.2108 36.0824 12.3326 36.3957 11.459 36.7135C10.9499 36.9001 10.7864 37.2294 10.9522 37.7269C11.1297 38.2659 11.5198 38.3235 11.9986 38.1576C12.8768 37.8536 13.7644 37.568 14.6332 37.2363C15.0723 37.0682 15.3082 37.1373 15.5278 37.5772C16.044 38.6068 16.5648 39.6409 17.1885 40.6083C17.6299 41.29 17.6743 41.852 17.1815 42.49C17.0156 42.7042 16.9292 42.976 16.7377 43.3583C17.4501 43.28 17.9943 43.1741 18.5362 43.181C18.7627 43.1833 18.987 43.4228 19.2112 43.5518C19.0033 43.6992 18.8118 43.9457 18.5876 43.9825C17.2095 44.2059 15.8034 44.3027 14.6566 45.247C14.5188 45.3621 14.1988 45.2631 13.9652 45.2631C14.0657 45.0213 14.0937 44.6735 14.2759 44.5583C15.348 43.8766 15.9599 42.8585 16.6046 41.8198C17.1441 40.9492 16.2285 40.8248 15.9856 40.3756C15.9342 40.2812 15.3853 40.348 15.1377 40.477C14.2852 40.9169 13.4794 41.4374 12.6269 41.8727C12.4307 41.9741 12.1224 41.8635 11.8654 41.8497C11.9729 41.6171 12.0173 41.29 12.2018 41.1703C13.0263 40.6313 13.8718 40.1131 14.75 39.6639C15.2966 39.383 15.2265 39.0421 15.0677 38.5975C14.8761 38.0655 14.5445 38.2106 14.1591 38.3442C13.365 38.6206 12.5685 38.9154 11.7487 39.0997C10.9312 39.2816 10.3986 38.8993 10.1137 38.0333C9.87077 37.3031 9.81704 36.5385 10.6509 36.163C11.8584 35.6195 13.115 35.1865 14.3529 34.7051C14.4534 34.8202 14.5562 34.9331 14.6566 35.0483L14.6496 35.0437Z" fill="#F6F6F6"/>
<path d="M28.8086 55.2177C29.4158 54.4737 30.0325 53.7344 30.6281 52.9812C30.9948 52.5137 31.3404 52.4607 31.7936 52.9628C30.8032 54.1351 29.8573 55.2937 28.8623 56.4061C28.6684 56.6226 28.2784 56.6687 27.9794 56.7954C27.8649 56.496 27.6244 56.1827 27.6571 55.8994C27.8066 54.529 28.0284 53.1678 28.1966 51.9908C27.4912 51.7052 26.8559 51.4726 26.2463 51.1893C25.9053 51.0304 25.6274 50.8507 25.3844 51.3114C25.1532 51.749 25.291 52.0047 25.7255 52.1889C26.0198 52.3133 26.3211 52.4515 26.564 52.6473C26.7111 52.7647 26.7532 53.0089 26.8419 53.1954C26.6387 53.2668 26.4168 53.4281 26.237 53.3912C25.9333 53.3267 25.6507 53.154 25.3751 52.9974C24.9827 52.7762 24.6534 52.6473 24.3614 53.1632C24.0718 53.6722 24.24 53.9555 24.7188 54.1858C25.0598 54.3494 25.4055 54.5198 25.6974 54.7501C25.8422 54.8653 25.8679 55.1232 25.9497 55.319C25.7278 55.3835 25.4498 55.5632 25.291 55.4918C24.581 55.1601 23.8873 54.787 23.2309 54.3609C23.0861 54.2664 23.0114 53.8357 23.1048 53.663C23.7401 52.4653 24.4105 51.286 25.1228 50.1321C25.2186 49.9755 25.6857 49.8811 25.8773 49.9709C26.8676 50.4362 27.8439 50.9337 28.7735 51.5072C28.9697 51.6292 29.0351 52.1106 29.0048 52.4123C28.916 53.3175 28.7525 54.2158 28.617 55.1163C28.6824 55.1509 28.7455 55.1877 28.8109 55.2223L28.8086 55.2177Z" fill="#F6F6F6"/>
<path d="M72.6403 37.902C73.3083 38.1439 73.9716 38.3972 74.6443 38.623C75.1418 38.7888 75.303 39.056 74.9456 39.6341C73.4157 39.0099 71.8742 38.3834 70.2929 37.7385C70.1855 37.1489 70.5101 36.9347 71.059 36.8978C71.998 36.8333 72.9369 36.7573 73.9062 36.4948C73.2008 36.1976 72.4815 35.9282 71.8018 35.5827C71.5705 35.4652 71.4351 35.1612 71.2575 34.9424C71.5332 34.9332 71.8391 34.841 72.0797 34.9263C73.2546 35.3454 74.4201 35.7969 75.5716 36.2737C75.7935 36.3658 75.9499 36.6122 76.1368 36.7873C75.9149 36.9784 75.714 37.294 75.4641 37.3377C74.5532 37.4967 73.6259 37.5635 72.7057 37.6625C72.6823 37.7431 72.6613 37.8214 72.6379 37.902H72.6403Z" fill="#F6F6F6"/>
<path d="M47.9496 56.9821C47.8678 56.2543 47.7534 55.5311 47.7253 54.801C47.716 54.5522 47.9192 54.2966 48.0243 54.0432C48.1995 54.2482 48.5008 54.4371 48.5288 54.6605C48.7133 56.1322 48.8395 57.6132 49.0053 59.2923C47.368 58.8385 47.1835 57.2539 46.0904 56.2889C46.2258 57.2332 46.3636 58.0048 46.4337 58.7833C46.4547 59.0113 46.2749 59.2554 46.1885 59.4927C45.9946 59.2877 45.6653 59.1011 45.6279 58.8731C45.427 57.5971 45.2799 56.3119 45.1608 55.0244C45.1397 54.7941 45.3336 54.5453 45.427 54.3035C45.6863 54.444 46.0273 54.5246 46.1861 54.7388C46.735 55.4758 47.2232 56.2589 47.7324 57.0236C47.8048 57.0098 47.8772 56.996 47.9496 56.9798V56.9821Z" fill="#F6F6F6"/>
<path d="M20.9695 52.5045C20.5421 52.1866 19.8484 51.7098 19.2154 51.1594C19.1197 51.0765 19.2365 50.6089 19.386 50.4154C20.124 49.4573 20.9182 48.5429 21.6632 47.5917C22.037 47.1149 22.3943 47.1034 22.8241 47.4926C23.0787 47.7253 23.3846 47.9164 23.6042 48.1767C23.8378 48.4577 24.097 48.7755 24.1718 49.1164C24.431 50.2911 22.5765 52.4791 20.9695 52.5022V52.5045ZM22.2355 48.3356C21.6936 48.9851 21.1471 49.5794 20.6869 50.2312C20.5164 50.4707 20.3856 50.9797 20.5164 51.1386C20.8458 51.5371 21.3503 51.8388 21.8758 51.3828C22.2215 51.0834 22.5508 50.7448 22.8124 50.3717C23.5038 49.3813 23.408 49.045 22.2355 48.3356Z" fill="#F6F6F6"/>
<path d="M35.0677 55.5447C34.8178 56.1781 34.6309 56.8461 34.2993 57.4334C33.8742 58.1842 33.1968 58.6311 32.2649 58.4537C31.424 58.2948 30.7537 57.5486 30.6579 56.6134C30.5388 55.4618 30.9242 54.4461 31.744 53.6284C32.3256 53.048 33.038 53.0388 33.7691 53.3636C34.7103 53.7782 34.9533 54.5682 35.0677 55.5447ZM34.2058 55.2937C33.9536 54.9482 33.741 54.4507 33.3603 54.2158C33.1244 54.0684 32.5218 54.195 32.2812 54.4115C31.6786 54.9528 31.3353 55.7129 31.5829 56.5098C31.7067 56.9106 32.1317 57.3988 32.5078 57.491C32.7998 57.5624 33.3253 57.1501 33.5752 56.823C33.8602 56.4522 33.9536 55.9386 34.2035 55.296L34.2058 55.2937Z" fill="#F6F6F6"/>
<path d="M58.0624 54.8491C58.0578 55.9086 56.4625 57.2975 55.6847 57.1247C55.5189 57.0879 55.3414 56.9036 55.2619 56.7424C54.664 55.5286 54.0684 54.3125 53.5289 53.0733C53.4611 52.919 53.648 52.5344 53.8255 52.4146C55.6637 51.187 56.8619 51.5509 57.7004 53.587C57.8943 54.0591 57.9854 54.5751 58.0624 54.8514V54.8491ZM54.5075 53.0779C54.8859 53.9232 55.2619 54.7225 55.6006 55.5355C55.8319 56.0929 56.1542 56.1136 56.612 55.8073C57.273 55.3651 57.3454 54.7109 56.8245 53.7528C56.2219 52.6426 55.8295 52.5091 54.5099 53.0803L54.5075 53.0779Z" fill="#F6F6F6"/>
<path d="M10.6364 35.046C9.46625 35.0575 8.15359 33.4522 8.46424 32.3512C8.51095 32.1831 8.77255 32.0127 8.96874 31.9597C10.2324 31.6096 11.5006 31.2641 12.7806 30.99C12.9931 30.944 13.2851 31.2503 13.5373 31.4C13.5537 31.4092 13.5514 31.4553 13.5584 31.4806C14.2684 33.7447 13.222 35.0207 10.6364 35.046ZM12.7152 31.8468C11.5754 32.167 10.4893 32.471 9.40552 32.775C9.79791 34.1616 10.2277 34.3896 11.5473 34.0349C12.8997 33.6733 13.1286 33.2979 12.7152 31.8468Z" fill="#F6F6F6"/>
<path d="M44.7564 56.9729C44.7797 58.9076 43.8081 59.9418 42.3226 59.7114C41.2645 59.5479 40.5545 58.3364 40.6479 56.86C40.7343 55.5011 41.5938 54.4532 42.6542 54.4163C43.5932 54.3841 44.4901 55.1165 44.6769 56.0977C44.74 56.4339 44.74 56.7817 44.7564 56.9729ZM41.5308 57.095C41.5401 58.136 42.0166 58.8477 42.6963 58.8408C43.4414 58.8316 43.9926 57.9817 43.9155 56.9568C43.8454 56.0217 43.3012 55.28 42.701 55.2984C42.0913 55.3169 41.5214 56.1921 41.5308 57.095Z" fill="#F6F6F6"/>
<path d="M71.666 33.9797C71.979 33.0377 72.2313 32.2131 72.5372 31.4093C72.5956 31.2596 72.8642 31.1859 73.0371 31.0776C73.1468 31.2596 73.3687 31.4577 73.343 31.6212C73.273 32.0726 73.0511 32.501 72.9904 32.9502C72.9623 33.1644 73.1632 33.4062 73.2613 33.6365C73.4995 33.526 73.8242 33.4776 73.9573 33.2934C74.1512 33.0239 74.1652 32.6346 74.3357 32.3398C74.4502 32.1417 74.7024 32.0197 74.8939 31.863C74.9944 32.098 75.1579 32.326 75.1766 32.5655C75.1929 32.7774 75.0715 33.0101 74.971 33.215C74.7515 33.6642 74.7047 34.0143 75.2957 34.2377C75.8399 34.445 76.1155 34.2953 76.258 33.7563C76.3537 33.397 76.4635 33.0308 76.6387 32.706C76.7345 32.5264 76.9797 32.4227 77.1549 32.2845C77.267 32.4596 77.5052 32.6669 77.4679 32.8028C77.2483 33.6043 76.9797 34.3943 76.6831 35.1728C76.641 35.2857 76.321 35.3939 76.1739 35.3524C74.7001 34.9217 73.2356 34.4611 71.6684 33.9751L71.666 33.9797Z" fill="#F6F6F6"/>
<path d="M61.7926 49.9573C61.3768 49.9573 61.1129 49.9365 60.8536 49.9619C60.5523 49.9918 60.2067 49.9872 59.9731 50.1369C59.8259 50.2313 59.7862 50.5907 59.8213 50.8118C59.8353 50.897 60.202 50.9937 60.3912 50.9684C60.8209 50.9131 61.2367 50.7496 61.6641 50.6943C62.4302 50.5953 63.2057 51.178 63.3809 51.9427C63.5677 52.7557 62.9324 53.6632 61.9724 53.9557C61.253 54.1768 60.571 53.8175 60.2417 53.0413C60.223 52.9952 60.251 52.9307 60.2674 52.7718C60.5734 52.8294 60.87 52.9146 61.1713 52.9307C61.4796 52.9492 61.879 53.0091 62.0775 52.8524C62.2901 52.6843 62.3742 52.2858 62.3835 51.9841C62.3859 51.8989 61.9257 51.7169 61.6828 51.7261C61.2834 51.7446 60.8934 51.9173 60.4916 51.9611C59.5807 52.0578 59.1089 51.6985 58.8683 50.7795C58.6651 50.0033 59.0038 49.4367 59.9404 49.082C60.6925 48.7964 61.2998 48.9715 61.7879 49.9504L61.7926 49.9573Z" fill="#F6F6F6"/>
<path d="M67.9268 42.3058C68.4056 42.6881 68.9639 43.0083 69.3423 43.4689C69.751 43.9687 69.6179 44.6136 69.1788 45.0512C68.5388 45.6869 68.7116 46.1084 69.382 46.5345C69.5408 46.6359 69.6856 46.8201 69.744 46.9952C69.7884 47.1264 69.73 47.366 69.6295 47.4489C69.5314 47.5295 69.2558 47.5387 69.1647 47.4604C68.0413 46.5023 66.9342 45.5234 65.8317 44.5422C65.757 44.4754 65.7056 44.3418 65.7103 44.2405C65.7243 43.7798 67.3102 42.4417 67.9315 42.3035L67.9268 42.3058ZM67.9081 43.234C67.5087 43.6463 66.9926 43.9871 67.0439 44.1645C67.1467 44.51 67.5648 44.7656 67.8544 45.0604C68.0997 44.7403 68.4383 44.4501 68.5481 44.0908C68.5995 43.9226 68.2118 43.6232 67.9081 43.2363V43.234Z" fill="#F6F6F6"/>
<path d="M62.1709 48.2298C62.1709 47.0022 63.4438 46.1085 64.5136 46.6083C64.7121 46.7028 64.8359 46.9538 64.9947 47.1335C64.7892 47.2417 64.5907 47.4329 64.3781 47.4467C62.9487 47.5342 62.6427 48.0893 63.4228 49.2801C63.5957 49.5427 63.7895 49.8352 64.0488 49.9849C64.4225 50.2014 64.934 50.4962 65.261 50.3879C65.5413 50.2935 65.6464 49.6831 65.8262 49.3008C65.9267 49.0866 66.0248 48.8701 66.1229 48.6559C66.3027 48.8102 66.534 48.9346 66.6531 49.1281C67.0338 49.7453 66.8399 50.3856 66.3424 50.7519C65.88 51.0927 65.2003 51.3968 64.6607 51.3346C63.4649 51.1941 62.1709 49.4413 62.1732 48.2298H62.1709Z" fill="#F6F6F6"/>
<path d="M36.5 54.9668C36.2968 54.9368 36.0936 54.9668 35.9745 54.8793C35.797 54.7503 35.6802 54.543 35.54 54.3679C35.7035 54.2505 35.8764 54.0202 36.0305 54.0317C36.8107 54.0916 37.5931 54.186 38.3639 54.3219C38.9571 54.4255 38.8661 54.8171 38.7049 55.2155C37.5067 55.1948 37.509 55.1948 37.3268 56.4293C37.2147 57.194 37.1213 57.9656 36.9508 58.7188C36.8971 58.9537 36.6215 59.1402 36.4486 59.3475C36.3342 59.0873 36.1006 58.8155 36.124 58.5667C36.2221 57.5418 36.4019 56.5238 36.5374 55.5011C36.5584 55.3399 36.5164 55.1718 36.5 54.9668Z" fill="#F6F6F6"/>
<path d="M67.8027 41.852C67.8845 41.1518 68.2932 41.1725 68.7674 41.4581C69.5101 41.9073 70.2529 42.361 70.9559 42.8654C71.5655 43.303 71.9532 43.2984 72.2756 42.5453C72.4905 42.0431 72.7544 41.4282 73.6606 41.8704C73.1958 42.6443 72.7661 43.4159 72.2662 44.1391C72.1775 44.2681 71.7314 44.3049 71.5609 44.2036C70.2996 43.4481 69.0663 42.6489 67.8027 41.8497V41.852Z" fill="#F6F6F6"/>
<path d="M68.62 48.5752C68.5126 48.6973 68.4028 48.923 68.3001 48.9184C68.0922 48.9092 67.8352 48.8309 67.6951 48.6881C66.95 47.9257 66.2376 47.1357 65.5112 46.3549C65.2964 46.1223 65.0348 45.9173 64.8829 45.6501C64.7942 45.4935 64.8829 45.2402 64.8899 45.0283C65.0698 45.0375 65.3221 44.9707 65.4155 45.0628C66.4525 46.0993 67.4685 47.1588 68.4822 48.2206C68.5546 48.2966 68.564 48.4278 68.6177 48.5729L68.62 48.5752Z" fill="#F6F6F6"/>
<path d="M60.1951 54.8585C60.1111 54.9598 60.0223 55.1671 59.9078 55.1786C59.7373 55.1971 59.4571 55.1349 59.387 55.0151C58.6559 53.746 57.9459 52.4631 57.2662 51.1641C57.2008 51.0374 57.3339 50.6965 57.4694 50.6159C57.5885 50.5468 57.9505 50.6482 58.0229 50.7748C58.7283 51.9932 59.3963 53.2347 60.069 54.4715C60.1227 54.5706 60.1391 54.688 60.1905 54.8562L60.1951 54.8585Z" fill="#F6F6F6"/>
<path d="M69.8578 38.3374C70.0937 38.4272 70.2642 38.4779 70.4207 38.5539C71.5956 39.132 72.7774 39.7009 73.9289 40.3182C74.1111 40.4149 74.1648 40.7466 74.2793 40.9677C74.0551 41.0138 73.7794 41.1635 73.6159 41.0852C72.3827 40.4932 71.1635 39.8737 69.9676 39.2172C69.7737 39.1113 69.6967 38.7819 69.6032 38.5401C69.5892 38.5055 69.7901 38.3904 69.8602 38.3374H69.8578Z" fill="#F6F6F6"/>
<path d="M40.1736 55.0843C40.0312 56.5768 39.9401 57.7767 39.7789 58.9675C39.7462 59.2186 39.4496 59.4351 39.2767 59.6654C39.1693 59.4166 38.9544 59.1633 38.9684 58.9237C39.0478 57.7238 39.1646 56.5261 39.3235 55.333C39.3632 55.0405 39.6107 54.7733 39.7649 54.4946C39.9471 54.7572 40.1293 55.0198 40.1736 55.082V55.0843Z" fill="#F6F6F6"/>
<path d="M19.3865 46.3572C19.4987 46.5622 19.8023 46.8662 19.8046 47.1748C19.8093 47.8059 19.3375 48.2251 18.7372 48.1836C18.4523 48.1629 18.0575 47.7092 17.9688 47.3844C17.838 46.903 18.5457 46.3549 19.3842 46.3572H19.3865Z" fill="#F6F6F6"/>
<path d="M52.5994 56.139C52.3074 56.3647 52.0341 56.7517 51.7235 56.7839C51.0415 56.853 50.7588 56.3417 50.7355 55.7336C50.7168 55.22 50.934 54.7985 51.5249 54.81C52.249 54.8216 52.3891 55.3651 52.5994 56.139Z" fill="#F6F6F6"/>
</g>
<defs>
<clipPath id="clip0_786_2066">
<rect width="86" height="64" fill="white"/>
</clipPath>
</defs>
</svg>
