<svg width="143" height="62" viewBox="0 0 143 62" fill="none" xmlns="http://www.w3.org/2000/svg">
<g clip-path="url(#clip0_786_1997)">
<path d="M0.000309257 41.3935C4.83413 39.0878 9.44988 36.9214 14.6731 36.5501C18.4581 36.2818 21.8901 37.4734 25.2727 38.9718C26.807 39.6526 28.4217 40.1581 30.0053 40.7281C30.2701 40.8235 30.5608 40.8416 31.0619 40.9396C30.9035 39.9621 30.8568 39.0981 30.6179 38.2935C29.5562 34.7447 28.4009 31.2218 27.3469 27.6679C26.2696 24.0314 25.7919 20.3408 26.8978 16.6141C27.9362 13.1144 30.3402 10.6204 33.1153 8.40505C36.8329 5.43916 40.9865 3.19024 45.2388 1.10638C45.4413 1.00838 45.662 0.943899 45.8774 0.876844C45.9294 0.86137 45.9969 0.900056 46.1033 0.923267C45.27 1.9033 44.4055 2.83175 43.6423 3.835C40.9424 7.38375 38.9694 11.2652 38.4009 15.7398C37.9543 19.2525 38.5774 22.6748 39.3588 26.0818C39.7482 27.7788 40.1142 29.4783 40.5011 31.1753C41.5447 35.7557 39.9299 39.5288 36.6979 42.6443C35.2051 44.086 33.4035 45.2569 31.6148 46.3427C29.2914 47.7534 26.7291 47.8514 24.2031 46.9075C22.2951 46.1956 20.3974 45.409 18.6035 44.4574C12.8169 41.3806 6.70068 40.3928 -0.00488281 41.3909L0.000309257 41.3935Z" fill="#F6F6F6"/>
<path d="M98.5816 23.9929C104.249 23.8201 106.134 29.5146 105.02 33.396C104.09 36.6327 101.32 38.5206 97.8989 38.2575C94.5889 38.0022 92.2214 35.7533 91.8839 32.3721C91.7696 31.2425 91.8268 30.0381 92.0942 28.9369C92.8833 25.6615 95.1782 23.98 98.5842 23.9929H98.5816ZM102.624 31.3483C102.652 28.2947 101.152 26.5384 98.7218 26.4842C96.1492 26.4275 94.4747 28.1167 94.4358 30.9098C94.4254 31.632 94.5915 32.3773 94.7914 33.0814C95.6118 35.9854 98.6829 36.2459 100.531 35.3226C102.304 34.4379 102.504 32.7564 102.626 31.3483H102.624Z" fill="#F6F6F6"/>
<path d="M107.953 31.2889C108.039 26.1025 111.58 22.6517 117.475 24.457C118.968 24.9135 120.012 26.0354 120.622 27.4461C121.865 30.3269 121.857 33.1768 119.944 35.7842C118.345 37.9609 115.388 38.8481 112.704 38.0382C109.926 37.2001 108.475 35.209 108.041 32.4237C107.971 31.9801 107.974 31.5262 107.956 31.2889H107.953ZM118.766 31.0594C118.721 30.5848 118.719 30.1309 118.636 29.6899C118.236 27.6293 116.665 26.4197 114.531 26.4945C112.377 26.5693 110.923 27.8614 110.705 29.9865C110.624 30.7808 110.624 31.601 110.736 32.3902C111.037 34.5024 112.444 35.7506 114.438 35.7842C116.839 35.8254 118.171 34.7706 118.592 32.4753C118.677 32.0007 118.711 31.5184 118.766 31.0594Z" fill="#F6F6F6"/>
<path d="M111.331 7.79389C113.473 7.79389 115.547 7.69588 117.606 7.82741C119.08 7.92026 120.365 9.34131 120.664 10.9506C121.017 12.8668 120.794 14.6644 119.381 16.1835C119.213 16.3666 119.213 16.8411 119.319 17.1119C119.82 18.404 120.386 19.6703 120.926 20.947C121.035 21.2074 121.131 21.4731 121.289 21.8832C120.319 21.8832 119.462 21.9296 118.616 21.8522C118.392 21.8316 118.125 21.4731 118.013 21.21C117.603 20.23 117.219 19.2345 116.887 18.2261C116.707 17.6896 116.448 17.4137 115.848 17.4446C113.569 17.5633 113.886 17.0836 113.857 19.3789C113.847 20.2094 113.857 21.0424 113.857 21.9193H111.334V7.79389H111.331ZM113.828 12.4258C113.823 15.1931 114.067 15.3917 116.624 14.7186C117.616 14.4581 118.143 13.7747 118.27 12.5883C118.379 11.5773 117.928 10.6695 117.014 10.3136C116.453 10.0944 115.833 9.97317 115.23 9.91901C113.834 9.79006 113.831 9.81843 113.826 11.1724C113.826 11.5902 113.826 12.008 113.826 12.4258H113.828Z" fill="#F6F6F6"/>
<path d="M75.9656 21.9656C75.0648 21.9656 74.3561 22.0146 73.6604 21.9398C73.4111 21.914 73.1178 21.6329 72.975 21.3931C72.7673 21.0372 72.6531 20.6194 72.5389 20.2196C72.3701 19.6239 71.9989 19.4253 71.3836 19.4433C69.8286 19.4872 68.2684 19.4407 66.716 19.5181C66.3681 19.5362 65.797 19.874 65.7373 20.1526C65.3972 21.7464 64.4808 22.3086 62.9206 21.9682C62.7077 21.9218 62.4792 21.9372 62.0898 21.914C62.282 21.4343 62.4455 21.0423 62.5987 20.6451C64.094 16.7998 65.5919 12.957 67.082 9.10912C67.5934 7.78866 68.7019 7.22901 70.0259 7.74481C70.353 7.87377 70.649 8.29673 70.7918 8.65006C71.8354 11.2523 72.8296 13.8726 73.8473 16.4852C74.421 17.9578 75.0077 19.4227 75.584 20.8927C75.6983 21.1842 75.7943 21.4833 75.9656 21.963V21.9656ZM66.7809 16.9829H71.3265C70.5815 14.9403 69.8961 13.0654 69.2134 11.1878C69.1173 11.1801 69.0187 11.1724 68.9226 11.1646C68.2165 13.0834 67.5104 15.0022 66.7809 16.9829Z" fill="#F6F6F6"/>
<path d="M129.285 21.8031C129.553 21.1067 129.797 20.4516 130.054 19.8017C131.528 16.0518 133.042 12.3148 134.452 8.53908C134.807 7.58484 135.461 7.69316 136.152 7.7009C136.83 7.70863 137.523 7.5281 137.886 8.49008C139.462 12.6501 141.121 16.7765 142.743 20.9185C143.122 21.8882 142.961 22.1022 141.959 22.0068C141.863 21.9965 141.762 21.9501 141.671 21.9681C140.487 22.2131 139.945 21.6354 139.776 20.5445C139.636 19.6264 139.088 19.4046 138.187 19.4587C136.7 19.5516 135.204 19.5232 133.712 19.4974C133.159 19.4871 132.912 19.6857 132.741 20.1963C132.123 22.0429 131.752 22.2518 129.787 21.9939C129.639 21.9733 129.498 21.8856 129.28 21.8031H129.285ZM136.297 11.1336C136.191 11.1387 136.084 11.1439 135.978 11.1491C135.311 13.0859 134.646 15.0228 133.951 17.0396H138.517C137.741 14.9712 137.019 13.0524 136.297 11.131V11.1336Z" fill="#F6F6F6"/>
<path d="M80.776 24.4156C80.776 26.092 80.8175 27.6987 80.7604 29.3029C80.7292 30.1643 80.9577 30.5176 81.8923 30.4583C83.1851 30.3758 84.4857 30.4042 85.7811 30.4428C86.4353 30.4635 86.6118 30.2185 86.5989 29.5995C86.5677 28.1836 86.6508 26.7626 86.5989 25.3492C86.5651 24.5085 86.9078 24.2557 87.6788 24.3434C87.9021 24.3692 88.1331 24.3563 88.359 24.3383C88.8756 24.297 89.1118 24.4621 89.1092 25.0398C89.0988 29.2591 89.117 33.4784 89.1222 37.7002C89.1222 37.7905 89.0781 37.8834 89.0495 37.9968H86.5703C86.5703 36.5397 86.5288 35.1625 86.5859 33.7904C86.617 33.0012 86.3211 32.7923 85.5708 32.8284C84.2443 32.8878 82.9125 32.8903 81.5833 32.8568C80.9265 32.8413 80.737 33.0967 80.7578 33.7079C80.7993 34.8659 80.7578 36.029 80.8175 37.1844C80.8486 37.8008 80.6981 38.051 80.0257 38.0458C78.1929 38.0304 78.1929 38.0587 78.1955 36.2018C78.2007 32.6918 78.2033 29.1791 78.2137 25.669C78.2189 24.3228 78.2293 24.3176 79.6207 24.3176C79.9686 24.3176 80.3139 24.3769 80.776 24.4208V24.4156Z" fill="#F6F6F6"/>
<path d="M96.6997 7.84542C98.3836 7.57032 99.2308 8.20734 99.2412 9.75648C99.2516 11.6263 99.236 13.4961 99.2827 15.3659C99.3009 16.0674 99.3814 16.7869 99.5605 17.4652C99.9058 18.7625 100.677 19.3247 102.016 19.4021C102.112 19.4072 102.211 19.415 102.307 19.415C104.89 19.464 105.791 18.6748 105.895 16.0983C105.993 13.6508 106.017 11.2007 106.004 8.75066C106.001 7.9589 106.222 7.60041 107.04 7.71647C107.167 7.73452 107.302 7.73194 107.429 7.71131C108.333 7.55914 108.678 7.85058 108.644 8.83577C108.558 11.3477 108.649 13.8649 108.558 16.3769C108.486 18.3705 107.741 20.0933 105.923 21.1687C101.79 23.6136 96.9982 21.2177 96.7282 16.4774C96.5647 13.6225 96.6971 10.752 96.6971 7.848L96.6997 7.84542Z" fill="#F6F6F6"/>
<path d="M84.4668 7.82214C86.6734 7.82214 88.7373 7.78345 90.7959 7.85051C91.271 7.86598 91.7876 8.16773 92.1926 8.46432C93.9553 9.76157 94.1734 11.6107 93.9034 13.5811C93.6464 15.4664 92.5534 16.7121 90.7129 17.184C89.7835 17.4213 88.7944 17.4677 87.8287 17.5013C87.19 17.5245 86.972 17.7334 87.0031 18.3601C87.0499 19.2911 87.0005 20.2273 87.0447 21.1609C87.0706 21.718 86.9356 21.9707 86.3126 21.9965C84.472 22.0713 84.4694 22.0971 84.4694 20.2531C84.4668 16.4542 84.4694 12.6527 84.4668 8.85375C84.4668 8.503 84.4668 8.15225 84.4668 7.82214ZM87.0187 12.4463C86.9979 14.3222 87.7854 15.1208 89.3811 14.8423C90.648 14.6205 91.4138 13.7255 91.4268 12.4515C91.4397 11.1904 90.6687 10.2851 89.3655 10.0711C88.8255 9.98079 88.2752 9.94984 87.73 9.87505C87.2238 9.80799 87.0135 10.0324 87.0161 10.5198C87.0213 11.162 87.0161 11.8042 87.0161 12.4463H87.0187Z" fill="#F6F6F6"/>
<path d="M75.5734 36.2148C72.9411 39.1472 67.775 38.8712 65.4281 35.6706C63.3928 32.8956 63.7511 28.1785 66.1836 25.7413C68.3097 23.6111 72.8165 23.4151 75.0776 25.3416C75.6202 25.8058 75.6409 26.221 75.0724 26.6853C74.2754 27.3352 73.5356 27.5389 72.5205 26.9741C70.2516 25.7104 67.505 26.9174 66.978 29.4603C66.7443 30.5848 66.7807 31.8588 67.0558 32.9781C67.6581 35.4153 70.0621 36.416 72.3673 35.3611C74.0132 34.6081 74.3871 34.7061 75.576 36.2148H75.5734Z" fill="#F6F6F6"/>
<path d="M137.735 38.3063C136.357 38.2212 135.155 37.8447 134.054 37.0658C133.462 36.6454 133.293 36.1993 133.742 35.6138C134.204 35.0103 134.757 34.5126 135.528 35.1212C136.416 35.8227 137.421 35.9027 138.475 35.7918C139.363 35.6989 139.983 35.2786 140.201 34.3578C140.43 33.3959 139.799 32.9961 139.093 32.6918C138.174 32.2972 137.221 31.9748 136.287 31.6086C134.537 30.9251 133.626 29.6176 133.766 28.0108C133.94 26.0404 134.981 24.8051 136.834 24.3821C138.439 24.0159 139.988 24.1397 141.455 24.9315C141.917 25.1816 142.468 25.4292 142.039 26.092C141.663 26.6749 141.333 27.3429 140.373 27.0256C139.617 26.7755 138.818 26.5872 138.026 26.5176C137.26 26.4505 136.614 26.7909 136.422 27.6188C136.227 28.457 136.551 29.094 137.351 29.4112C138.28 29.7826 139.238 30.087 140.183 30.4248C142.032 31.085 142.935 32.1811 142.995 33.8291C143.049 35.3766 142.037 36.9575 140.427 37.5997C139.571 37.9401 138.631 38.0742 137.73 38.3038L137.735 38.3063Z" fill="#F6F6F6"/>
<path d="M51.5674 35.9284C51.9334 35.6731 52.3098 35.4616 52.6188 35.1779C53.0653 34.7705 53.4469 34.6931 53.9791 35.0774C55.0201 35.8253 56.2402 35.9568 57.4111 35.5622C57.9355 35.3843 58.5533 34.8014 58.6623 34.3011C58.7532 33.8858 58.2859 33.1199 57.8524 32.8646C56.9464 32.3281 55.9054 32.0109 54.9111 31.6266C52.8342 30.8194 52.0139 29.5041 52.3254 27.4486C52.6058 25.5943 53.9739 24.3537 55.9962 24.199C57.3981 24.0907 58.7896 24.1474 60.0279 24.9469C60.4458 25.2151 60.9131 25.5066 60.49 26.0868C60.1083 26.613 59.8202 27.3042 58.8986 26.9689C58.208 26.7187 57.4837 26.4943 56.7595 26.4195C55.9028 26.3344 55.1395 26.613 54.8669 27.5646C54.5814 28.555 55.1525 29.1043 55.9625 29.4344C56.7698 29.762 57.611 30.0044 58.4443 30.2675C60.0746 30.7833 61.3181 31.6962 61.4764 33.5145C61.64 35.3817 60.6068 36.6119 59.0492 37.4656C56.7127 38.7448 53.3197 38.1516 51.5726 35.9284H51.5674Z" fill="#F6F6F6"/>
<path d="M60.0464 13.3465C60.0464 15.0203 60.1425 16.6993 60.0205 18.3627C59.8959 20.0417 58.9639 21.2564 57.2998 21.7696C55.4722 22.337 53.4421 21.7748 52.4375 20.4543C52.0039 19.8844 51.5704 19.2628 52.2506 18.5665C52.9385 17.865 53.6836 17.8598 54.2962 18.6619C54.8777 19.4227 55.5787 19.58 56.4354 19.3376C57.2947 19.0926 57.4348 18.3653 57.4426 17.6483C57.4764 14.7856 57.4582 11.9203 57.4868 9.05758C57.492 8.63462 57.5776 7.89702 57.7619 7.85059C58.4006 7.69327 59.1015 7.73454 59.7687 7.80933C59.8985 7.8248 60.0516 8.33287 60.0542 8.61657C60.0828 10.1924 60.0672 11.7707 60.0672 13.3465C60.0594 13.3465 60.0516 13.3465 60.0413 13.3465H60.0464Z" fill="#F6F6F6"/>
<path d="M124.085 31.2243C124.085 29.2591 124.113 27.2939 124.069 25.3286C124.054 24.6194 124.269 24.2996 124.999 24.377C125.191 24.3976 125.391 24.3899 125.58 24.3589C126.341 24.23 126.598 24.5111 126.59 25.2951C126.559 28.3538 126.626 31.4152 126.58 34.4765C126.567 35.4049 126.824 35.7402 127.782 35.6706C128.942 35.588 130.118 35.6938 131.281 35.6293C132.177 35.5803 132.283 36.0806 132.314 36.7589C132.348 37.4501 132.255 37.9736 131.372 37.9736C129.134 37.9762 126.899 37.9969 124.661 38.0355C124.095 38.0459 124.043 37.7518 124.046 37.3057C124.059 35.276 124.051 33.2463 124.051 31.2166C124.062 31.2166 124.072 31.2166 124.082 31.2166L124.085 31.2243Z" fill="#F6F6F6"/>
<path d="M81.3888 22.0276C80.5035 21.9838 79.7117 21.9425 78.907 21.9013C78.868 21.7052 78.8213 21.584 78.8213 21.4602C78.8317 17.2151 78.8888 12.9701 78.8421 8.72496C78.8265 7.27555 79.8078 7.82746 80.4931 7.71656C81.3862 7.57213 81.394 8.14726 81.394 8.77397C81.3862 13.1429 81.3888 17.5117 81.3888 22.025V22.0276Z" fill="#F6F6F6"/>
<path d="M126.503 21.9269H124.008V7.71895C124.675 7.71895 125.327 7.63384 125.931 7.76022C126.168 7.80922 126.458 8.33276 126.464 8.64482C126.508 11.9924 126.497 15.3426 126.503 18.6902C126.503 19.7476 126.503 20.8024 126.503 21.9243V21.9269Z" fill="#F6F6F6"/>
<path d="M112.644 42.7758C112.097 42.7758 111.679 42.7113 111.297 42.7964C110.98 42.866 110.703 43.111 110.407 43.2761C110.609 43.534 110.765 43.8641 111.027 44.0318C111.401 44.2716 111.936 44.2974 112.252 44.5811C112.598 44.8932 112.99 45.409 112.959 45.8061C112.927 46.1904 112.452 46.6933 112.055 46.8558C111.583 47.0492 110.983 46.9435 110.438 46.9564C109.96 46.9693 109.48 47.0002 109.007 46.9615C108.761 46.9409 108.364 46.8377 108.309 46.6804C108.078 45.9918 107.72 46.0305 107.066 46.1105C106.245 46.211 105.427 46.046 104.989 46.9873C104.963 47.0466 104.698 46.9951 104.392 46.9951C105.007 45.4012 105.573 43.8796 106.198 42.3812C106.276 42.1955 106.686 42.0201 106.912 42.0536C107.133 42.0872 107.4 42.358 107.491 42.5849C107.901 43.632 108.275 44.6946 108.628 45.7649C108.81 46.3194 108.968 46.6985 109.706 46.3761C110.043 46.2291 110.536 46.4715 110.931 46.3993C111.393 46.3142 111.827 46.0795 112.273 45.9067C112.003 45.5585 111.777 45.1588 111.448 44.8777C111.191 44.6585 110.812 44.5759 110.479 44.447C109.856 44.2046 109.732 43.7377 109.781 43.1265C109.833 42.4766 110.212 42.2032 110.786 42.1697C111.403 42.1336 112.172 41.6874 112.65 42.7758H112.644ZM106.925 43.2993C106.793 43.3148 106.661 43.3303 106.526 43.3432C106.339 43.8667 106.089 44.3773 106.001 44.9164C105.973 45.0814 106.385 45.4966 106.577 45.4863C106.915 45.4657 107.541 45.1459 107.522 45.0556C107.4 44.4547 107.141 43.8822 106.925 43.2993Z" fill="#F6F6F6"/>
<path d="M104.757 2.25923C104.757 3.11032 104.796 3.96656 104.734 4.81506C104.716 5.07296 104.41 5.30765 104.236 5.55266C104.095 5.31281 103.838 5.07296 103.833 4.83053C103.797 3.29859 103.815 1.76406 103.815 0C105.682 0.569967 105.791 2.34176 106.891 3.31922C107.416 2.47845 107.899 1.62479 108.472 0.833028C108.688 0.536439 109.111 0.389434 109.438 0.175374C109.542 0.515807 109.721 0.853661 109.731 1.19667C109.773 2.41913 109.781 3.6416 109.747 4.86406C109.739 5.10133 109.487 5.33086 109.347 5.56298C109.191 5.32829 108.916 5.10133 108.901 4.8589C108.846 3.94592 108.88 3.03037 108.677 2.04002C108.091 2.97363 107.504 3.90466 106.826 4.9827C106.193 3.99493 105.601 3.07163 105.012 2.15092C104.926 2.18702 104.843 2.22571 104.757 2.26181V2.25923Z" fill="#F6F6F6"/>
<path d="M142.437 44.8158C142.102 44.8829 141.767 45.0093 141.432 45.0093C134.012 45.0041 126.593 44.9912 119.174 44.9628C118.831 44.9628 118.488 44.8107 118.146 44.7281C118.171 44.6405 118.2 44.5528 118.226 44.4651H142.392C142.405 44.5811 142.421 44.6972 142.434 44.8158H142.437Z" fill="#F6F6F6"/>
<path d="M76.2271 44.8932C68.5999 45.0789 60.965 44.8571 53.3352 44.9757C53.0445 44.9809 52.7485 44.7514 52.4863 44.4728C60.4198 44.349 68.3221 44.2691 76.2245 44.3671C76.2245 44.5425 76.2245 44.7178 76.2271 44.8932Z" fill="#F6F6F6"/>
<path d="M77.5488 58.4848C78.3605 57.5219 79.0329 57.2288 79.5659 57.6053C79.2518 57.7755 78.9689 57.9277 78.5639 58.1443C79.3193 58.4925 79.7918 58.3146 80.1786 57.791C80.7861 56.9709 81.5182 57.1798 82.2502 57.3887C82.2658 57.4944 82.2788 57.6002 82.2944 57.7033C82.014 57.7394 81.731 57.7652 81.4533 57.8168C81.217 57.8606 80.9886 57.9354 80.7991 58.1882C81.4377 58.3403 82.5073 58.3403 82.6267 58.6756C82.9174 59.4829 82.7954 60.4474 82.7539 61.3449C82.7461 61.5151 82.3411 61.6699 81.8946 61.9948V59.096H80.6329C80.6329 59.7691 80.5758 60.4113 80.6485 61.038C80.729 61.7421 80.4252 61.8143 79.7944 61.6441C79.7606 61.1463 79.7736 60.6305 79.6802 60.1328C79.6023 59.7124 79.3661 58.949 79.27 58.9593C78.4497 59.0522 78.9092 59.7433 78.8157 60.1818C78.7508 60.4887 78.8728 60.8343 78.8053 61.1412C78.7586 61.3578 78.5353 61.5384 78.3925 61.7369C78.2264 61.5512 77.9668 61.3862 77.9123 61.1721C77.8266 60.8369 77.9123 60.4655 77.8629 60.1147C77.7929 59.6015 77.6708 59.096 77.5488 58.4822V58.4848Z" fill="#F6F6F6"/>
<path d="M97.8679 2.47851V0.276015C98.4883 0.0439022 98.7739 0.18317 98.7713 0.815034C98.7661 2.32893 98.7713 3.84024 98.7713 5.41603C98.3663 5.57851 97.9665 5.68941 97.8705 4.98791C97.8004 4.47726 97.8912 3.77577 97.5953 3.51012C97.3019 3.24964 96.6114 3.4276 96.0948 3.41728C95.9676 3.41728 95.8404 3.43533 95.5652 3.45854C95.5652 3.96146 95.6093 4.46179 95.5444 4.95181C95.5159 5.1736 95.277 5.36961 95.1343 5.57851C94.9811 5.3825 94.7007 5.19166 94.6981 4.99307C94.6748 3.57718 94.6955 2.15871 94.7423 0.742821C94.7474 0.551972 94.9759 0.368861 95.1005 0.180591C95.2433 0.379177 95.3887 0.577762 95.5314 0.778927C95.547 0.799559 95.5314 0.840824 95.534 0.874351C95.5981 2.22233 96.3778 2.75619 97.8731 2.47593L97.8679 2.47851Z" fill="#F6F6F6"/>
<path d="M115.274 3.72164C115.274 4.17039 115.323 4.55724 115.256 4.92347C115.214 5.14268 114.994 5.33095 114.853 5.53212C114.669 5.35674 114.329 5.18395 114.326 5.00599C114.306 3.59268 114.342 2.17679 114.383 0.760904C114.389 0.595845 114.5 0.374048 114.635 0.283782C115.084 -0.0153858 117.052 0.255413 117.413 0.683533C118.013 1.39535 118.111 2.20258 117.608 3.00208C117.262 3.55142 117.369 3.98728 117.68 4.51598C117.823 4.76099 117.665 5.17879 117.644 5.51922C117.356 5.30258 116.894 5.13753 116.816 4.86157C116.6 4.10333 116.237 3.67005 115.274 3.71906V3.72164ZM115.222 1.92147C115.154 2.50433 115.256 2.96856 116.055 2.92729C116.668 2.89377 117.013 2.66939 117.003 2.00658C116.992 1.28187 116.613 0.998175 115.925 0.954331C115.18 0.907909 115.193 1.38245 115.222 1.92147Z" fill="#F6F6F6"/>
<path d="M80.1992 46.9151C80.1992 45.4528 80.1992 43.9854 80.2018 42.5179C80.2018 42.425 80.2356 42.2497 80.2615 42.2497C81.0793 42.1904 81.9048 42.0743 82.7096 42.1491C82.951 42.1723 83.2833 42.7191 83.3274 43.0569C83.4417 43.9389 83.4053 44.8416 83.4572 45.7339C83.4988 46.4741 83.0575 46.8249 82.4292 46.8997C81.7646 46.9796 81.0845 46.9177 80.1992 46.9177V46.9151ZM80.9599 45.2542C80.9521 45.3935 80.9443 45.5328 80.9365 45.672C81.2065 45.9016 81.4557 46.2833 81.7517 46.3271C82.2631 46.4019 82.7563 46.1311 82.6577 45.5122C82.6135 45.2336 82.2605 44.8003 82.0528 44.8003C81.6868 44.8003 81.3259 45.0892 80.9599 45.2542ZM81.6063 44.2794C81.7387 44.2716 81.8737 44.2665 82.0061 44.2587C82.1904 43.926 82.4682 43.6037 82.5123 43.2529C82.5305 43.1008 82.0813 42.7629 81.8191 42.732C81.2247 42.6649 81.017 43.1085 81.1052 43.6062C81.1494 43.8538 81.4323 44.0576 81.6063 44.2794Z" fill="#F6F6F6"/>
<path d="M90.3966 43.3356C90.3966 44.5322 90.4148 45.4168 90.3836 46.3014C90.3759 46.5465 90.2123 46.7837 90.1214 47.0262C89.9864 46.7889 89.7424 46.5542 89.7346 46.3118C89.6983 44.9036 89.7165 43.4955 89.7165 41.7598C91.3442 42.8223 91.9257 44.4368 93.2549 45.6206C93.2938 45.128 93.3509 44.7463 93.3509 44.3646C93.3509 43.7534 93.2886 43.1396 93.3042 42.5309C93.3094 42.3581 93.4963 42.1905 93.6001 42.0202C93.7299 42.1724 93.9714 42.322 93.974 42.4742C93.9921 43.8591 93.9765 45.244 93.9428 46.629C93.9402 46.776 93.7533 47.0339 93.6494 47.0365C93.4521 47.0365 93.1848 46.9436 93.0653 46.7966C92.502 46.09 91.9854 45.3472 91.4428 44.6277C91.1676 44.264 90.8665 43.9158 90.3966 43.3407V43.3356Z" fill="#F6F6F6"/>
<path d="M103.133 47.057C102.258 46.781 102.453 45.0247 100.997 45.2413C100.997 45.6256 101.038 46.0409 100.978 46.4406C100.95 46.6392 100.74 46.8146 100.612 47.0003C100.509 46.8326 100.316 46.6676 100.314 46.4973C100.277 45.2104 100.27 43.9209 100.275 42.6314C100.275 42.456 100.397 42.131 100.462 42.131C101.326 42.1413 102.23 42.064 103.029 42.3141C103.32 42.4044 103.489 43.3019 103.478 43.828C103.46 44.8442 103.273 45.8577 103.136 47.057H103.133ZM102.744 44.0679C102.777 43.0492 102.414 42.7655 101.757 42.7345C101.261 42.7113 100.934 42.8325 100.952 43.3999C100.973 44.0447 101.087 44.7049 101.908 44.6404C102.258 44.6121 102.58 44.1891 102.744 44.0705V44.0679Z" fill="#F6F6F6"/>
<path d="M55.6458 2.66406H73.0262C73.0262 2.74917 73.0262 2.83686 73.0262 2.92197H55.625C55.6302 2.83686 55.638 2.74917 55.6432 2.66406H55.6458Z" fill="#F6F6F6"/>
<path d="M121.663 2.677H138.955C138.031 3.29339 122.476 3.20828 121.663 2.677Z" fill="#F6F6F6"/>
<path d="M82.0685 0.250064C83.0498 0.250064 83.9169 0.224274 84.7787 0.270696C84.9579 0.281012 85.124 0.546653 85.2953 0.693658C85.1214 0.840663 84.9657 1.07278 84.7684 1.11404C84.4283 1.18625 84.0596 1.15788 83.7066 1.14241C83.1978 1.1192 82.9278 1.28684 82.9304 1.85164C82.9356 2.41645 83.1952 2.58667 83.7144 2.53509C83.9039 2.51704 84.1375 2.48867 84.2829 2.57635C84.4387 2.6692 84.5736 2.88584 84.6048 3.06637C84.6178 3.14374 84.3608 3.34233 84.2102 3.36296C83.8623 3.4068 83.5041 3.37843 83.151 3.37843C82.7305 4.52353 82.8577 4.67053 84.0908 4.70922C84.5139 4.72211 84.9319 4.9207 85.3525 5.03417C84.9215 5.18376 84.4932 5.45714 84.0596 5.45972C82.0399 5.48293 82.0425 5.45714 82.0633 3.42486C82.0737 2.43451 82.0633 1.44158 82.0633 0.250064H82.0685Z" fill="#F6F6F6"/>
<path d="M63.1639 57.2418C64.8228 57.2134 65.1888 57.7421 64.6774 59.3463C64.6021 59.5861 64.6774 59.9085 64.7683 60.1587C65.0279 60.8602 64.7891 61.4302 64.0518 61.6029C63.5871 61.7113 63.0757 61.7912 62.6188 61.7061C62.3488 61.6571 61.9568 61.278 61.9386 61.0278C61.8659 59.9756 61.8919 58.913 61.9308 57.8556C61.9516 57.2624 61.9957 57.2624 63.1613 57.2418H63.1639ZM64.5269 58.6035C64.018 58.227 63.6676 57.8272 63.5196 57.8917C63.2262 58.0181 62.9433 58.3714 62.8602 58.6861C62.8161 58.8537 63.234 59.3463 63.3716 59.3205C63.6935 59.2586 63.9713 58.9723 64.5269 58.6061V58.6035ZM62.8628 59.7512C62.8187 60.641 62.7408 61.2084 63.4858 61.1258C63.7169 61.1 63.9064 60.6874 64.1167 60.4527C63.761 60.2541 63.4054 60.0555 62.8628 59.7512Z" fill="#F6F6F6"/>
<path d="M79.2051 1.12971C78.5431 1.12971 77.9979 1.10134 77.4605 1.14518C77.2658 1.16066 76.9387 1.33087 76.9258 1.45467C76.905 1.66357 77.027 1.98337 77.1983 2.09427C77.6241 2.37538 78.0966 2.59718 78.5768 2.78287C79.2077 3.02788 79.4958 3.45342 79.4647 4.11881C79.4335 4.80999 79.1454 5.36191 78.4263 5.42896C77.7383 5.49344 77.027 5.4238 76.3442 5.30517C76.1547 5.27164 76.0301 4.86415 75.877 4.62946C76.1288 4.59077 76.3832 4.50309 76.6298 4.52114C77.0426 4.54951 77.4553 4.70425 77.8629 4.69136C78.1018 4.68362 78.5301 4.44119 78.5249 4.3174C78.5145 4.04918 78.3458 3.70101 78.1251 3.54369C77.6604 3.20841 76.9881 3.07946 76.6506 2.66681C76.3131 2.25417 75.9938 1.44435 76.1859 1.08586C76.4221 0.647429 77.175 0.392104 77.7539 0.255416C78.3666 0.11099 78.9766 0.288943 79.2051 1.13487V1.12971Z" fill="#F6F6F6"/>
<path d="M88.7528 46.954C87.2419 45.6619 85.8894 45.649 84.5161 47.3692C84.5161 46.8946 84.4538 46.6419 84.5264 46.433C84.9963 45.0971 85.4896 43.7714 85.9906 42.4458C86.1827 41.9403 86.6163 41.5818 86.9797 42.1363C87.9272 43.5883 88.2855 45.2802 88.7528 46.954ZM86.7201 43.2247C86.5955 43.2376 86.4709 43.253 86.3489 43.2659C86.1542 43.823 85.9049 44.3698 85.8037 44.9423C85.7751 45.1022 86.1853 45.5123 86.3826 45.502C86.7201 45.4865 87.3509 45.1718 87.3328 45.0919C87.1978 44.4549 86.9408 43.8436 86.7227 43.2221L86.7201 43.2247Z" fill="#F6F6F6"/>
<path d="M99.1788 47.0828C98.9763 46.8636 98.7972 46.616 98.5636 46.4381C98.3429 46.2679 98.0755 46.0744 97.8159 46.059C97.2604 46.0254 96.6996 46.0977 95.9961 46.1338C95.8351 46.3478 95.5366 46.7501 95.238 47.1525C95.1082 47.0777 94.9784 47.0055 94.8486 46.9307C95.2692 45.8088 95.6274 44.656 96.1363 43.5754C96.3933 43.0286 96.2635 41.9635 97.1929 42.1105C97.5952 42.1749 97.9457 43.0002 98.1845 43.5393C98.6648 44.6173 99.0542 45.7366 99.48 46.8404C99.3787 46.9204 99.2775 47.0029 99.1762 47.0828H99.1788ZM97.385 43.2891C97.2681 43.2839 97.1487 43.2788 97.0319 43.271C96.8138 43.8384 96.5439 44.3929 96.4218 44.9783C96.3959 45.1073 96.8813 45.4658 97.1591 45.5045C97.5174 45.5561 98.1248 45.5999 97.982 44.9319C97.86 44.3671 97.5901 43.8358 97.385 43.2891Z" fill="#F6F6F6"/>
<path d="M104.983 58.6549V61.9354C104.638 61.5795 104.298 61.3938 104.29 61.1952C104.241 59.916 104.264 58.6343 104.264 57.3757C104.874 57.2467 105.739 58.1855 106.86 60.192C106.86 59.4338 106.842 58.6755 106.871 57.9199C106.881 57.6852 107.024 57.4531 107.107 57.2209C107.245 57.4479 107.491 57.6697 107.504 57.9018C107.561 58.9283 107.572 59.9573 107.551 60.9863C107.546 61.2262 107.351 61.4609 107.245 61.6982C106.988 61.564 106.619 61.497 106.497 61.2855C106.001 60.4293 105.581 59.5318 105.131 58.6472C105.082 58.6472 105.035 58.6497 104.986 58.6523L104.983 58.6549Z" fill="#F6F6F6"/>
<path d="M90.4304 1.13473C90.4304 2.47067 90.4538 3.65187 90.4122 4.83307C90.4044 5.08066 90.1656 5.32051 90.0358 5.56294C89.8671 5.31793 89.5685 5.08066 89.5529 4.82533C89.4984 3.93041 89.501 3.02775 89.5607 2.13282C89.6075 1.41069 89.3946 1.06252 88.6158 1.06768C88.3614 1.06768 88.107 0.812354 87.8525 0.675665C88.1277 0.533818 88.3951 0.283652 88.6781 0.268178C89.6101 0.216597 90.5498 0.216597 91.4844 0.268178C91.7258 0.281073 91.9517 0.554451 92.1827 0.709193C91.9647 0.85104 91.7648 1.06252 91.5259 1.11926C91.2248 1.19147 90.8951 1.13731 90.433 1.13731L90.4304 1.13473Z" fill="#F6F6F6"/>
<path d="M109.212 51.0624C109.212 50.9025 109.212 50.74 109.212 50.5801C109.238 49.0998 109.604 48.8238 111.071 49.1823C111.133 49.1978 111.201 49.2003 111.26 49.2236C111.671 49.3809 112.249 51.8645 112.005 52.4112C111.748 52.9838 110.162 53.4867 109.57 53.1334C109.391 53.0276 109.256 52.731 109.233 52.5092C109.184 52.0321 109.217 51.5473 109.217 51.065H109.212V51.0624ZM110.502 52.86C110.814 52.4164 111.032 52.1791 111.138 51.898C111.159 51.8413 110.739 51.4905 110.57 51.5215C110.341 51.5653 110.056 51.8181 109.988 52.0373C109.942 52.1894 110.225 52.4396 110.5 52.86H110.502ZM111.367 50.4022C111.029 50.0875 110.855 49.8013 110.702 49.8116C110.45 49.8296 110.212 50.0385 109.968 50.1649C110.082 50.3583 110.188 50.7065 110.31 50.7091C110.585 50.7194 110.868 50.5621 111.367 50.3996V50.4022Z" fill="#F6F6F6"/>
<path d="M96.5783 51.0624C96.5783 50.9025 96.5783 50.74 96.5783 50.5801C96.6043 49.0998 96.9703 48.8238 98.4371 49.1823C98.4994 49.1978 98.5669 49.2003 98.6266 49.2236C99.0368 49.3809 99.6157 51.8645 99.3717 52.4112C99.1147 52.9838 97.5285 53.4867 96.9366 53.1334C96.7575 53.0276 96.6225 52.731 96.5991 52.5092C96.5498 52.0321 96.5835 51.5473 96.5835 51.065H96.5783V51.0624ZM97.8686 52.86C98.1801 52.4164 98.3982 52.1791 98.5046 51.898C98.5254 51.8413 98.1048 51.4905 97.9361 51.5215C97.7076 51.5653 97.4221 51.8181 97.3546 52.0373C97.3078 52.1894 97.5908 52.4396 97.866 52.86H97.8686ZM98.733 50.4022C98.3956 50.0875 98.2216 49.8013 98.0685 49.8116C97.8166 49.8296 97.5778 50.0385 97.3338 50.1649C97.448 50.3583 97.5545 50.7065 97.6765 50.7091C97.9516 50.7194 98.2346 50.5621 98.733 50.3996V50.4022Z" fill="#F6F6F6"/>
<path d="M77.9455 51.0521C77.9611 49.8477 78.7607 49.092 79.9886 49.1204C81.04 49.1462 81.8448 49.9973 81.824 51.0624C81.8006 52.3055 80.9336 53.2365 79.8199 53.2108C78.7425 53.185 77.93 52.2488 77.9455 51.0495V51.0521ZM78.7581 51.0315C78.7347 51.8258 79.2202 52.4628 79.8588 52.4783C80.4896 52.4938 81.014 51.8671 81.0063 51.0753C80.9985 50.4254 80.7363 49.9508 80.0094 49.8967C79.2747 49.84 78.7789 50.2964 78.7581 51.0315Z" fill="#F6F6F6"/>
<path d="M135.846 59.6143C135.887 57.9689 136.474 57.1565 137.458 57.2055C138.395 57.2519 139.034 58.2139 138.979 59.5369C138.969 59.8232 138.899 60.1095 138.831 60.3906C138.631 61.203 138.133 61.7085 137.261 61.7007C136.355 61.693 136.098 60.9966 135.911 60.29C135.838 60.014 135.853 59.7149 135.846 59.6143ZM138.307 59.5833C138.239 59.5395 138.172 59.4931 138.104 59.4492C138.07 59.1629 138.104 58.8457 137.99 58.5981C137.855 58.3144 137.59 58.0901 137.38 57.8425C137.177 58.0875 136.907 58.3067 136.791 58.5878C136.674 58.8715 136.63 59.2326 136.697 59.5318C136.817 60.0708 136.51 60.9734 137.349 60.9812C137.666 60.9837 137.987 60.0785 138.309 59.5885L138.307 59.5833Z" fill="#F6F6F6"/>
<path d="M73.5299 61.5539C73.8596 60.2515 74.1712 58.9414 74.545 57.6518C74.5995 57.4662 74.9915 57.2237 75.1732 57.2624C75.4951 57.332 75.9598 57.5384 76.0429 57.7885C76.4427 59.0394 76.7386 60.3211 77.0709 61.5926L76.871 61.8196C76.6244 61.621 76.3726 61.4327 76.1364 61.2238C75.8897 61.0097 75.6898 60.6461 75.4147 60.5868C74.9396 60.481 74.4515 60.5404 74.3659 61.2496C74.3425 61.4482 73.9427 61.6029 73.7143 61.7757C73.652 61.7009 73.5896 61.6261 73.5273 61.5539H73.5299ZM75.3601 58.0078C75.2719 58.0155 75.1836 58.0232 75.0953 58.031C75.0201 58.5029 74.898 58.9749 74.8955 59.4469C74.8955 59.6429 75.1525 59.8389 75.2926 60.0375C75.4147 59.8518 75.6535 59.6558 75.6405 59.4804C75.6016 58.9852 75.4614 58.5003 75.3601 58.0103V58.0078Z" fill="#F6F6F6"/>
<path d="M141.926 53.3421C141.689 53.0765 141.492 52.8367 141.277 52.6123C141.03 52.357 140.77 52.1171 140.519 51.8695C140.404 52.1403 140.313 52.4214 140.168 52.6742C140.056 52.865 139.877 53.0172 139.727 53.1848C139.628 52.9837 139.457 52.7851 139.444 52.5762C139.402 51.8411 139.444 51.101 139.402 50.3659C139.358 49.5922 139.478 49.0481 140.456 49.0687C141.541 49.0893 142.211 49.5484 142.177 50.4536C142.146 51.346 142.027 52.2332 141.926 53.3447V53.3421ZM140.924 49.6696C140.799 49.6748 140.677 49.6799 140.552 49.6877C140.428 49.9456 140.173 50.2267 140.212 50.4588C140.254 50.7038 140.583 51.0803 140.776 51.0726C141.012 51.0649 141.422 50.7141 141.417 50.5181C141.409 50.2318 141.103 49.9533 140.921 49.6696H140.924Z" fill="#F6F6F6"/>
<path d="M67.6272 53.2776C67.4195 53.0326 67.1859 52.7463 66.9392 52.4678C66.7419 52.2434 66.5343 52.0319 66.3292 51.8153C66.1812 52.0603 66.0332 52.3053 65.8878 52.5503C65.7606 52.767 65.636 52.9836 65.5088 53.2002C65.3946 52.9475 65.1999 52.6999 65.1843 52.4394C65.1428 51.7354 65.2207 51.0235 65.1713 50.322C65.1194 49.5819 65.1973 49.0712 66.1423 49.0789C67.1936 49.0867 67.8349 49.4787 67.9153 50.3014C67.9309 50.4587 67.9076 50.6212 67.892 50.7811C67.8141 51.5316 67.7336 52.2795 67.6272 53.2802V53.2776ZM67.4766 50.4561C66.973 50.1286 66.703 49.8191 66.4512 49.8346C66.2487 49.8475 65.9579 50.2343 65.919 50.4871C65.893 50.6547 66.2539 51.0467 66.4278 51.039C66.7004 51.0261 66.9626 50.7631 67.474 50.4587L67.4766 50.4561Z" fill="#F6F6F6"/>
<path d="M62.0737 53.3111C60.8821 52.3878 59.6958 52.1583 58.5146 53.3111C58.4367 53.2157 58.3562 53.1229 58.2783 53.0274C58.8417 51.6683 59.405 50.3091 59.9683 48.95C60.1345 48.95 60.3006 48.9474 60.4668 48.9448C61.0457 50.2937 61.6246 51.6425 62.2061 52.9913C62.162 53.0971 62.1179 53.2028 62.0763 53.3086L62.0737 53.3111ZM60.3811 50.3917C60.2617 50.3942 60.1397 50.3994 60.0177 50.402C59.906 50.8585 59.797 51.3124 59.649 51.9185C60.1085 51.8746 60.3889 51.8488 60.7965 51.8101C60.6303 51.2453 60.5031 50.8172 60.3785 50.3917H60.3811Z" fill="#F6F6F6"/>
<path d="M130.173 58.8021C130.391 58.8356 130.609 58.8666 130.827 58.9027C131.676 59.0445 132.151 59.7847 132.076 60.3856C132.016 60.8756 131.282 61.4508 130.721 61.6726C130.01 61.9511 129.423 61.4972 129.143 60.7622C128.605 59.3566 129.387 57.5384 130.669 57.3011C130.952 57.2495 131.282 57.4429 131.591 57.5229C131.36 57.6544 131.118 57.7679 130.903 57.9175C130.604 58.1238 130.326 58.3559 130.041 58.5777C130.085 58.6525 130.129 58.7273 130.173 58.8021ZM129.937 59.305C129.937 59.7641 129.869 60.1226 129.958 60.4372C130.03 60.6925 130.293 60.8963 130.472 61.1207C130.711 60.935 131.071 60.788 131.152 60.5481C131.227 60.3212 131.084 59.9266 130.903 59.7357C130.705 59.5294 130.35 59.4752 129.937 59.3024V59.305Z" fill="#F6F6F6"/>
<path d="M74.7709 53.3526C73.6105 52.1301 72.4527 52.2591 71.2949 53.3448C71.2196 53.252 71.1443 53.1591 71.0664 53.0663C71.6116 51.7948 72.1464 50.5182 72.7279 49.2648C72.7538 49.2106 73.4002 49.2829 73.4651 49.4273C74.0051 50.6085 74.4724 51.8206 74.9631 53.025C74.8982 53.1334 74.8333 53.2417 74.7658 53.35L74.7709 53.3526ZM73.5119 51.8464C73.3743 51.2661 73.2704 50.8277 73.1666 50.3893C73.0731 50.3815 72.9771 50.3738 72.8836 50.3661C72.746 50.838 72.6059 51.3126 72.4501 51.8464H73.5119Z" fill="#F6F6F6"/>
<path d="M71.9751 61.4171C71.2248 61.9226 70.3681 61.7343 69.54 61.6285C69.4335 61.6157 69.2856 61.3397 69.283 61.185C69.2622 59.9083 69.27 58.6317 69.27 57.3989H71.7907C71.8401 57.5072 71.892 57.613 71.9413 57.7213C70.8484 57.778 69.6905 57.7755 70.2383 59.3332C70.7367 59.4054 71.2637 59.4828 71.7907 59.5602C71.7881 59.6556 71.7829 59.751 71.7804 59.8464C71.5519 59.898 71.326 59.9805 71.095 59.9934C70.6277 60.0218 70.0981 60.0166 70.1526 60.6614C70.2149 61.381 70.8094 61.0689 71.217 61.0869C71.4558 61.0973 71.6947 61.0869 71.9335 61.0869C71.9491 61.1953 71.9621 61.3062 71.9777 61.4145L71.9751 61.4171Z" fill="#F6F6F6"/>
<path d="M102.4 52.9527C102.982 51.6271 103.561 50.3015 104.223 48.7927C105.601 50.1312 105.57 51.7741 106.268 53.2364C104.976 52.0346 103.719 52.4214 102.458 53.2957C102.439 53.1822 102.421 53.0662 102.4 52.9527ZM103.719 52.0165C104.267 51.8876 104.558 51.8179 104.929 51.7302C104.781 51.1861 104.662 50.7476 104.542 50.3092C104.456 50.3092 104.371 50.304 104.283 50.3015C104.119 50.7941 103.958 51.2892 103.719 52.0165Z" fill="#F6F6F6"/>
<path d="M87.2867 58.2656C87.9228 58.4333 88.8651 58.4049 89.1273 58.8124C89.5609 59.4778 89.5557 60.4269 89.727 61.2573C89.7374 61.3089 89.6907 61.4198 89.6595 61.4249C88.969 61.5307 88.268 61.7344 87.5905 61.6751C87.253 61.6442 86.9441 61.1413 86.6611 60.8189C86.5936 60.7415 86.6533 60.5223 86.7026 60.3856C86.9077 59.8156 87.1284 59.2534 87.3438 58.6886L87.2867 58.2708V58.2656ZM89.1481 60.5326C88.699 60.2412 88.429 59.9549 88.3018 60.0091C88.011 60.1277 87.7904 60.414 87.5411 60.6332C87.7177 60.8137 87.9279 61.1696 88.0603 61.1438C88.3693 61.0819 88.6419 60.8369 89.1481 60.5352V60.5326Z" fill="#F6F6F6"/>
<path d="M118.748 53.123C117.494 52.21 116.323 52.2538 115.168 53.3499C115.1 53.2468 115.03 53.1462 114.963 53.043C115.513 51.6916 116.064 50.3402 116.705 48.7644C118.008 50.1236 118.161 51.6632 118.748 53.1204V53.123ZM117.084 50.3582C116.97 50.3737 116.855 50.3866 116.744 50.4021C116.627 50.8379 116.51 51.2738 116.362 51.8206H117.551C117.372 51.2583 117.227 50.8096 117.084 50.3608V50.3582Z" fill="#F6F6F6"/>
<path d="M136.637 50.5903C136.622 52.3389 136.349 52.8572 135.295 53.1306C134.327 53.3808 133.493 52.9475 133.314 51.9829C133.174 51.2324 133.177 50.451 133.177 49.685C133.177 49.5174 133.447 49.3523 133.592 49.1873C133.706 49.3781 133.898 49.5587 133.919 49.7598C133.979 50.3349 133.956 50.9152 133.987 51.4929C134.02 52.081 134.28 52.4807 134.939 52.4678C135.568 52.4549 135.762 52.0552 135.783 51.5084C135.804 50.9952 135.783 50.4742 135.861 49.9687C135.905 49.6876 136.115 49.4297 136.253 49.1641C136.38 49.4478 136.536 49.7211 136.627 50.0151C136.681 50.1905 136.637 50.3968 136.637 50.5903Z" fill="#F6F6F6"/>
<path d="M127.52 51.2325C127.52 50.9745 127.515 50.7192 127.52 50.4613C127.541 49.1409 127.616 49.0506 128.639 49.0919C129.869 49.1409 130.383 49.6386 130.295 50.7063C130.235 51.4388 129.763 51.7947 129.091 51.8669C128.532 51.9288 128.166 52.0655 128.221 52.7283C128.234 52.883 128.024 53.0558 127.917 53.2209C127.785 53.0404 127.562 52.8701 127.541 52.6767C127.486 52.2022 127.523 51.7147 127.523 51.2325H127.52ZM128.005 50.3891C128.322 50.7914 128.494 51.0081 128.665 51.2247C128.94 50.972 129.278 50.7528 129.454 50.4458C129.506 50.353 129.117 49.8449 128.896 49.8191C128.665 49.7934 128.395 50.1235 128.005 50.3891Z" fill="#F6F6F6"/>
<path d="M116.419 60.9709C116.92 61.0586 117.388 61.1411 117.858 61.2237C117.852 61.3165 117.85 61.4068 117.845 61.4996C116.949 61.9071 115.994 61.5873 114.797 61.7034C115.417 60.9142 115.877 60.3416 116.323 59.7562C116.497 59.5292 116.679 59.292 116.78 59.0315C117.11 58.1649 116.837 57.8683 115.903 57.9509C115.659 57.9715 115.397 57.7884 115.142 57.7007C115.358 57.5692 115.589 57.3061 115.786 57.3293C116.352 57.3964 117.037 57.4222 117.429 57.7523C118.042 58.2655 117.749 58.9851 117.359 59.586C117.068 60.0347 116.762 60.4706 116.422 60.9709H116.419Z" fill="#F6F6F6"/>
<path d="M98.0079 60.1895C98.0079 60.0167 98.0079 59.9523 98.0079 59.8878C97.9845 58.3868 97.9845 58.4203 99.4643 58.4177C100.259 58.4177 100.682 58.6266 100.612 59.5061C100.568 60.0786 100.679 60.6641 100.643 61.2392C100.632 61.4094 100.362 61.5667 100.215 61.7292C100.061 61.5745 99.794 61.43 99.7758 61.2598C99.7057 60.6563 99.7472 60.0399 99.6849 59.4339C99.6668 59.2611 99.4487 59.1089 99.3215 58.949C99.1683 59.1192 98.9061 59.2791 98.8854 59.4648C98.8205 60.0374 98.8854 60.6254 98.8153 61.1953C98.7893 61.3965 98.5089 61.5641 98.3454 61.7447C98.2026 61.5409 97.9689 61.3501 97.9404 61.1334C97.8963 60.793 97.9897 60.432 98.0131 60.1895H98.0079Z" fill="#F6F6F6"/>
<path d="M53.1067 49.0454C53.6415 49.1073 53.9297 49.1357 54.2152 49.1744C54.9006 49.2698 55.2251 49.7108 55.2666 50.353C55.3133 51.1319 54.911 51.6709 54.1607 51.8179C53.5273 51.9417 53.0211 52.0448 53.1301 52.8598C53.1431 52.9604 52.9172 53.0945 52.803 53.2131C52.6888 53.0816 52.4811 52.9526 52.4785 52.8185C52.4525 51.7302 52.4214 50.6393 52.5018 49.5586C52.5174 49.3368 52.9821 49.146 53.1093 49.0454H53.1067ZM52.8653 50.3968C53.2287 50.7708 53.5429 51.1654 53.5922 51.1344C53.9115 50.9384 54.1711 50.6496 54.4515 50.3917C54.2074 50.1905 53.9816 49.8733 53.7116 49.8294C53.5117 49.7959 53.2521 50.1209 52.8653 50.3968Z" fill="#F6F6F6"/>
<path d="M133.708 61.1309C134.199 61.1076 134.596 61.087 135.004 61.0664C134.856 61.7524 133.869 61.9355 132.252 61.5435C132.654 61.0715 133.013 60.6615 133.358 60.2437C133.501 60.0709 133.677 59.8903 133.734 59.6866C133.877 59.1863 134.111 58.6318 133.999 58.1753C133.95 57.969 133.166 57.938 132.582 57.7962C132.623 57.7085 132.722 57.3526 132.802 57.3577C133.425 57.3938 134.199 57.3087 134.612 57.644C134.944 57.9122 135.019 58.7736 134.871 59.2739C134.684 59.9135 134.157 60.4526 133.714 61.136L133.708 61.1309Z" fill="#F6F6F6"/>
<path d="M122.021 61.2186C122.645 60.7828 124.031 61.5926 123.766 60.0091H122.491C122.704 59.6944 122.816 59.3617 122.956 59.3488C123.732 59.2766 123.906 58.7815 123.719 58.1986C123.473 57.4249 122.94 57.9871 122.523 58.0568C122.465 58.0671 122.401 58.0387 122.133 57.9923C122.323 57.7137 122.489 57.3063 122.606 57.3191C123.205 57.3888 123.805 57.5255 124.368 57.7344C124.503 57.7834 124.537 58.196 124.558 58.4462C124.615 59.1167 124.753 59.8131 124.638 60.4578C124.566 60.8705 124.168 61.3837 123.784 61.541C123.247 61.7654 122.51 62.0388 122.024 61.2161L122.021 61.2186Z" fill="#F6F6F6"/>
<path d="M125.425 61.4559C125.776 61.0252 126.134 60.6048 126.471 60.1638C126.726 59.8337 127.037 59.5113 127.159 59.1322C127.268 58.8021 127.253 58.343 127.092 58.049C127.016 57.9072 126.477 58.0077 126.149 58.0103C125.999 58.0103 125.851 58.0387 125.42 58.0825C125.698 57.7112 125.838 57.363 125.981 57.363C126.536 57.3604 127.188 57.3062 127.629 57.5693C128.294 57.9639 128.302 58.7067 127.941 59.3669C127.637 59.9214 127.263 60.4372 126.861 61.0639C127.351 61.0948 127.762 61.1206 128.172 61.1438L128.195 61.474C127.364 61.9356 126.435 61.5926 125.558 61.6751C125.513 61.6003 125.469 61.5281 125.428 61.4533L125.425 61.4559Z" fill="#F6F6F6"/>
<path d="M65.7295 61.1257C66.1682 61.1025 66.5005 61.1231 66.8146 61.0561C67.0664 61.0045 67.4455 60.8936 67.4948 60.7285C67.5571 60.5196 67.4039 60.1715 67.2326 59.9884C66.9964 59.7382 66.5395 59.6531 66.3863 59.3797C66.1604 58.98 65.9346 58.4229 66.0514 58.0335C66.15 57.7033 66.703 57.4145 67.108 57.2959C67.4169 57.2056 67.8141 57.4093 68.1698 57.4815C68.1516 57.5847 68.1308 57.6904 68.1127 57.7936C67.9673 57.8297 67.8219 57.8632 67.6791 57.8993C67.3936 57.969 67.108 58.0386 66.8224 58.1082C66.973 58.3919 67.0846 58.7066 67.2845 58.9542C67.461 59.1734 67.7492 59.3023 67.9569 59.5009C68.5124 60.0399 68.5384 60.8111 68.0374 61.3011C67.4922 61.8324 66.3344 61.8117 65.7295 61.1231V61.1257Z" fill="#F6F6F6"/>
<path d="M108.366 60.1301C108.359 58.9747 108.865 58.3557 109.807 58.3686C110.822 58.3815 111.362 58.954 111.378 60.0424C111.393 61.074 110.82 61.6698 109.786 61.6878C108.883 61.7059 108.371 61.1462 108.366 60.1327V60.1301ZM110.931 59.965C110.441 59.524 110.134 59.2481 109.828 58.9721C109.618 59.3538 109.252 59.7303 109.241 60.1172C109.233 60.4344 109.644 60.7619 109.869 61.0843C110.163 60.7748 110.456 60.4654 110.931 59.965Z" fill="#F6F6F6"/>
<path d="M61.124 57.7756C59.203 58.1109 58.7954 58.4075 58.8006 59.4159C58.8058 60.5172 59.2134 60.8318 61.0981 61.149C60.8489 61.982 60.1817 61.7138 59.6806 61.6519C58.6864 61.5307 58.0088 60.6925 57.9387 59.6222C57.8712 58.5958 58.4787 57.6157 59.3691 57.3243C60.1609 57.0638 60.7684 57.2005 61.1266 57.7731L61.124 57.7756Z" fill="#F6F6F6"/>
<path d="M97.162 60.0786C97.1802 61.0973 96.5831 61.7111 95.5706 61.7111C94.7503 61.7111 94.2155 61.069 94.2129 60.0838C94.2103 59.0109 94.7191 58.3945 95.6225 58.379C96.5675 58.361 97.1412 58.9954 97.162 60.0786ZM94.6568 59.9961C95.0358 60.5042 95.2773 60.824 95.5187 61.1463C95.7861 60.7698 96.2067 60.4139 96.2664 60.0064C96.3105 59.7124 95.877 59.3462 95.6537 59.0135C95.3629 59.3023 95.0696 59.5886 94.6568 59.9961Z" fill="#F6F6F6"/>
<path d="M119.713 58.2371C119.391 58.299 119.134 58.3506 118.828 58.4099C118.76 57.4531 119.306 57.2855 120.025 57.2545C120.861 57.2184 120.632 57.8039 120.643 58.2449C120.663 59.1733 120.705 60.1044 120.656 61.0302C120.643 61.2727 120.328 61.4996 120.152 61.7317C120.007 61.5074 119.747 61.2881 119.734 61.0534C119.685 60.1301 119.713 59.2017 119.713 58.2346V58.2371Z" fill="#F6F6F6"/>
<path d="M92.0373 61.6002C91.1832 61.8942 90.7107 61.6802 90.5757 60.8497C90.4563 60.1121 90.3473 59.3745 90.0176 58.6266C90.1266 58.477 90.2045 58.2655 90.3525 58.1908C90.6977 58.0154 91.0768 57.9071 91.4428 57.7729C91.5103 58.2707 92.6552 58.6343 91.5778 59.3255C91.3519 59.47 91.4869 60.2591 91.5596 60.7337C91.6038 61.02 91.8504 61.2753 92.0373 61.5951V61.6002Z" fill="#F6F6F6"/>
<path d="M124.942 49.5329C123.276 49.6644 123.621 50.794 123.598 51.7354C123.585 52.2073 123.598 52.6819 123.598 53.1538C123.515 53.1977 123.429 53.2415 123.346 53.2854C123.18 53.0997 122.969 52.9372 122.863 52.7231C122.785 52.5684 122.863 52.344 122.842 52.1532C122.736 51.1319 123.447 49.7856 121.744 49.2646H124.74L124.942 49.5303V49.5329Z" fill="#F6F6F6"/>
<path d="M93.2393 57.2702C93.3536 57.4971 93.5457 57.7189 93.569 57.9562C93.6651 58.9749 93.7404 59.9988 93.7534 61.0201C93.756 61.2548 93.473 61.492 93.3224 61.7267C93.1641 61.5101 92.8785 61.2986 92.8707 61.0742C92.8266 59.844 92.8499 58.6087 92.8499 57.3759C92.9797 57.3398 93.1095 57.3037 93.2419 57.2676L93.2393 57.2702Z" fill="#F6F6F6"/>
<path d="M88.1377 50.9437C88.5453 50.6317 88.9191 50.1288 89.3656 50.0514C90.0691 49.9302 90.3547 50.495 90.3677 51.163C90.3807 51.8851 89.9601 52.3261 89.3111 52.2281C88.8879 52.1662 88.5297 51.6865 88.1429 51.3951C88.1429 51.2455 88.1429 51.0933 88.1403 50.9437H88.1377Z" fill="#F6F6F6"/>
<path d="M83.6238 61.6518C83.6238 60.3133 83.6108 58.9748 83.6419 57.6388C83.6445 57.497 83.8964 57.2494 84.034 57.252C84.1923 57.252 84.4831 57.466 84.4883 57.595C84.5376 58.8407 84.5635 60.0915 84.5194 61.3372C84.5142 61.51 84.0988 61.6673 83.873 61.8298L83.6238 61.6518Z" fill="#F6F6F6"/>
<path d="M85.8427 57.1772C85.931 57.3397 86.0868 57.497 86.0997 57.6647C86.1854 58.8846 86.2555 60.107 86.2867 61.3295C86.2893 61.461 86.0167 61.6957 85.8583 61.7112C85.7181 61.7241 85.4274 61.4946 85.4248 61.3682C85.3936 60.0348 85.404 58.6989 85.404 57.3655C85.552 57.3036 85.6974 57.2391 85.8453 57.1772H85.8427Z" fill="#F6F6F6"/>
</g>
<defs>
<clipPath id="clip0_786_1997">
<rect width="143" height="62" fill="white"/>
</clipPath>
</defs>
</svg>
