<svg width="213" height="175" viewBox="0 0 213 175" fill="none" xmlns="http://www.w3.org/2000/svg">
<path d="M255.658 108.216C255.393 108.198 255.127 108.206 254.855 108.25L253.096 105.926L236.65 73.4575L242.885 67.4313C243.76 68.0649 244.902 68.3096 246.022 67.9936C246.126 67.9628 246.224 67.9272 246.323 67.8899L255.658 108.216ZM254.333 135.613C253.913 135.043 253.336 134.61 252.683 134.364L255.062 115.48C255.506 115.524 255.963 115.492 256.418 115.364C256.46 115.351 256.499 115.334 256.541 115.321L254.333 135.613ZM251.257 163.895C250.551 163.617 249.794 163.464 249.018 163.464L251.797 141.396C251.993 141.375 252.192 141.34 252.388 141.285C252.93 141.131 253.404 140.86 253.8 140.512L251.257 163.895ZM247.364 163.696C246.474 163.947 245.687 164.386 245.032 164.957L225.443 137.895C226.477 137.243 227.119 136.111 227.146 134.892L247.767 137.391C247.72 137.841 247.752 138.306 247.884 138.768C248.26 140.097 249.324 141.043 250.58 141.33L247.774 163.595C247.637 163.625 247.501 163.655 247.364 163.696ZM231.208 197.466L230.813 193.945L245.066 174.165C245.299 174.364 245.549 174.543 245.808 174.705L233.577 198.432C232.91 197.813 232.071 197.456 231.208 197.466ZM209.176 224.993C209.039 224.845 208.894 224.701 208.742 224.568L225.908 200.749L228.037 201.099C228.041 201.476 228.096 201.864 228.206 202.249C228.454 203.123 228.943 203.849 229.562 204.361L209.176 224.993ZM182.298 242.313C181.849 241.543 181.141 240.975 180.319 240.694L181.045 238.57L199.227 231.732C199.336 231.961 199.461 232.176 199.592 232.383L182.298 242.313ZM143.247 253.986C143.132 253.62 142.987 253.273 142.816 252.946L158.397 247.087L175.542 244.734C175.563 244.87 175.591 245.006 175.63 245.141C175.635 245.155 175.64 245.168 175.643 245.18L143.247 253.986ZM112.975 254.203C112.999 253.913 112.993 253.618 112.944 253.322L134.785 250.324C132.708 251.33 131.397 253.432 131.365 255.702L112.975 254.203ZM82.4229 245.688C82.9122 244.478 83.0208 243.102 82.6367 241.749C82.4634 241.135 82.2009 240.571 81.8687 240.064L98.2053 229.058L108.256 250.42C107.109 250.78 106.26 251.656 105.894 252.719L82.4229 245.688ZM69.3335 212.518L84.659 208.689C84.6816 208.805 84.7092 208.922 84.7416 209.04C85.3282 211.108 87.271 212.369 89.081 211.855C89.3872 211.769 89.6692 211.633 89.9252 211.463L97.6803 227.944L81.0974 239.119C79.7735 237.789 77.868 237.11 75.9333 237.387L69.3335 212.518ZM47.2738 215.12L44.7363 212.847L55.7807 166.195L64.6636 199.667L47.2738 215.12ZM68.0891 212.578L49.5925 217.199L47.4553 215.284L64.7349 199.931L68.0891 212.578ZM74.7504 237.677C74.2173 237.867 73.7247 238.124 73.2807 238.437L49.8113 217.395L68.1523 212.813L74.7504 237.677ZM46.5462 217.961C46.5235 217.845 46.4976 217.73 46.4652 217.617C46.3566 217.236 46.2027 216.885 46.0131 216.565L46.5414 216.097L48.1666 217.555L46.5462 217.961ZM44.234 214.964L44.4171 214.193L46.3583 215.933L45.8786 216.36C45.4509 215.728 44.8773 215.245 44.234 214.964ZM42.1259 214.799C41.7937 214.895 41.4891 215.044 41.2152 215.235L36.7025 207.276L44.2113 214.008L44.0055 214.874C43.4043 214.661 42.7578 214.621 42.1259 214.799ZM34.818 203.954L31.1219 197.435C31.3407 196.473 31.3293 195.444 31.0409 194.428C30.7185 193.289 30.0914 192.321 29.2747 191.581L51.3344 163.404C52.4703 164.263 53.8946 164.715 55.3659 164.626L55.6495 165.695L44.5289 212.66L34.818 203.954ZM30.0784 199.704C30.5078 199.122 30.8319 198.467 31.0328 197.772L34.2492 203.442L30.0784 199.704ZM6.9217 154.76C8.27632 154.069 9.06544 152.595 8.88072 151.073L36.871 142.527L50.1046 154.959C49.0351 156.419 48.6235 158.339 49.155 160.215C49.411 161.118 49.8583 161.915 50.44 162.575L28.2944 190.858C27.912 190.631 27.5036 190.445 27.0775 190.306L6.9217 154.76ZM23.5321 190.236C23.3539 190.286 23.1821 190.345 23.012 190.409L6.25572 155.022C6.25734 155.022 6.25734 155.022 6.25734 155.022C6.40966 154.978 6.55711 154.923 6.6997 154.862L26.7437 190.207C25.7229 189.936 24.6194 189.928 23.5321 190.236ZM5.68535 120.955C6.64137 121.169 7.6622 121.156 8.67007 120.87C9.21128 120.717 9.71359 120.492 10.1738 120.213L5.78257 147.901C5.53142 147.865 5.27054 147.855 5.00966 147.871L5.68535 120.955ZM15.6069 76.7063C16.0298 76.9915 16.4981 77.1827 16.9826 77.2572L13.8941 96.7357L7.61683 108.968C7.50665 108.957 7.39646 108.95 7.28466 108.944L15.6069 76.7063ZM40.8344 41.8133C41.0791 42.126 41.3497 42.416 41.6479 42.6721L34.3756 56.839L19.8668 71.1841C19.5314 70.7093 19.1101 70.3221 18.6418 70.0466L40.8344 41.8133ZM74.6759 15.6394C74.7893 15.9667 74.9448 16.2681 75.1344 16.5387L63.693 27.8522L50.2115 34.0776C50.0268 33.867 49.8291 33.6693 49.6185 33.4862L74.6759 15.6394ZM105.706 7.28803C105.74 7.47924 105.784 7.67044 105.837 7.86002C105.883 8.01558 105.934 8.1679 105.988 8.31697L94.0328 13.8392L81.752 14.8098C81.7958 14.3674 81.7634 13.9105 81.6337 13.4584C81.5624 13.2089 81.4668 12.9723 81.3518 12.7535L105.706 7.28803ZM155.965 8.32021C155.921 8.526 155.894 8.73827 155.886 8.95215L134.989 10.6017L117.729 6.92021C117.755 6.70308 117.768 6.48433 117.77 6.26396L155.965 8.32021ZM195.944 22.4612C195.787 22.8047 195.659 23.1612 195.567 23.529L165.052 17.0184L161.915 11.8316C162.411 11.4022 162.782 10.8464 162.988 10.2322L195.944 22.4612ZM242.856 61.5542C242.686 61.6806 242.528 61.82 242.384 61.9707L227.77 51.6116C228.021 50.9181 228.067 50.142 227.849 49.3772C227.3 47.4376 225.283 46.3114 223.345 46.8607C223.321 46.8688 223.299 46.8769 223.275 46.8834L207.266 26.8297C207.293 26.7325 207.326 26.6353 207.352 26.5364L242.856 61.5542ZM226.458 53.339C226.997 52.9533 227.415 52.4316 227.676 51.8385L242.221 62.1522C241.48 63.0466 241.177 64.2781 241.516 65.4772C241.725 66.2112 242.144 66.8269 242.689 67.2822L236.536 73.2323L226.458 53.339ZM234.952 74.7619C233.543 73.148 231.337 72.3427 229.134 72.798L221.805 59.6471L223.518 53.9272C224.098 54.0616 224.722 54.0568 225.335 53.8818C225.667 53.7894 225.975 53.6468 226.253 53.4767L236.352 73.4089L234.952 74.7619ZM235.256 82.363C236.332 80.9015 236.747 78.9765 236.214 77.0936C235.985 76.2867 235.601 75.5656 235.109 74.9498L236.467 73.6341L252.272 104.838L235.256 82.363ZM251.912 112.847C251.964 113.03 252.032 113.204 252.108 113.372L240.918 121.419L223.813 94.8415L227.747 84.2427C229.034 84.8552 230.541 85.0237 232.022 84.6056C232.946 84.3431 233.757 83.8813 234.427 83.2802L253.646 108.668C252.202 109.472 251.442 111.186 251.912 112.847ZM241.576 122.443L252.792 114.38C253.105 114.704 253.474 114.965 253.879 115.154L251.487 134.124C251.129 134.114 250.762 134.16 250.399 134.264C250.057 134.359 249.741 134.505 249.454 134.685L241.576 122.443ZM226.731 133.118L241.378 122.585L249.253 134.823C248.483 135.382 247.965 136.219 247.801 137.149L227.14 134.646C227.128 134.37 227.088 134.092 227.008 133.815C226.939 133.568 226.846 133.335 226.731 133.118ZM219.234 107.173L223.706 95.1251L240.72 121.561L225.993 132.151C225.278 131.481 224.311 131.114 223.304 131.167L219.234 107.173ZM243.172 171.205C243.188 171.261 243.206 171.317 243.224 171.372L229.086 178.649L227.078 160.849L243.102 168.16C242.874 169.132 242.88 170.174 243.172 171.205ZM229.115 178.906L243.305 171.607C243.522 172.219 243.833 172.775 244.212 173.267L230.609 192.145L229.115 178.906ZM205.3 223.079L204.779 197.27L224.567 200.529L207.754 223.86C207.007 223.433 206.172 223.162 205.3 223.079ZM186.78 221.77L198.994 227.108C198.612 228.19 198.529 229.392 198.822 230.585L181.554 237.078L186.78 221.77ZM178.331 238.291L175.351 216.776L186.556 221.673L181.259 237.189L178.331 238.291ZM178.64 240.536L178.501 239.526L180.75 238.68L180.087 240.626C179.624 240.501 179.136 240.467 178.64 240.536ZM175.75 240.561L176.596 241.534C175.818 242.292 175.405 243.376 175.512 244.492L159.426 246.699L175.75 240.561ZM137.452 249.713C137.421 249.713 137.387 249.713 137.355 249.713L139.541 207.018C140.429 207.18 141.362 207.146 142.287 206.885C143.378 206.577 144.313 205.988 145.039 205.221L174.899 239.581L153.985 247.446L137.452 249.713ZM138.531 249.812L152.959 247.832L142.119 251.907C141.207 250.81 139.93 250.067 138.531 249.812ZM91.3916 207.61L134.557 201.376C134.581 201.814 134.652 202.254 134.777 202.693C134.796 202.765 134.821 202.836 134.843 202.906L97.8844 227.808L90.1261 211.315C91.1437 210.515 91.659 209.086 91.3916 207.61ZM65.7525 199.026L90.2444 177.262L97.8034 181.045L89.2025 204.594C88.5041 204.252 87.7198 204.15 86.9566 204.367C85.3201 204.831 84.3576 206.586 84.6201 208.447L69.2703 212.283L65.7525 199.026ZM60.1654 135.416C60.6143 136.169 61.3127 136.726 62.1212 137.004L56.1502 152.583C55.2476 152.41 54.2916 152.438 53.3469 152.705C52.412 152.971 51.5921 153.441 50.918 154.053L38.2127 142.119L60.1654 135.416ZM24.0004 128.769L44.8821 102.619C45.6534 102.989 46.556 103.091 47.4455 102.84C47.5039 102.823 47.5606 102.801 47.6189 102.781L61.2965 130.498C59.9969 131.348 59.3407 132.972 59.7863 134.545C59.83 134.698 59.8851 134.844 59.9467 134.986L37.8918 141.818L24.0004 128.769ZM11.7034 118.886L23.0606 129.555L7.69461 148.797C7.22146 148.374 6.64623 148.077 6.02239 147.943L10.4476 120.037C10.9224 119.711 11.3437 119.324 11.7034 118.886ZM11.6256 111.057C10.8867 110.198 9.92262 109.564 8.85318 109.222L13.2833 100.591L11.6256 111.057ZM12.4131 112.223L43.0268 100.582C43.333 101.423 43.9245 102.094 44.6601 102.507L23.8222 128.602L12.3872 117.86C13.0921 116.525 13.306 114.928 12.862 113.361C12.7485 112.959 12.5979 112.58 12.4131 112.223ZM24.0231 79.6684L43.3703 97.379C42.9992 97.964 42.7967 98.6526 42.8048 99.3656L11.859 111.133L13.6398 99.8971L24.0231 79.6684ZM18.2837 77.1827C18.9854 76.9834 19.5638 76.5443 19.9754 75.9642L23.093 78.8177L14.2506 96.0422L17.224 77.2864C17.5756 77.314 17.9321 77.2816 18.2837 77.1827ZM20.609 73.0362L26.9268 71.3494L23.208 78.5941L20.1115 75.7584C20.5733 74.9968 20.7661 74.0279 20.609 73.0362ZM27.0775 71.0577L20.5652 72.7948C20.5458 72.7008 20.5247 72.6052 20.4972 72.5096C20.3821 72.1029 20.2136 71.7285 20.0029 71.3915L34.0191 57.5325L27.0775 71.0577ZM46.483 45.2096L46.4506 65.8839L28.6606 70.6348L36.7948 54.7876L46.483 45.2096ZM46.4847 44.098L46.483 44.8677L37.1513 54.0941L42.6525 43.3785C43.7884 44.0186 45.1284 44.2908 46.4847 44.098ZM77.7708 22.6897L78.5793 54.0373C78.4675 54.0584 78.3541 54.0843 78.2423 54.1167C77.3398 54.3728 76.6171 54.948 76.1536 55.6836L51.0217 40.8832C51.0768 40.7811 51.127 40.6758 51.1756 40.5704L61.7988 30.0656L77.7708 22.6897ZM77.6509 18.07L77.7367 21.3658L64.3428 27.5524L75.2786 16.738C75.8668 17.4704 76.7208 17.9485 77.6509 18.07ZM86.6861 17.2322L81.5057 15.8128C81.6029 15.5697 81.6742 15.3153 81.718 15.0561L93.396 14.1341L86.6861 17.2322ZM108.982 12.9026L105.78 22.4644L88.5073 17.7313L96.8944 13.8554L108.982 12.9026ZM109.347 11.8121L109.067 12.6515L97.5328 13.5621L106.523 9.4091C107.198 10.4996 108.195 11.3292 109.347 11.8121ZM116.394 12.0714L115.593 10.8626C116.464 10.1334 117.11 9.17415 117.463 8.10632L130.736 10.9387L116.394 12.0714ZM149.529 14.9491L130.888 27.191C130 26.4878 128.801 26.2042 127.628 26.538C127.158 26.6693 126.737 26.8913 126.375 27.1732L116.546 12.3047L131.569 11.117L149.529 14.9491ZM156.023 10.0686C156.072 10.2403 156.135 10.4056 156.206 10.5644L150.96 14.011L135.822 10.7799L155.889 9.19521C155.9 9.48526 155.939 9.77692 156.023 10.0686ZM180.886 43.6816L176.515 48.0225C170.051 45.3765 161.113 41.7112 152.332 38.1123C145.215 35.1941 138.105 32.2774 132.265 29.8857C132.252 29.6086 132.212 29.3299 132.133 29.0529C131.94 28.3755 131.567 27.7987 131.081 27.3563L149.864 15.0204L165.588 18.3746L180.886 43.6816ZM196.366 28.3091L181.065 43.5049L165.914 18.4459L195.393 24.7362C195.368 25.3665 195.436 26.0147 195.617 26.6547C195.787 27.2575 196.043 27.81 196.366 28.3091ZM203.126 30.8482C203.482 30.7478 203.821 30.6149 204.142 30.4577L215.196 50.2927L189.714 51.4804C189.021 49.7887 187.149 48.8489 185.347 49.3593C185.137 49.4209 184.937 49.5003 184.746 49.5927L181.711 44.576L197.132 29.2619C198.642 30.7915 200.916 31.4737 203.126 30.8482ZM216.687 50.4677L220.691 50.2797C220.681 50.6378 220.726 51.004 220.828 51.367C221.162 52.5466 222.042 53.4216 223.113 53.8056L221.541 59.1755L216.687 50.4677ZM224.348 77.8616L216.607 76.9899L221.318 61.2723L227.952 73.1723C225.986 74.0181 224.652 75.82 224.348 77.8616ZM216.756 83.8781C217.641 82.9739 218.032 81.6355 217.662 80.3311C217.419 79.4772 216.893 78.782 216.212 78.317L216.256 78.1744L224.291 79.0785C224.315 79.5209 224.385 79.9665 224.512 80.4121C224.887 81.7327 225.67 82.8281 226.688 83.5978L222.988 93.5614L216.756 83.8781ZM215.428 84.7417C215.862 84.5813 216.249 84.3415 216.577 84.0482L222.883 93.8466L218.826 104.774L215.428 84.7417ZM213.034 120.38L199.721 103.264C200.76 102.365 201.248 100.918 200.849 99.5114C200.689 98.9492 200.405 98.4582 200.037 98.0547L212.031 84.2929C212.903 84.9151 214.037 85.1533 215.147 84.8373C215.164 84.8325 215.178 84.826 215.194 84.8211L218.657 105.23L213.034 120.38ZM221.762 131.603L213.913 121.51L219.065 107.629L223.061 131.19C222.877 131.212 222.69 131.245 222.504 131.298C222.238 131.373 221.993 131.478 221.762 131.603ZM209.389 151.289C209.881 150.077 209.99 148.699 209.604 147.345C209.457 146.82 209.241 146.332 208.975 145.885L220.866 137.336C221.726 138.23 223.018 138.653 224.299 138.365L226.652 159.235L209.389 151.289ZM203.928 155.084C204.419 155.069 204.918 154.996 205.414 154.855C206.819 154.455 207.969 153.595 208.742 152.483L226.822 160.731L228.856 178.769L204.657 191.221L203.928 155.084ZM199.088 194.088C198.474 193.214 197.574 192.641 196.615 192.509L202.329 154.915C202.455 154.944 202.581 154.973 202.709 154.996L203.453 191.84L199.088 194.088ZM199.867 196.214C199.841 195.948 199.793 195.677 199.715 195.408C199.602 195.001 199.431 194.629 199.222 194.292L203.458 192.112L203.554 196.821L199.867 196.214ZM194.447 199.313C195.304 200.06 196.426 200.386 197.502 200.081C199.002 199.657 199.935 198.145 199.879 196.461L203.559 197.069L204.084 223.087C203.745 223.123 203.406 223.186 203.068 223.283C201.518 223.723 200.281 224.726 199.514 226.006L187.175 220.615L194.447 199.313ZM169.941 177.704L173.118 175.076L193.428 194.24C192.986 195.104 192.858 196.188 193.164 197.267C193.374 198.007 193.762 198.644 194.251 199.133L186.951 220.517L175.155 215.365L169.941 177.704ZM146.442 202.82C146.774 201.736 146.812 200.548 146.478 199.375C146.309 198.774 146.052 198.22 145.729 197.722L169.719 177.887L174.893 215.25L146.442 202.82ZM133.414 167.927L165.653 170.822C165.639 171.255 165.687 171.702 165.815 172.148C165.932 172.563 166.105 172.94 166.319 173.282L144.686 196.507C143.265 195.235 141.276 194.658 139.303 195.099L133.414 167.927ZM106.855 167.483C107.198 166.922 107.39 166.267 107.39 165.59L132.146 167.813L138.143 195.484C137.652 195.705 137.199 195.983 136.794 196.312L106.855 167.483ZM98.4435 180.005L102.464 168.998C103.168 169.264 103.959 169.317 104.739 169.095C105.573 168.86 106.255 168.35 106.72 167.692L136.608 196.47C136 197.006 135.509 197.657 135.158 198.378L98.4435 180.005ZM100.864 167.825C101.23 168.295 101.704 168.664 102.237 168.907L98.2231 179.895L91.2231 176.393L100.864 167.825ZM60.5543 161.045C61.1004 159.828 61.2511 158.426 60.8946 157.043L81.6823 148.025L101.261 162.913C100.291 163.816 99.8451 165.216 100.232 166.58C100.341 166.963 100.509 167.314 100.722 167.627L90.9898 176.275L60.5543 161.045ZM59.9451 162.101L90.0094 177.145L65.6828 198.762L56.5715 164.432C56.6022 164.423 56.633 164.417 56.6654 164.407C58.0428 164.017 59.1722 163.181 59.9451 162.101ZM58.5159 153.59C58.1416 153.327 57.7397 153.107 57.3185 152.933L60.8557 143.702L58.5159 153.59ZM64.2909 137.06C64.9472 136.874 65.5062 136.519 65.9421 136.057L80.4703 147.103L60.4425 155.831C60.0261 154.999 59.4347 154.295 58.7282 153.747L61.5104 141.996L63.3511 137.195C63.6622 137.19 63.9782 137.149 64.2909 137.06ZM50.03 100.012L76.4485 99.62L64.73 130.195C63.9895 129.879 63.1388 129.801 62.3011 130.039C62.0175 130.119 61.7518 130.235 61.5055 130.375L47.8474 102.697C49.0043 102.219 49.8048 101.193 50.03 100.012ZM46.4069 95.6841C46.0909 95.6873 45.7717 95.7279 45.4541 95.8186C44.6407 96.0487 43.9715 96.5413 43.508 97.1748L24.1381 79.4447L28.5115 70.9265L46.4506 66.1367L46.4069 95.6841ZM64.4513 61.3322L70.1858 68.2853L48.7904 96.5299C48.1925 96.0309 47.4423 95.7327 46.6499 95.689L46.6953 66.0735L64.4513 61.3322ZM75.6238 58.098L65.5726 60.7813L50.1742 42.1147C50.4529 41.8019 50.6976 41.46 50.9067 41.0987L76.0289 55.8927C75.674 56.5505 75.5217 57.3186 75.6238 58.098ZM81.0358 60.7991L88.6678 73.5839L86.5256 79.9827C85.2877 79.4512 83.865 79.3248 82.4666 79.7202C82.1296 79.8158 81.8071 79.939 81.4992 80.088L71.0997 67.4816L76.6317 60.1802C77.5358 61.1022 78.9034 61.5154 80.2337 61.1378C80.5205 61.0552 80.7863 60.9385 81.0358 60.7991ZM115.012 70.5862L93.558 62.8084L99.2828 45.7086L125.124 31.0799C125.452 32.1883 126.259 33.0228 127.254 33.4279L115.012 70.5862ZM131.58 37.2552L144.899 71.9943L128.547 75.4943L115.24 70.6704L127.482 33.5137C128.022 33.692 128.607 33.7438 129.196 33.6498L131.58 37.2552ZM158.046 66.3635C156.537 64.8436 154.272 64.1679 152.066 64.7934C151.835 64.8582 151.611 64.9392 151.394 65.0283L130.384 33.2415C131.518 32.616 132.235 31.4332 132.27 30.1515C138.092 32.5366 145.162 35.4355 152.24 38.336C160.661 41.789 169.085 45.2436 175.406 47.8313C175.719 47.9593 176.025 48.0841 176.327 48.2089L158.046 66.3635ZM183.045 50.9538C183.1 50.9765 183.148 50.9975 183.202 51.0186C182.712 51.8466 182.549 52.8674 182.831 53.8656C182.884 54.0503 182.952 54.2253 183.032 54.3938C182.317 55.0355 181.431 55.8343 180.322 56.839C177.412 59.4785 173.374 63.1714 168.324 67.8154C167.108 68.9318 165.893 70.0498 164.699 71.1485L159.809 70.5975C159.802 70.0644 159.729 69.5232 159.577 68.9836C159.405 68.376 159.146 67.8154 158.815 67.3114L177.55 48.7096C179.763 49.6154 181.637 50.3802 183.045 50.9538ZM183.335 50.8096C181.92 50.2327 180.011 49.4533 177.74 48.5232L181.534 44.7526L184.531 49.7061C184.046 49.9848 183.639 50.3623 183.335 50.8096ZM191.111 74.1202L165.018 71.1841C172.152 64.6151 179.293 58.0704 183.143 54.6207C183.877 55.9672 185.401 56.7272 186.942 56.4695L191.111 74.1202ZM209.698 76.2121L191.368 74.1494L187.18 56.4177C187.233 56.4047 187.285 56.3966 187.337 56.3804C187.961 56.2054 188.496 55.8765 188.922 55.4503L209.698 76.2121ZM211.464 77.6348L213.135 77.8228C212.765 77.9313 212.427 78.0917 212.125 78.2927L211.464 77.6348ZM197.937 147.23L180.906 142.613C183.252 136.853 185.602 131.092 187.948 125.334L199.879 144.316C198.958 145.079 198.284 146.097 197.937 147.23ZM199.454 153.303C200.188 154.035 201.099 154.57 202.092 154.854L196.374 192.483C196.043 192.466 195.709 192.498 195.379 192.592C194.595 192.814 193.964 193.334 193.549 194.018L173.308 174.919L199.454 153.303ZM171.93 173.617C172.511 172.712 172.712 171.5 172.368 170.291C172.248 169.871 172.07 169.484 171.849 169.137L198.179 151.428C198.32 151.759 198.49 152.068 198.683 152.361L172.417 174.078L171.93 173.617ZM169.574 175.064C169.769 175.05 169.962 175.019 170.153 174.964C170.825 174.774 171.384 174.364 171.79 173.822L172.229 174.233L169.745 176.288L169.574 175.064ZM150.613 135.664L180.207 143.683C176.934 151.708 173.664 159.734 170.391 167.761C169.665 167.373 168.836 167.246 168.029 167.476C167.85 167.525 167.682 167.596 167.52 167.677L150.613 135.664ZM133.353 167.642L145.755 168.79L133.361 167.679L133.353 167.642ZM104.128 138.292L118.449 132.081C119.709 134.422 122.396 135.709 125.065 135.139L127.349 145.677L106.101 162.8C105.547 162.333 104.862 162.038 104.134 161.959L104.128 138.292ZM103.885 138.395L103.891 161.939C103.515 161.925 103.13 161.967 102.747 162.076C102.258 162.213 101.82 162.447 101.448 162.748L81.9384 147.915L103.885 138.395ZM66.8073 132.556C66.7004 132.178 66.5384 131.835 66.3326 131.525L99.5291 102.906L103.877 107.942L103.885 136.901L80.7247 146.993L66.1057 135.876C66.8446 134.983 67.1476 133.753 66.8073 132.556ZM77.7578 99.6005L96.4391 99.3251L99.3703 102.721L66.1884 131.329C66.0636 131.164 65.9226 131.013 65.7735 130.874L77.7578 99.6005ZM49.8437 97.9899L78.2634 87.182C78.2682 87.1982 78.2698 87.2144 78.2747 87.2306C78.6036 88.3908 79.2502 89.3744 80.0895 90.1198L76.5425 99.3753L50.0722 99.7691C50.1289 99.3024 50.0965 98.8163 49.9604 98.3334C49.9263 98.2167 49.8874 98.1017 49.8437 97.9899ZM96.2317 99.0836L77.8518 99.3575L81.112 90.8522C82.4812 91.6332 84.1502 91.886 85.7851 91.4225C86.7816 91.139 87.6486 90.6237 88.3453 89.9512L96.2317 99.0836ZM90.1747 84.9508L94.8543 83.9478L102.146 96.1637C101.269 96.8443 100.743 97.8975 100.735 99.0172L97.8164 99.061L89.1409 89.0098C89.9381 87.8464 90.327 86.414 90.1747 84.9508ZM89.4893 74.9612L94.1965 82.8443L89.9284 83.7582C89.5136 82.4246 88.6775 81.3309 87.6064 80.5855L89.4893 74.9612ZM92.3363 62.6269L88.7698 73.2792L81.2448 60.6744C81.8411 60.2822 82.3013 59.7281 82.5816 59.0897L92.3363 62.6269ZM112.246 78.9829L94.4476 82.7924L89.5914 74.6566L93.4803 63.0401L114.936 70.8179L112.246 78.9829ZM112.521 78.923L115.164 70.9022L128.098 75.5899L112.521 78.923ZM147.437 82.5996L145.974 85.4207L107.769 97.6885C107.552 97.1441 107.211 96.679 106.793 96.3096L112.08 80.263L130.256 76.3709L147.437 82.5996ZM148.315 80.9031L147.549 82.3825L130.705 76.2769L145.34 73.1431L148.315 80.9031ZM147.69 71.3964L145.141 71.9424L132.201 38.1934L150.318 65.6068C148.448 66.8707 147.401 69.1068 147.69 71.3964ZM153.478 81.5042C152.572 80.6066 151.225 80.2096 149.911 80.5806C149.889 80.5887 149.866 80.5985 149.84 80.6066L151.985 76.4697C153.056 76.7906 154.23 76.823 155.385 76.4957C155.913 76.345 156.404 76.1295 156.853 75.8589L157.858 77.4566C156.138 79.0429 154.636 80.4316 153.478 81.5042ZM165.068 88.9288C161.422 87.6714 157.828 86.3929 154.411 85.0966C154.594 84.4647 154.612 83.776 154.418 83.0971C154.265 82.5542 153.991 82.0779 153.643 81.6809C155.011 80.417 156.471 79.0656 157.989 77.6656L165.068 88.9288ZM158.767 76.6172L157.832 75.1297C158.791 74.2515 159.444 73.0832 159.693 71.8096L163.514 72.239C161.847 73.7767 160.241 75.2561 158.767 76.6172ZM194.032 98.9654C187.812 96.6191 181.022 94.3311 174.421 92.1063C171.927 91.2654 169.408 90.4163 166.901 89.5591L158.898 76.8262C160.505 75.3436 162.163 73.814 163.835 72.2746L191.407 75.3776L196.505 96.9577C196.45 96.9707 196.396 96.9804 196.343 96.995C195.282 97.2964 194.467 98.0385 194.032 98.9654ZM180.277 110.844L194.397 102.66C194.886 103.327 195.585 103.804 196.372 104.021C193.7 110.579 191.027 117.136 188.353 123.694L180.277 110.844ZM144.93 131.823C145.818 132.523 147.016 132.807 148.186 132.475C148.323 132.436 148.453 132.389 148.583 132.335L149.516 134.105L143.966 132.599L144.93 131.823ZM129.867 128.779C129.84 128.365 129.768 127.949 129.652 127.532C129.25 126.116 128.377 124.959 127.25 124.185L130.65 117.627L144.141 126.967C143.584 127.819 143.381 128.9 143.681 129.96C143.874 130.64 144.251 131.219 144.741 131.663L143.674 132.522L129.867 128.779ZM126.228 134.767C128.203 133.91 129.537 132.086 129.824 130.028L142.505 133.463L128.407 144.823L126.228 134.767ZM103.386 95.535C103.005 95.642 102.655 95.8089 102.344 96.0195L95.1055 83.8959L111.805 80.3197L106.591 96.1475C105.709 95.4751 104.534 95.2093 103.386 95.535ZM148.466 80.6147L145.582 73.0929L147.962 72.5825C148.472 74.1024 149.534 75.295 150.856 76.0031L148.466 80.6147ZM150.631 87.7265L147.777 125.364C147.265 125.282 146.729 125.303 146.196 125.454C145.4 125.679 144.746 126.155 144.282 126.768L130.763 117.41L147.443 85.2279C147.913 86.6619 149.197 87.6179 150.631 87.7265ZM179.096 111.248L150.627 127.748C150.201 126.542 149.197 125.685 148.019 125.41L150.875 87.7394C151.214 87.7411 151.559 87.6989 151.903 87.6017C153.077 87.2695 153.951 86.3961 154.338 85.3299C157.841 86.6586 161.534 87.9679 165.276 89.2593L179.096 111.248ZM194.258 102.46L180.149 110.637L167.107 89.8864C169.519 90.7128 171.943 91.5279 174.343 92.338C180.941 94.5596 187.723 96.8459 193.938 99.1906C193.661 99.9035 193.601 100.707 193.827 101.501C193.924 101.85 194.074 102.169 194.258 102.46ZM107.848 97.9202L145.815 85.7269L129.754 116.712L107.331 101.187C107.965 100.314 108.209 99.1711 107.892 98.0498C107.879 98.0045 107.861 97.9623 107.848 97.9202ZM104.121 106.362L104.12 102.681C104.533 102.712 104.956 102.676 105.375 102.556C106.111 102.347 106.728 101.927 107.184 101.381L129.642 116.929L126.184 123.598C124.949 123.072 123.533 122.947 122.141 123.341C121.266 123.59 120.49 124.018 119.842 124.575L104.121 106.362ZM118.999 125.46C117.868 126.918 117.413 128.868 117.932 130.78L104.128 136.796L104.121 108.224L118.999 125.46ZM101.465 101.235C102.049 102.01 102.919 102.524 103.877 102.658V106.08L100.451 102.11L101.465 101.235ZM101.323 101.036L100.291 101.926L98.0238 99.3008L100.74 99.2603C100.756 99.5195 100.798 99.7804 100.871 100.041C100.973 100.404 101.127 100.738 101.323 101.036ZM149.837 134.192L148.803 132.235C150.349 131.475 151.185 129.701 150.705 127.983L179.225 111.454L187.789 125.079C185.415 130.903 183.041 136.725 180.668 142.548L149.837 134.192ZM198.083 151.198L171.717 168.935C171.407 168.505 171.028 168.149 170.605 167.885C173.885 159.839 177.164 151.794 180.441 143.748L197.701 148.426C197.63 149.156 197.691 149.911 197.903 150.662C197.955 150.846 198.017 151.023 198.083 151.198ZM82.136 55.4147L97.6997 46.6031L92.4141 62.3952L82.6675 58.8628C82.9187 58.1677 82.9641 57.3947 82.7486 56.6316C82.6189 56.1762 82.4066 55.7679 82.136 55.4147ZM80.4509 80.7265C78.8451 81.945 77.9231 83.9105 78.0576 85.9603L49.1988 96.9334C49.1259 96.8508 49.0497 96.7714 48.9703 96.6936L70.3462 68.4781L80.4509 80.7265ZM76.4664 59.9954L70.9409 67.2887L65.7428 60.9871L75.6627 58.3394C75.6821 58.4334 75.6999 58.5274 75.7275 58.6214C75.8749 59.1447 76.1342 59.6066 76.4664 59.9954ZM132.082 167.522L132.092 167.564L107.383 165.345C107.381 165.307 107.375 165.268 107.372 165.229L132.082 167.522ZM107.341 164.982C107.318 164.853 107.291 164.722 107.253 164.59C107.072 163.949 106.727 163.399 106.281 162.967L127.406 145.945L132.029 167.274L107.341 164.982ZM169.33 175.076L169.523 176.469L144.968 196.773C144.934 196.739 144.899 196.704 144.862 196.67L166.457 173.491C167.159 174.476 168.226 175.074 169.33 175.076ZM165.686 170.396L133.299 167.39L128.466 145.089L142.795 133.544L150.292 135.576L167.308 167.792C166.418 168.322 165.835 169.288 165.686 170.396ZM204.643 142.988C203.816 142.864 202.952 142.911 202.095 143.153C201.669 143.273 201.266 143.438 200.89 143.639L188.513 123.947C191.213 117.324 193.912 110.702 196.612 104.079C197.165 104.193 197.751 104.181 198.333 104.016C198.782 103.89 199.182 103.681 199.532 103.417L212.934 120.649L204.643 142.988ZM213.747 140.954L208.249 144.908C208.202 144.856 208.152 144.802 208.104 144.751L213.747 140.954ZM220.184 136.326L220.075 136.406L207.925 144.577C207.321 144.008 206.605 143.571 205.829 143.287L213.812 121.779L221.548 131.726C220.218 132.569 219.535 134.212 219.989 135.804C220.041 135.988 220.109 136.159 220.184 136.326ZM211.839 84.1454L199.867 97.8797C199.055 97.0987 197.907 96.713 196.743 96.9059L191.665 75.4068L211.077 77.591L211.924 78.4385C210.779 79.3232 210.221 80.8447 210.641 82.3209C210.853 83.0663 211.281 83.6901 211.839 84.1454ZM215.99 78.1436L215.98 78.1711C215.962 78.1598 215.941 78.1485 215.924 78.1371L215.99 78.1436ZM189.802 51.7202L215.33 50.5309L221.062 60.8137L216.337 76.9591L210.085 76.2559L189.087 55.2721C189.871 54.3728 190.202 53.1089 189.853 51.8758C189.837 51.8239 189.816 51.7737 189.802 51.7202ZM125.526 28.1244C125.039 28.9103 124.851 29.8728 125.065 30.8353L99.3979 45.3619L106.879 23.017L125.526 28.1244ZM110.384 12.5478L110.512 12.167C111.423 12.3485 112.392 12.3225 113.348 12.0519C113.787 11.9272 114.202 11.7554 114.587 11.5464L115.007 12.1816L110.384 12.5478ZM115.161 12.4133L125.345 27.823L106.957 22.7853L110.3 12.7973L115.161 12.4133ZM77.9766 21.254L77.8955 18.091C78.2974 18.117 78.709 18.0797 79.1189 17.963C80.1624 17.6665 80.9678 16.9438 81.4053 16.0364L86.3441 17.391L77.9766 21.254ZM88.1638 17.8885L105.704 22.6929L97.8164 46.2579L81.9789 55.2235C81.2027 54.3387 80.0279 53.8656 78.8224 54.0049L78.0106 22.5795L88.1638 17.8885ZM46.7261 44.6262L46.7277 44.0591C46.9141 44.0235 47.102 43.9813 47.2884 43.9295C47.3597 43.9068 47.4293 43.8857 47.5006 43.863L46.7261 44.6262ZM48.0613 43.6508C48.5004 43.4596 48.9071 43.2197 49.2798 42.941L64.2796 61.1265L46.6953 65.8207L46.7261 44.9697L48.0613 43.6508ZM89.4196 204.711L98.0222 181.155L134.738 199.527C134.604 200.046 134.537 200.584 134.547 201.131L91.3398 207.371C91.3252 207.307 91.3122 207.245 91.2944 207.182C90.9817 206.077 90.28 205.207 89.4196 204.711ZM178.268 239.614L178.401 240.576C178.316 240.595 178.232 240.612 178.145 240.636C177.624 240.785 177.164 241.041 176.777 241.37L175.993 240.469L178.268 239.614ZM175.142 239.49L145.204 205.04C145.499 204.701 145.755 204.333 145.969 203.939L175.089 216.663L178.098 238.379L175.142 239.49ZM222.062 47.5235C221.293 48.1392 220.799 49.0498 220.71 50.0366L216.555 50.2295L205.176 29.8177C205.257 29.7561 205.331 29.6897 205.409 29.6248L222.062 47.5235ZM207.17 27.1019L223.03 46.9677C222.752 47.0746 222.494 47.2123 222.258 47.376L205.59 29.4644C206.299 28.8098 206.837 27.9996 207.17 27.1019ZM160.528 12.5834C160.974 12.4554 161.374 12.248 161.724 11.9871L164.725 16.9471L151.293 14.0822L156.313 10.7864C157.101 12.2723 158.843 13.0614 160.528 12.5834ZM50.9261 35.0887L61.1506 30.367L51.3944 40.0114C51.7735 38.8885 51.827 37.6441 51.4803 36.4174C51.3458 35.9443 51.1578 35.5003 50.9261 35.0887ZM7.87447 148.962L23.2388 129.722L36.5566 142.232L8.84183 150.816C8.82239 150.715 8.7997 150.616 8.77216 150.516C8.6004 149.91 8.28605 149.383 7.87447 148.962ZM108.495 250.355L98.4094 228.921L135.339 204.038C136.025 205.245 137.096 206.163 138.343 206.668L136.13 249.858C136.017 249.882 135.905 249.909 135.793 249.942L112.896 253.082C112.883 253.022 112.871 252.964 112.855 252.904C112.319 251.014 110.389 249.901 108.495 250.355ZM224.729 200.308L204.772 197.022L204.662 191.492L228.885 179.026L230.398 192.438L224.729 200.308ZM230.421 197.576C229.023 197.973 228.117 199.312 228.046 200.854L226.067 200.529L230.601 194.238L230.965 197.481C230.784 197.495 230.602 197.524 230.421 197.576ZM243.505 166.99L226.91 159.352L224.536 138.305C224.78 138.232 225.014 138.136 225.233 138.018L244.85 165.122C244.287 165.655 243.831 166.292 243.505 166.99ZM248.538 63.4873C247.989 61.5478 245.972 60.4216 244.032 60.9709C243.679 61.0714 243.352 61.2221 243.057 61.41L207.415 26.2577C207.614 25.3211 207.6 24.323 207.319 23.3378C206.402 20.1068 203.042 18.2288 199.811 19.1459C198.112 19.6255 196.795 20.7841 196.053 22.2424L163.059 9.99891C163.219 9.38803 163.227 8.72854 163.043 8.07715C162.493 6.13757 160.476 5.01303 158.538 5.56072C157.273 5.91882 156.355 6.90239 156.023 8.0804L117.768 6.0209C117.753 5.52993 117.679 5.0341 117.54 4.54151C116.624 1.31049 113.262 -0.565902 110.031 0.349607C107.069 1.19058 105.247 4.08294 105.667 7.0466L81.2238 12.5332C80.3877 11.1818 78.7317 10.4866 77.1291 10.942C75.2073 11.488 74.086 13.4714 74.6013 15.3964L49.4224 33.3274C47.9414 32.1461 45.9321 31.6698 43.9698 32.2272C40.7388 33.141 38.8624 36.5049 39.7779 39.736C39.9756 40.4295 40.2867 41.0566 40.6837 41.6107L18.4247 69.9299C17.7231 69.5799 16.9291 69.4762 16.1594 69.6934C14.3495 70.207 13.3578 72.2989 13.9444 74.3665C14.2053 75.2836 14.7319 76.0387 15.3962 76.554L7.03674 108.937C6.47933 108.935 5.91382 109.008 5.35318 109.169C2.12054 110.084 0.244148 113.447 1.15966 116.678C1.7673 118.817 3.44438 120.361 5.44716 120.895L4.7666 147.901C4.5997 147.923 4.43281 147.952 4.26591 148.001C2.32794 148.55 1.20179 150.566 1.75109 152.506C2.27771 154.364 4.15248 155.471 6.01429 155.077L22.7867 190.502C20.0208 191.689 18.496 194.771 19.3402 197.745C20.2557 200.977 23.618 202.854 26.849 201.938C27.7759 201.676 28.5909 201.209 29.2617 200.605L36.1337 206.765L41.0224 215.387C39.9481 216.275 39.4604 217.88 39.9108 219.474C40.4974 221.542 42.4402 222.802 44.2502 222.29C45.8884 221.825 46.8525 220.065 46.5851 218.2L48.3854 217.751L72.3539 239.242C70.9409 240.748 70.33 242.935 70.9344 245.066C71.8516 248.299 75.2138 250.173 78.4448 249.258C80.2386 248.751 81.6127 247.489 82.3256 245.912L105.824 252.952C105.657 253.57 105.646 254.236 105.832 254.895C106.383 256.833 108.401 257.961 110.339 257.41C111.76 257.008 112.74 255.814 112.947 254.443L131.365 255.947C131.377 256.446 131.449 256.95 131.591 257.454C132.507 260.685 135.869 262.561 139.102 261.646C142.304 260.737 144.175 257.425 143.313 254.22L175.722 245.411C176.375 247.182 178.29 248.18 180.136 247.657C182.074 247.108 183.2 245.09 182.651 243.151C182.591 242.934 182.508 242.725 182.413 242.529L199.725 232.588C201.164 234.671 203.815 235.715 206.386 234.986C209.615 234.069 211.493 230.706 210.576 227.474C210.33 226.595 209.899 225.819 209.338 225.17L229.757 204.511C230.572 205.103 231.576 205.339 232.544 205.066C234.352 204.552 235.345 202.46 234.759 200.391C234.561 199.692 234.206 199.09 233.757 198.613L246.015 174.831C247.383 175.609 249.05 175.86 250.682 175.397C253.913 174.481 255.79 171.117 254.874 167.886C254.36 166.079 253.083 164.699 251.491 163.992L254.074 140.243C254.905 139.342 255.263 138.044 254.905 136.778C254.817 136.475 254.694 136.193 254.543 135.934L256.794 115.232C258.499 114.542 259.447 112.666 258.935 110.857C258.526 109.417 257.308 108.428 255.913 108.239L246.547 67.7943C248.156 67.057 249.036 65.2422 248.538 63.4873Z" fill="white" fill-opacity="0.21"/>
</svg>
