<svg width="468" height="527" viewBox="0 0 468 527" fill="none" xmlns="http://www.w3.org/2000/svg">
<mask id="path-1-inside-1_786_2320" fill="white">
<path d="M449.262 -39C448.855 -38.8081 448.467 -38.6162 448.08 -38.4204V11.0532H400.057C399.784 11.4408 399.496 11.8477 399.224 12.2316H448.06V68.0501C448.467 67.4897 448.855 66.9292 449.243 66.388V12.2316H482.806C482.979 11.8477 483.113 11.4408 483.27 11.0532H449.243L449.262 -39ZM95.7037 -1.43709C95.2968 -1.27972 94.8899 -1.26052 94.5022 -1.12618V11.0532H73.0032C72.4619 11.4408 71.9015 11.8477 71.3603 12.2316H94.5022V76.5176H20.455C20.2631 76.9245 20.0673 77.3122 19.8754 77.696H94.5022V141.982H7.28919V110.584C6.88231 111.958 6.47544 113.328 6.11079 114.702V141.982H0.172729C0.172729 142.37 0.0383848 142.757 0 143.161H6.11079V207.447H3.24731C3.42004 207.853 3.65419 208.241 3.82692 208.644H6.11079V213.035C6.47544 213.711 6.88231 214.367 7.28919 215.028V208.644H94.483V272.911H62.8927C63.2996 273.299 63.7065 273.706 64.1095 274.109H94.483V317.59C94.9475 319.176 95.3544 320.803 95.6845 322.427V274.109H182.878V338.395H95.6845V337.082C95.2008 337.949 94.579 338.782 93.8267 339.573H94.5022V403.84H72.9264C72.7345 404.228 72.5579 404.635 72.3468 405.018H94.5022V469.324H71.226C71.4947 469.711 71.8056 470.099 72.0973 470.502H94.5022V493.625C94.8899 493.955 95.2968 494.266 95.7037 494.573V470.483H182.878V526.823C183.285 526.823 183.673 526.823 184.057 526.823V470.483H254.569C254.837 470.099 255.091 469.692 255.379 469.324H184.057V405.018H271.274V452.293C271.661 452.001 272.064 451.69 272.471 451.402V405.018H359.688V444.017C360.072 444.151 360.46 444.17 360.866 444.247V405.018H448.08V467.063C448.467 467.216 448.855 467.216 449.262 467.312V405.018H536.475V462.249C536.862 462.035 537.25 461.804 537.653 461.589V405.018H598.826C599.118 404.635 599.368 404.228 599.64 403.84H537.634V339.573H624.851V355.411C625.258 354.247 625.642 353.088 626.048 351.929V339.573H629.703C629.837 339.17 629.914 338.782 630.014 338.395H626.048V274.089H631.077C630.919 273.706 630.804 273.299 630.67 272.911H626.048V263.515C625.661 262.935 625.277 262.336 624.851 261.776V272.911H537.634V210.579C537.25 210.425 536.843 210.329 536.456 210.229V272.911H449.243V208.644H530.967C529.458 208.241 527.93 207.853 526.403 207.447H449.243V185.717C448.855 185.579 448.467 185.464 448.06 185.349V207.466H360.847V143.161H412.275C412.275 142.777 412.275 142.37 412.275 141.982H360.79V77.7152H441.236C441.508 77.3122 441.758 76.9245 442.049 76.5368H360.79V65.8084C360.402 66.2729 360.014 66.6759 359.607 67.1212V76.5368H350.234C349.789 76.9437 349.324 77.3122 348.86 77.7152H359.607V141.982H272.394V77.7152H279.991C279.43 77.3314 278.908 76.9245 278.348 76.5368H272.394V71.5891C271.988 71.1822 271.6 70.7562 271.197 70.3301V76.5368H183.98V42.7049C183.573 42.3748 183.189 42.0255 182.821 41.6992V76.5368H95.6231V12.2508H133.946C133.539 11.8477 133.113 11.4408 132.668 11.0724H95.6231L95.7037 -1.43709ZM95.7037 77.696H182.878V141.982H95.7037V77.696ZM184.057 77.696H271.274V141.982H184.057V77.696ZM7.28919 143.161H94.5022V207.447H7.28919V143.161ZM95.7037 143.161H182.878V207.447H95.7037V143.161ZM184.057 143.161H271.274V207.447H184.057V143.161ZM272.452 143.161H359.669V207.447H272.452V143.161ZM95.7037 208.644H182.878V272.911H95.7037V208.644ZM184.057 208.644H271.274V272.911H184.057V208.644ZM272.452 208.644H359.669V272.911H272.452V208.644ZM360.847 208.644H448.08V272.911H360.847V208.644ZM184.057 274.089H271.274V338.376H184.057V274.089ZM272.452 274.089H359.669V338.376H272.452V274.089ZM360.847 274.089H448.08V338.376H360.847V274.089ZM449.262 274.089H536.456V338.376H449.262V274.089ZM537.634 274.089H624.851V338.376H537.634V274.089ZM95.7037 339.554H182.878V403.84H95.7037V339.554ZM184.057 339.554H271.274V403.84H184.057V339.554ZM272.452 339.554H359.669V403.84H272.452V339.554ZM360.847 339.554H448.08V403.84H360.847V339.554ZM449.262 339.554H536.456V403.84H449.262V339.554ZM95.7037 405.018H182.878V469.324H95.7037V405.018ZM459.199 469.324C461.575 469.75 463.936 470.137 466.274 470.502H512.83C514.569 470.137 516.312 469.769 518.05 469.324H459.199Z"/>
</mask>
<path d="M449.262 -39C448.855 -38.8081 448.467 -38.6162 448.08 -38.4204V11.0532H400.057C399.784 11.4408 399.496 11.8477 399.224 12.2316H448.06V68.0501C448.467 67.4897 448.855 66.9292 449.243 66.388V12.2316H482.806C482.979 11.8477 483.113 11.4408 483.27 11.0532H449.243L449.262 -39ZM95.7037 -1.43709C95.2968 -1.27972 94.8899 -1.26052 94.5022 -1.12618V11.0532H73.0032C72.4619 11.4408 71.9015 11.8477 71.3603 12.2316H94.5022V76.5176H20.455C20.2631 76.9245 20.0673 77.3122 19.8754 77.696H94.5022V141.982H7.28919V110.584C6.88231 111.958 6.47544 113.328 6.11079 114.702V141.982H0.172729C0.172729 142.37 0.0383848 142.757 0 143.161H6.11079V207.447H3.24731C3.42004 207.853 3.65419 208.241 3.82692 208.644H6.11079V213.035C6.47544 213.711 6.88231 214.367 7.28919 215.028V208.644H94.483V272.911H62.8927C63.2996 273.299 63.7065 273.706 64.1095 274.109H94.483V317.59C94.9475 319.176 95.3544 320.803 95.6845 322.427V274.109H182.878V338.395H95.6845V337.082C95.2008 337.949 94.579 338.782 93.8267 339.573H94.5022V403.84H72.9264C72.7345 404.228 72.5579 404.635 72.3468 405.018H94.5022V469.324H71.226C71.4947 469.711 71.8056 470.099 72.0973 470.502H94.5022V493.625C94.8899 493.955 95.2968 494.266 95.7037 494.573V470.483H182.878V526.823C183.285 526.823 183.673 526.823 184.057 526.823V470.483H254.569C254.837 470.099 255.091 469.692 255.379 469.324H184.057V405.018H271.274V452.293C271.661 452.001 272.064 451.69 272.471 451.402V405.018H359.688V444.017C360.072 444.151 360.46 444.17 360.866 444.247V405.018H448.08V467.063C448.467 467.216 448.855 467.216 449.262 467.312V405.018H536.475V462.249C536.862 462.035 537.25 461.804 537.653 461.589V405.018H598.826C599.118 404.635 599.368 404.228 599.64 403.84H537.634V339.573H624.851V355.411C625.258 354.247 625.642 353.088 626.048 351.929V339.573H629.703C629.837 339.17 629.914 338.782 630.014 338.395H626.048V274.089H631.077C630.919 273.706 630.804 273.299 630.67 272.911H626.048V263.515C625.661 262.935 625.277 262.336 624.851 261.776V272.911H537.634V210.579C537.25 210.425 536.843 210.329 536.456 210.229V272.911H449.243V208.644H530.967C529.458 208.241 527.93 207.853 526.403 207.447H449.243V185.717C448.855 185.579 448.467 185.464 448.06 185.349V207.466H360.847V143.161H412.275C412.275 142.777 412.275 142.37 412.275 141.982H360.79V77.7152H441.236C441.508 77.3122 441.758 76.9245 442.049 76.5368H360.79V65.8084C360.402 66.2729 360.014 66.6759 359.607 67.1212V76.5368H350.234C349.789 76.9437 349.324 77.3122 348.86 77.7152H359.607V141.982H272.394V77.7152H279.991C279.43 77.3314 278.908 76.9245 278.348 76.5368H272.394V71.5891C271.988 71.1822 271.6 70.7562 271.197 70.3301V76.5368H183.98V42.7049C183.573 42.3748 183.189 42.0255 182.821 41.6992V76.5368H95.6231V12.2508H133.946C133.539 11.8477 133.113 11.4408 132.668 11.0724H95.6231L95.7037 -1.43709ZM95.7037 77.696H182.878V141.982H95.7037V77.696ZM184.057 77.696H271.274V141.982H184.057V77.696ZM7.28919 143.161H94.5022V207.447H7.28919V143.161ZM95.7037 143.161H182.878V207.447H95.7037V143.161ZM184.057 143.161H271.274V207.447H184.057V143.161ZM272.452 143.161H359.669V207.447H272.452V143.161ZM95.7037 208.644H182.878V272.911H95.7037V208.644ZM184.057 208.644H271.274V272.911H184.057V208.644ZM272.452 208.644H359.669V272.911H272.452V208.644ZM360.847 208.644H448.08V272.911H360.847V208.644ZM184.057 274.089H271.274V338.376H184.057V274.089ZM272.452 274.089H359.669V338.376H272.452V274.089ZM360.847 274.089H448.08V338.376H360.847V274.089ZM449.262 274.089H536.456V338.376H449.262V274.089ZM537.634 274.089H624.851V338.376H537.634V274.089ZM95.7037 339.554H182.878V403.84H95.7037V339.554ZM184.057 339.554H271.274V403.84H184.057V339.554ZM272.452 339.554H359.669V403.84H272.452V339.554ZM360.847 339.554H448.08V403.84H360.847V339.554ZM449.262 339.554H536.456V403.84H449.262V339.554ZM95.7037 405.018H182.878V469.324H95.7037V405.018ZM459.199 469.324C461.575 469.75 463.936 470.137 466.274 470.502H512.83C514.569 470.137 516.312 469.769 518.05 469.324H459.199Z" fill="white" stroke="url(#paint0_linear_786_2320)" stroke-width="4" mask="url(#path-1-inside-1_786_2320)"/>
<defs>
<linearGradient id="paint0_linear_786_2320" x1="-2.74934e-07" y1="7.79966" x2="663.233" y2="58.3799" gradientUnits="userSpaceOnUse">
<stop stop-color="#060606" stop-opacity="0.48"/>
<stop offset="1" stop-color="#AB06D5" stop-opacity="0.92"/>
</linearGradient>
</defs>
</svg>
